<svg width="1020" height="275" viewBox="0 0 1020 275" fill="none" xmlns="http://www.w3.org/2000/svg">
<path d="M93.5252 131.538C87.8663 131.538 82.449 130.744 77.2731 129.157C72.0973 127.501 67.9912 125.396 64.9547 122.843L69.6129 112.387C72.5114 114.665 76.1 116.563 80.3786 118.081C84.6573 119.599 89.0395 120.358 93.5252 120.358C97.3208 120.358 100.392 119.944 102.738 119.116C105.085 118.288 106.81 117.184 107.914 115.804C109.018 114.354 109.57 112.733 109.57 110.938C109.57 108.73 108.777 106.97 107.189 105.659C105.602 104.279 103.532 103.209 100.978 102.45C98.494 101.622 95.6991 100.863 92.5936 100.173C89.5571 99.4825 86.4861 98.6888 83.3806 97.7917C80.3441 96.8255 77.5492 95.6178 74.9958 94.1686C72.5114 92.6504 70.4756 90.6491 68.8883 88.1647C67.3011 85.6803 66.5074 82.5058 66.5074 78.6412C66.5074 74.7075 67.5426 71.119 69.6129 67.8755C71.7523 64.5629 74.9613 61.9405 79.24 60.0082C83.5876 58.0069 89.074 57.0062 95.6991 57.0062C100.047 57.0062 104.36 57.5583 108.639 58.6625C112.917 59.7667 116.644 61.3539 119.818 63.4243L115.574 73.8794C112.331 71.9471 108.984 70.5324 105.533 69.6352C102.083 68.6691 98.77 68.186 95.5955 68.186C91.8689 68.186 88.8325 68.6346 86.4861 69.5317C84.2087 70.4289 82.518 71.6021 81.4138 73.0513C80.3786 74.5005 79.8611 76.1568 79.8611 78.0201C79.8611 80.2284 80.6202 82.0227 82.1384 83.4029C83.7257 84.7141 85.7615 85.7493 88.2459 86.5084C90.7993 87.2675 93.6287 88.0266 96.7342 88.7858C99.8397 89.4759 102.911 90.2695 105.947 91.1666C109.053 92.0638 111.848 93.237 114.332 94.6862C116.885 96.1354 118.921 98.1022 120.439 100.587C122.027 103.071 122.82 106.211 122.82 110.007C122.82 113.871 121.751 117.46 119.611 120.772C117.541 124.016 114.332 126.638 109.984 128.64C105.637 130.572 100.15 131.538 93.5252 131.538Z" fill="#7481AA"/>
<path d="M134.922 130.503V75.2251H147.862V130.503H134.922Z" fill="#7481AA"/>
<path d="M234.615 74.604C239.031 74.604 242.931 75.4667 246.312 77.1919C249.763 78.9172 252.454 81.5741 254.386 85.1627C256.319 88.6822 257.285 93.237 257.285 98.8269V130.503H244.345V100.483C244.345 95.5833 243.276 91.9258 241.136 89.5104C238.997 87.095 235.926 85.8873 231.923 85.8873C229.094 85.8873 226.575 86.5084 224.367 87.7506C222.227 88.9928 220.537 90.8216 219.294 93.237C218.121 95.6524 217.535 98.7233 217.535 102.45V130.503H204.595V100.483C204.595 95.5833 203.525 91.9258 201.386 89.5104C199.247 87.095 196.176 85.8873 192.173 85.8873C189.344 85.8873 186.825 86.5084 184.616 87.7506C182.477 88.9928 180.786 90.8216 179.544 93.237C178.371 95.6524 177.784 98.7233 177.784 102.45V130.503H164.845V75.2251H177.163V89.9244L174.989 85.5768C176.853 81.9882 179.544 79.2623 183.064 77.399C186.652 75.5357 190.724 74.604 195.279 74.604C200.454 74.604 204.94 75.8807 208.736 78.4341C212.6 80.9875 215.154 84.8521 216.396 90.028L211.324 88.2682C213.118 84.1275 216.085 80.815 220.226 78.3306C224.367 75.8462 229.163 74.604 234.615 74.604Z" fill="#7481AA"/>
<path d="M304.461 131.227C299.975 131.227 295.869 130.192 292.142 128.122C288.485 126.052 285.552 122.946 283.343 118.806C281.204 114.596 280.134 109.282 280.134 102.864C280.134 96.377 281.17 91.0631 283.24 86.9225C285.379 82.7818 288.278 79.7108 291.935 77.7095C295.593 75.6392 299.768 74.604 304.461 74.604C309.913 74.604 314.709 75.7772 318.85 78.1236C323.059 80.47 326.372 83.748 328.787 87.9576C331.272 92.1673 332.514 97.1361 332.514 102.864C332.514 108.592 331.272 113.595 328.787 117.874C326.372 122.084 323.059 125.362 318.85 127.708C314.709 130.054 309.913 131.227 304.461 131.227ZM273.82 150.585V75.2251H286.138V88.2682L285.724 102.968L286.759 117.667V150.585H273.82ZM303.012 120.151C306.117 120.151 308.877 119.461 311.293 118.081C313.777 116.701 315.744 114.699 317.193 112.077C318.643 109.455 319.367 106.384 319.367 102.864C319.367 99.2754 318.643 96.2044 317.193 93.651C315.744 91.0286 313.777 89.0273 311.293 87.6471C308.877 86.2669 306.117 85.5768 303.012 85.5768C299.906 85.5768 297.111 86.2669 294.627 87.6471C292.142 89.0273 290.176 91.0286 288.726 93.651C287.277 96.2044 286.552 99.2754 286.552 102.864C286.552 106.384 287.277 109.455 288.726 112.077C290.176 114.699 292.142 116.701 294.627 118.081C297.111 119.461 299.906 120.151 303.012 120.151Z" fill="#7481AA"/>
<path d="M344.785 130.503V53.6937H357.725V130.503H344.785Z" fill="#7481AA"/>
<path d="M379.263 151.31C376.571 151.31 373.88 150.861 371.188 149.964C368.497 149.067 366.254 147.825 364.46 146.237L369.636 136.714C370.947 137.887 372.431 138.819 374.087 139.509C375.743 140.199 377.434 140.544 379.159 140.544C381.505 140.544 383.403 139.957 384.853 138.784C386.302 137.611 387.647 135.644 388.89 132.884L392.099 125.638L393.134 124.085L414.044 75.2251H426.466L400.587 134.954C398.862 139.095 396.929 142.373 394.79 144.788C392.72 147.203 390.373 148.894 387.751 149.86C385.198 150.827 382.368 151.31 379.263 151.31ZM390.649 132.47L365.702 75.2251H379.159L399.448 122.946L390.649 132.47Z" fill="#7481AA"/>
<path d="M464.404 130.503V58.0414H496.08C503.947 58.0414 510.848 59.5597 516.783 62.5961C522.718 65.6326 527.342 69.8423 530.654 75.2251C533.967 80.608 535.623 86.957 535.623 94.2721C535.623 101.518 533.967 107.867 530.654 113.319C527.342 118.702 522.718 122.912 516.783 125.948C510.848 128.985 503.947 130.503 496.08 130.503H464.404ZM477.861 119.116H495.459C500.911 119.116 505.604 118.081 509.537 116.011C513.54 113.94 516.611 111.042 518.75 107.315C520.958 103.589 522.063 99.2409 522.063 94.2721C522.063 89.2343 520.958 84.8867 518.75 81.2291C516.611 77.5025 513.54 74.604 509.537 72.5337C505.604 70.4634 500.911 69.4282 495.459 69.4282H477.861V119.116Z" fill="#7481AA"/>
<path d="M574.667 131.227C568.525 131.227 563.142 130.02 558.518 127.604C553.963 125.12 550.409 121.738 547.856 117.46C545.372 113.181 544.129 108.316 544.129 102.864C544.129 97.3431 545.337 92.4779 547.752 88.2682C550.237 83.9895 553.618 80.6425 557.897 78.2271C562.245 75.8117 567.179 74.604 572.7 74.604C578.083 74.604 582.879 75.7772 587.089 78.1236C591.298 80.47 594.611 83.7825 597.026 88.0612C599.442 92.3398 600.649 97.3776 600.649 103.175C600.649 103.727 600.615 104.348 600.546 105.038C600.546 105.728 600.511 106.384 600.442 107.005H554.378V98.4128H593.61L588.538 101.104C588.607 97.9297 587.951 95.1348 586.571 92.7194C585.191 90.304 583.293 88.4062 580.878 87.026C578.531 85.6458 575.805 84.9557 572.7 84.9557C569.525 84.9557 566.731 85.6458 564.315 87.026C561.969 88.4062 560.105 90.3385 558.725 92.8229C557.414 95.2383 556.758 98.1022 556.758 101.415V103.485C556.758 106.798 557.518 109.731 559.036 112.284C560.554 114.837 562.693 116.804 565.454 118.184C568.214 119.565 571.389 120.255 574.977 120.255C578.083 120.255 580.878 119.772 583.362 118.806C585.846 117.839 588.055 116.321 589.987 114.251L596.923 122.222C594.438 125.12 591.298 127.363 587.503 128.95C583.776 130.468 579.497 131.227 574.667 131.227Z" fill="#7481AA"/>
<path d="M638.44 131.227C632.643 131.227 627.467 130.02 622.913 127.604C618.427 125.12 614.907 121.738 612.354 117.46C609.801 113.181 608.524 108.316 608.524 102.864C608.524 97.3431 609.801 92.4779 612.354 88.2682C614.907 83.9895 618.427 80.6425 622.913 78.2271C627.467 75.8117 632.643 74.604 638.44 74.604C643.823 74.604 648.55 75.7082 652.622 77.9166C656.762 80.0559 659.902 83.2304 662.042 87.4401L652.104 93.237C650.448 90.6146 648.412 88.6823 645.997 87.4401C643.65 86.1979 641.097 85.5768 638.337 85.5768C635.162 85.5768 632.298 86.2669 629.745 87.6471C627.191 89.0273 625.19 91.0286 623.741 93.651C622.292 96.2044 621.567 99.2754 621.567 102.864C621.567 106.453 622.292 109.558 623.741 112.18C625.19 114.734 627.191 116.701 629.745 118.081C632.298 119.461 635.162 120.151 638.337 120.151C641.097 120.151 643.65 119.53 645.997 118.288C648.412 117.046 650.448 115.113 652.104 112.491L662.042 118.288C659.902 122.429 656.762 125.638 652.622 127.915C648.55 130.123 643.823 131.227 638.44 131.227Z" fill="#7481AA"/>
<path d="M672.722 130.503V53.6937H685.661V130.503H672.722Z" fill="#7481AA"/>
<path d="M726.039 131.227C721.346 131.227 717.206 130.365 713.617 128.64C710.029 126.845 707.234 124.154 705.232 120.565C703.231 116.908 702.23 112.318 702.23 106.798V75.2251H715.17V105.038C715.17 110.007 716.274 113.733 718.482 116.218C720.76 118.633 723.969 119.841 728.109 119.841C731.146 119.841 733.768 119.22 735.977 117.977C738.254 116.735 740.014 114.872 741.256 112.387C742.567 109.903 743.223 106.832 743.223 103.175V75.2251H756.162V130.503H743.844V115.596L746.018 120.151C744.155 123.74 741.429 126.5 737.84 128.433C734.251 130.296 730.318 131.227 726.039 131.227Z" fill="#7481AA"/>
<path d="M793.911 131.227C787.838 131.227 783.145 129.675 779.833 126.569C776.52 123.395 774.864 118.736 774.864 112.595V63.0102H787.804V112.284C787.804 114.906 788.459 116.942 789.77 118.391C791.151 119.841 793.048 120.565 795.464 120.565C798.362 120.565 800.778 119.806 802.71 118.288L806.333 127.501C804.815 128.743 802.952 129.675 800.743 130.296C798.535 130.917 796.257 131.227 793.911 131.227ZM765.755 85.9908V75.6392H802.607V85.9908H765.755Z" fill="#7481AA"/>
<path d="M836.47 131.227C830.397 131.227 825.704 129.675 822.392 126.569C819.079 123.395 817.423 118.736 817.423 112.595V63.0102H830.363V112.284C830.363 114.906 831.018 116.942 832.329 118.391C833.71 119.841 835.607 120.565 838.023 120.565C840.921 120.565 843.337 119.806 845.269 118.288L848.892 127.501C847.374 128.743 845.511 129.675 843.302 130.296C841.094 130.917 838.816 131.227 836.47 131.227ZM808.314 85.9908V75.6392H845.165V85.9908H808.314Z" fill="#7481AA"/>
<path d="M883.699 131.227C877.557 131.227 872.175 130.02 867.551 127.604C862.996 125.12 859.442 121.738 856.889 117.46C854.404 113.181 853.162 108.316 853.162 102.864C853.162 97.3431 854.37 92.4779 856.785 88.2682C859.27 83.9895 862.651 80.6425 866.93 78.2271C871.277 75.8117 876.212 74.604 881.733 74.604C887.115 74.604 891.912 75.7772 896.121 78.1236C900.331 80.47 903.644 83.7825 906.059 88.0612C908.474 92.3398 909.682 97.3776 909.682 103.175C909.682 103.727 909.647 104.348 909.578 105.038C909.578 105.728 909.544 106.384 909.475 107.005H863.41V98.4128H902.643L897.571 101.104C897.64 97.9297 896.984 95.1348 895.604 92.7194C894.224 90.304 892.326 88.4062 889.91 87.026C887.564 85.6458 884.838 84.9557 881.733 84.9557C878.558 84.9557 875.763 85.6458 873.348 87.026C871.001 88.4062 869.138 90.3385 867.758 92.8229C866.447 95.2383 865.791 98.1022 865.791 101.415V103.485C865.791 106.798 866.55 109.731 868.068 112.284C869.587 114.837 871.726 116.804 874.486 118.184C877.247 119.565 880.421 120.255 884.01 120.255C887.115 120.255 889.91 119.772 892.395 118.806C894.879 117.839 897.088 116.321 899.02 114.251L905.955 122.222C903.471 125.12 900.331 127.363 896.535 128.95C892.809 130.468 888.53 131.227 883.699 131.227Z" fill="#7481AA"/>
<path d="M922.111 130.503V75.2251H934.43V90.442L932.98 85.9908C934.637 82.2642 937.225 79.4348 940.744 77.5025C944.333 75.5702 948.784 74.604 954.098 74.604V86.9225C953.546 86.7845 953.028 86.7154 952.545 86.7154C952.062 86.6464 951.579 86.6119 951.096 86.6119C946.196 86.6119 942.297 88.0612 939.398 90.9596C936.5 93.7891 935.051 98.0332 935.051 103.692V130.503H922.111Z" fill="#7481AA"/>
<path d="M691.743 213.085C690.614 213.085 689.659 212.542 688.877 211.457C688.139 210.328 687.857 208.764 688.03 206.767C688.117 205.507 688.443 203.901 689.007 201.947C689.572 199.993 690.267 198.017 691.092 196.019C691.96 193.978 692.829 192.263 693.697 190.873C694.826 189.093 696.086 187.942 697.475 187.421C698.865 186.9 700.645 186.64 702.816 186.64C702.947 186.64 703.012 186.705 703.012 186.835C703.012 187.052 702.882 187.291 702.621 187.551C702.013 188.073 701.318 188.984 700.537 190.287C699.798 191.547 699.082 192.958 698.387 194.521C697.692 196.084 697.084 197.583 696.563 199.016C696.476 199.319 696.281 199.906 695.977 200.774C695.673 201.643 695.391 202.598 695.13 203.64C694.87 204.639 694.739 205.573 694.739 206.441C694.739 207.136 694.87 207.722 695.13 208.2C695.391 208.634 695.825 208.851 696.433 208.851C697.258 208.808 698.148 208.308 699.104 207.353C700.059 206.354 701.014 205.095 701.97 203.575C702.925 202.055 703.837 200.514 704.705 198.95C705.574 197.344 706.334 195.911 706.985 194.651C707.68 193.349 708.179 192.437 708.483 191.916C709.135 190.873 709.829 189.983 710.568 189.245C711.306 188.463 712.153 188.073 713.108 188.073C713.455 188.073 713.976 188.094 714.671 188.138C715.366 188.138 716.017 188.138 716.625 188.138C717.277 188.138 717.711 188.116 717.928 188.073C717.754 188.159 717.494 188.355 717.146 188.659C716.799 188.919 716.538 189.223 716.365 189.571C715.67 190.917 714.975 192.328 714.28 193.805C713.586 195.281 712.891 197.018 712.196 199.016C712.109 199.319 711.892 199.906 711.545 200.774C711.241 201.643 710.958 202.598 710.698 203.64C710.437 204.639 710.307 205.573 710.307 206.441C710.307 207.483 710.481 208.221 710.828 208.656C711.219 209.09 711.697 209.307 712.261 209.307C713.043 209.307 713.911 209.003 714.867 208.395C715.865 207.744 716.756 206.962 717.537 206.05C718.883 204.487 719.947 202.859 720.729 201.165C721.554 199.428 722.118 198.125 722.422 197.257C722.336 196.779 722.249 196.258 722.162 195.694C722.118 195.129 722.097 194.565 722.097 194C722.097 193.218 722.162 192.415 722.292 191.59C722.466 190.765 722.705 189.962 723.009 189.18C723.573 187.79 724.377 186.944 725.419 186.64C725.592 186.596 725.744 186.574 725.875 186.574C726.048 186.531 726.222 186.509 726.396 186.509C727.221 186.509 727.764 186.792 728.024 187.356C728.328 187.921 728.48 188.594 728.48 189.375C728.48 190.157 728.393 190.939 728.22 191.72C728.046 192.458 727.872 193.045 727.699 193.479C727.395 194.304 727.047 195.107 726.656 195.889C726.266 196.627 725.896 197.365 725.549 198.104C725.549 198.364 725.614 198.733 725.744 199.211C726.222 201.295 727.286 202.337 728.936 202.337C729.935 202.337 730.977 201.86 732.063 200.904C732.671 200.383 733.213 199.732 733.691 198.95C734.212 198.125 734.668 197.365 735.059 196.671C735.276 196.323 735.406 196.236 735.45 196.41C735.537 196.584 735.58 196.866 735.58 197.257C735.58 197.691 735.537 198.19 735.45 198.755C735.363 199.319 735.211 199.775 734.994 200.123C734.342 201.252 733.669 202.12 732.975 202.728C732.28 203.293 731.498 203.749 730.63 204.096C730.282 204.226 729.913 204.335 729.522 204.422C729.132 204.509 728.762 204.552 728.415 204.552C727.373 204.552 726.417 204.27 725.549 203.705C724.724 203.097 724.116 202.164 723.725 200.904L723.53 200.253C723.096 200.991 722.596 201.838 722.032 202.793C721.467 203.749 720.924 204.617 720.403 205.399C719.926 206.181 719.556 206.745 719.296 207.092C717.819 208.96 716.213 210.436 714.476 211.522C712.782 212.607 710.98 213.15 709.069 213.15C708.852 213.15 708.635 213.15 708.418 213.15C708.201 213.15 707.984 213.128 707.767 213.085C706.117 212.868 705.009 212.13 704.445 210.87C703.88 209.568 703.598 208.265 703.598 206.962C703.598 206.484 703.62 206.029 703.663 205.594C703.75 205.117 703.815 204.726 703.859 204.422C703.207 205.334 702.512 206.181 701.774 206.962C701.079 207.744 700.363 208.525 699.625 209.307C697.975 210.957 696.498 211.999 695.195 212.434C693.893 212.868 692.742 213.085 691.743 213.085ZM747.093 181.429C745.964 181.038 745.4 180.3 745.4 179.214C745.4 178.215 745.791 177.195 746.572 176.153C747.397 175.067 748.288 174.372 749.243 174.068C749.46 173.981 749.634 173.938 749.764 173.938C749.938 173.938 750.111 173.938 750.285 173.938C751.023 173.938 751.631 174.155 752.109 174.589C752.587 175.024 752.825 175.523 752.825 176.087C752.825 176.869 752.413 177.52 751.588 178.042C750.936 177.955 750.307 178.107 749.699 178.498C749.091 178.888 748.548 179.366 748.07 179.931C747.636 180.495 747.311 180.994 747.093 181.429ZM735.89 213.085C735.325 213.085 734.783 212.955 734.262 212.694C733.74 212.477 733.306 212.021 732.959 211.326C732.481 210.284 732.242 209.047 732.242 207.614C732.242 206.05 732.481 204.313 732.959 202.403C733.436 200.449 734.066 198.451 734.848 196.41C735.152 195.672 735.543 194.76 736.02 193.674C736.498 192.589 737.062 191.503 737.714 190.417C738.365 189.332 739.103 188.442 739.928 187.747C740.797 187.009 741.73 186.64 742.729 186.64C743.207 186.64 743.88 186.661 744.748 186.705C745.617 186.748 746.247 186.748 746.637 186.705C746.377 186.878 746.073 187.226 745.726 187.747C745.378 188.268 745.052 188.811 744.748 189.375C744.444 189.896 744.206 190.309 744.032 190.613C742.903 192.871 741.839 195.107 740.84 197.322C739.842 199.537 739.082 201.664 738.561 203.705C738.474 204.053 738.409 204.4 738.365 204.748C738.322 205.095 738.3 205.421 738.3 205.725C738.3 206.984 738.712 207.614 739.538 207.614C739.885 207.614 740.254 207.527 740.645 207.353C741.079 207.136 741.578 206.81 742.143 206.376C743.142 205.594 744.01 204.704 744.748 203.705C745.617 202.576 746.442 201.382 747.224 200.123C748.005 198.82 748.678 197.626 749.243 196.54C749.46 196.193 749.612 196.019 749.699 196.019C749.959 196.019 750.09 196.388 750.09 197.127C750.09 197.474 750.025 197.886 749.894 198.364C749.807 198.798 749.655 199.211 749.438 199.602C748.83 200.644 748.114 201.795 747.289 203.054C746.464 204.313 745.617 205.529 744.748 206.702C744.141 207.527 743.337 208.439 742.338 209.437C741.34 210.436 740.276 211.305 739.147 212.043C738.018 212.738 736.932 213.085 735.89 213.085ZM752.226 213.085C750.967 213.085 750.011 212.586 749.36 211.587C749.056 211.109 748.839 210.545 748.709 209.893C748.578 209.242 748.513 208.569 748.513 207.874C748.513 207.179 748.557 206.484 748.643 205.79C748.73 205.051 748.839 204.335 748.969 203.64C749.186 202.511 749.425 201.491 749.686 200.579C749.99 199.623 750.294 198.712 750.598 197.843V197.778C750.25 198.429 749.816 199.146 749.295 199.927C748.774 200.666 748.405 201.208 748.187 201.556C747.883 202.033 747.645 202.272 747.471 202.272C747.297 202.272 747.21 202.077 747.21 201.686C747.21 200.818 747.471 199.862 747.992 198.82C748.339 198.125 748.817 197.235 749.425 196.15C750.033 195.02 750.663 193.805 751.314 192.502C751.965 191.199 752.53 189.94 753.008 188.724H748.643C748.426 188.724 748.383 188.55 748.513 188.203C748.643 187.855 748.839 187.53 749.099 187.226C749.36 186.878 749.555 186.705 749.686 186.705H754.636C755.114 185.576 755.656 184.36 756.264 183.057C756.916 181.754 757.632 180.538 758.414 179.409C759.239 178.237 760.129 177.282 761.084 176.543C762.04 175.805 763.06 175.436 764.146 175.436C764.624 175.436 765.21 175.436 765.905 175.436C766.643 175.436 767.099 175.414 767.272 175.371C766.361 175.979 765.297 177.195 764.081 179.019C762.865 180.799 761.54 183.361 760.107 186.705H766.686C766.816 186.705 766.773 186.878 766.556 187.226C766.339 187.53 766.057 187.855 765.709 188.203C765.405 188.55 765.101 188.724 764.797 188.724H759.196C758.631 190.157 758.001 191.72 757.307 193.414C756.655 195.107 756.047 196.779 755.483 198.429C754.962 200.036 754.571 201.512 754.31 202.859C754.137 203.684 754.05 204.444 754.05 205.138C754.05 206.788 754.571 207.614 755.613 207.614C756.308 207.614 757.133 207.266 758.088 206.571C759.044 205.877 759.999 204.921 760.954 203.705C761.823 202.576 762.648 201.36 763.429 200.058C764.254 198.755 764.949 197.561 765.514 196.475C765.687 196.171 765.839 196.019 765.97 196.019C766.23 196.019 766.361 196.367 766.361 197.061C766.361 197.409 766.295 197.821 766.165 198.299C766.078 198.733 765.905 199.167 765.644 199.602C765.036 200.644 764.32 201.795 763.495 203.054C762.669 204.27 761.823 205.486 760.954 206.702C760.346 207.483 759.543 208.373 758.544 209.372C757.589 210.371 756.547 211.239 755.418 211.978C754.332 212.716 753.268 213.085 752.226 213.085ZM780.627 213.085C779.15 213.085 778.13 212.651 777.566 211.782C777.044 210.87 776.784 209.828 776.784 208.656C776.784 207.396 776.979 205.942 777.37 204.292C777.804 202.598 778.325 200.861 778.933 199.081C779.585 197.257 780.236 195.563 780.887 194C781.105 193.479 781.3 192.914 781.474 192.306C781.691 191.699 781.799 191.156 781.799 190.678C781.799 189.81 781.409 189.375 780.627 189.375C780.323 189.375 779.976 189.44 779.585 189.571C779.194 189.658 778.738 189.853 778.217 190.157C777.305 190.591 776.436 191.199 775.611 191.981C774.786 192.719 774.222 193.283 773.918 193.674C773.353 194.369 772.811 195.151 772.289 196.019C771.768 196.844 771.312 197.691 770.922 198.56C770.053 200.427 769.358 202.207 768.837 203.901C768.36 205.551 767.904 206.962 767.469 208.135C767.209 208.873 766.948 209.633 766.688 210.414C766.427 211.196 766.188 211.956 765.971 212.694H759.653C759.653 212.694 759.805 212.151 760.109 211.066C760.413 209.98 760.782 208.895 761.216 207.809C763.214 202.641 765.103 197.365 766.883 191.981C768.664 186.596 770.813 181.429 773.332 176.478C774.461 174.264 775.677 172.223 776.979 170.355C778.325 168.488 779.737 167.012 781.213 165.926C782.733 164.797 784.318 164.233 785.968 164.233C787.271 164.233 788.161 164.537 788.639 165.145C789.16 165.709 789.42 166.426 789.42 167.294C789.42 168.249 789.225 169.248 788.834 170.29C788.443 171.333 788.052 172.223 787.662 172.961C786.88 174.524 785.86 176.283 784.6 178.237C783.341 180.191 782.017 182.015 780.627 183.708C780.323 184.099 779.802 184.729 779.064 185.597C778.325 186.422 777.566 187.269 776.784 188.138C776.046 189.006 775.459 189.679 775.025 190.157C776.458 189.115 777.696 188.311 778.738 187.747C779.78 187.182 780.67 186.792 781.409 186.574C782.668 186.227 783.71 186.053 784.535 186.053C787.01 186.053 788.248 187.139 788.248 189.31C788.248 190.222 787.987 191.308 787.466 192.567C787.206 193.262 786.837 194.195 786.359 195.368C785.881 196.54 785.382 197.8 784.861 199.146C784.383 200.449 783.971 201.708 783.623 202.924C783.319 204.14 783.167 205.138 783.167 205.92C783.167 206.398 783.232 206.832 783.363 207.223C783.536 207.57 783.84 207.744 784.275 207.744C784.579 207.744 785.013 207.592 785.577 207.288C786.793 206.593 787.922 205.616 788.964 204.357C790.05 203.097 791.005 201.751 791.83 200.318C792.699 198.885 793.437 197.583 794.045 196.41C794.175 196.106 794.327 195.954 794.501 195.954C794.718 195.954 794.827 196.323 794.827 197.061C794.827 197.409 794.783 197.821 794.696 198.299C794.61 198.733 794.436 199.167 794.175 199.602C793.567 200.644 792.764 201.925 791.765 203.445C790.81 204.965 789.724 206.463 788.508 207.939C787.293 209.372 786.012 210.588 784.665 211.587C783.319 212.586 781.973 213.085 780.627 213.085ZM773.136 189.701C775.307 187.139 777.5 184.403 779.715 181.494C781.973 178.541 783.84 175.545 785.317 172.505C785.404 172.288 785.599 171.854 785.903 171.202C786.207 170.551 786.489 169.834 786.75 169.053C787.01 168.228 787.141 167.533 787.141 166.968C787.141 166.23 786.858 165.861 786.294 165.861C785.729 165.861 785.056 166.252 784.275 167.034C783.536 167.815 782.776 168.857 781.995 170.16C780.996 171.81 779.976 173.721 778.933 175.892C777.891 178.02 776.871 180.278 775.872 182.666C774.917 185.055 774.005 187.4 773.136 189.701ZM844.609 213.215C843.003 213.215 841.917 212.824 841.352 212.043C840.831 211.261 840.571 210.262 840.571 209.047C840.571 208.308 840.636 207.57 840.766 206.832C840.896 206.05 841.027 205.247 841.157 204.422C841.504 202.555 842.091 200.449 842.916 198.104C843.784 195.715 844.761 193.153 845.847 190.417H827.413C826.892 191.59 826.262 193.11 825.524 194.977C824.829 196.801 824.135 198.755 823.44 200.839C822.745 202.924 822.159 204.899 821.681 206.767C821.204 208.591 820.965 210.089 820.965 211.261C820.965 211.913 821.052 212.39 821.225 212.694H812.823C813.344 210.523 814.039 208.113 814.907 205.464C815.819 202.772 816.839 199.971 817.968 197.061C819.141 194.152 820.335 191.264 821.551 188.398C822.767 185.532 823.939 182.797 825.068 180.191C826.197 177.542 827.5 174.872 828.976 172.179C829.28 171.658 829.541 171.181 829.758 170.746C830.019 170.312 830.301 169.943 830.605 169.639C828.911 169.682 827.088 169.9 825.133 170.29C823.223 170.638 821.377 171.137 819.597 171.788C817.86 172.44 816.362 173.2 815.102 174.068C813.887 174.937 813.105 175.892 812.757 176.934C812.714 177.065 812.627 177.13 812.497 177.13C812.106 177.13 811.911 176.826 811.911 176.218C811.911 176.087 811.954 175.892 812.041 175.632C812.432 174.503 812.909 173.504 813.474 172.635C814.082 171.767 814.69 171.029 815.298 170.421C816.731 168.944 818.338 168.054 820.118 167.75C821.898 167.403 823.787 167.229 825.785 167.229H840.506C839.55 167.967 838.53 169.118 837.444 170.681C836.359 172.244 835.273 174.025 834.187 176.022C833.102 177.976 832.081 179.952 831.126 181.95C830.214 183.904 829.411 185.663 828.716 187.226H847.15C848.105 184.968 849.06 182.818 850.016 180.777C850.971 178.693 851.818 176.847 852.556 175.241C853.337 173.634 853.945 172.44 854.38 171.658C854.857 170.703 855.313 169.9 855.748 169.248C856.225 168.597 856.833 168.097 857.571 167.75C858.31 167.403 859.352 167.229 860.698 167.229H864.867C864.085 167.837 863.195 168.879 862.196 170.355C861.241 171.788 860.264 173.395 859.265 175.176C858.31 176.956 857.463 178.65 856.725 180.256C855.639 182.558 854.488 185.163 853.272 188.073C852.1 190.982 851.036 193.891 850.081 196.801C849.169 199.667 848.517 202.251 848.127 204.552C847.996 205.203 847.931 205.855 847.931 206.506C847.931 207.462 848.105 208.352 848.452 209.177C848.8 209.958 849.429 210.349 850.341 210.349C851.036 210.349 851.883 210.067 852.882 209.502H852.947C853.034 209.502 853.099 209.589 853.142 209.763C853.186 209.893 853.164 210.002 853.077 210.089C852.556 210.653 851.818 211.174 850.862 211.652C849.907 212.13 848.865 212.499 847.736 212.759C846.65 213.063 845.608 213.215 844.609 213.215ZM869.797 181.429C868.668 181.038 868.103 180.3 868.103 179.214C868.103 178.215 868.494 177.195 869.276 176.153C870.101 175.067 870.991 174.372 871.946 174.068C872.163 173.981 872.337 173.938 872.467 173.938C872.641 173.938 872.815 173.938 872.988 173.938C873.727 173.938 874.334 174.155 874.812 174.589C875.29 175.024 875.529 175.523 875.529 176.087C875.529 176.869 875.116 177.52 874.291 178.042C873.64 177.955 873.01 178.107 872.402 178.498C871.794 178.888 871.251 179.366 870.774 179.931C870.339 180.495 870.014 180.994 869.797 181.429ZM858.593 213.085C858.029 213.085 857.486 212.955 856.965 212.694C856.444 212.477 856.009 212.021 855.662 211.326C855.184 210.284 854.946 209.047 854.946 207.614C854.946 206.05 855.184 204.313 855.662 202.403C856.14 200.449 856.769 198.451 857.551 196.41C857.855 195.672 858.246 194.76 858.723 193.674C859.201 192.589 859.766 191.503 860.417 190.417C861.068 189.332 861.807 188.442 862.632 187.747C863.5 187.009 864.434 186.64 865.432 186.64C865.91 186.64 866.583 186.661 867.452 186.705C868.32 186.748 868.95 186.748 869.341 186.705C869.08 186.878 868.776 187.226 868.429 187.747C868.081 188.268 867.756 188.811 867.452 189.375C867.148 189.896 866.909 190.309 866.735 190.613C865.606 192.871 864.542 195.107 863.544 197.322C862.545 199.537 861.785 201.664 861.264 203.705C861.177 204.053 861.112 204.4 861.068 204.748C861.025 205.095 861.003 205.421 861.003 205.725C861.003 206.984 861.416 207.614 862.241 207.614C862.588 207.614 862.957 207.527 863.348 207.353C863.782 207.136 864.282 206.81 864.846 206.376C865.845 205.594 866.714 204.704 867.452 203.705C868.32 202.576 869.145 201.382 869.927 200.123C870.709 198.82 871.382 197.626 871.946 196.54C872.163 196.193 872.315 196.019 872.402 196.019C872.663 196.019 872.793 196.388 872.793 197.127C872.793 197.474 872.728 197.886 872.598 198.364C872.511 198.798 872.359 199.211 872.142 199.602C871.534 200.644 870.817 201.795 869.992 203.054C869.167 204.313 868.32 205.529 867.452 206.702C866.844 207.527 866.04 208.439 865.042 209.437C864.043 210.436 862.979 211.305 861.85 212.043C860.721 212.738 859.635 213.085 858.593 213.085ZM873.105 213.085C871.889 213.085 870.978 212.651 870.37 211.782C869.762 210.87 869.458 209.654 869.458 208.135C869.458 207.917 869.458 207.7 869.458 207.483C869.458 207.266 869.479 207.049 869.523 206.832C869.74 205.182 870.109 203.315 870.63 201.23C871.195 199.146 871.846 196.953 872.584 194.651C873.019 193.349 873.561 191.72 874.213 189.766C874.907 187.769 875.711 185.641 876.623 183.383C877.535 181.081 878.533 178.802 879.619 176.543C880.748 174.285 881.986 172.244 883.332 170.421C884.678 168.553 886.089 167.055 887.566 165.926C889.086 164.797 890.692 164.233 892.386 164.233C893.775 164.233 894.731 164.58 895.252 165.275C895.773 165.926 896.033 166.708 896.033 167.62C896.033 168.575 895.86 169.552 895.512 170.551C895.165 171.506 894.818 172.31 894.47 172.961C893.688 174.524 892.668 176.283 891.409 178.237C890.149 180.191 888.825 182.015 887.435 183.708C886.61 184.794 885.59 186.01 884.374 187.356C883.158 188.702 882.007 189.94 880.922 191.069C879.88 192.198 879.12 192.98 878.642 193.414L877.6 196.41C877.296 197.235 876.992 198.212 876.688 199.341C876.427 200.47 876.188 201.599 875.971 202.728C875.798 203.814 875.646 204.769 875.515 205.594C875.472 205.768 875.45 205.942 875.45 206.115C875.45 206.289 875.45 206.441 875.45 206.571C875.45 207.874 875.95 208.525 876.948 208.525C877.556 208.525 878.316 208.243 879.228 207.679C880.097 207.158 880.922 206.484 881.703 205.659C882.528 204.791 883.115 204.14 883.462 203.705C884.331 202.576 885.156 201.382 885.937 200.123C886.719 198.82 887.392 197.626 887.956 196.54C888.174 196.193 888.326 196.019 888.412 196.019C888.673 196.019 888.803 196.388 888.803 197.127C888.803 197.474 888.738 197.886 888.608 198.364C888.521 198.798 888.369 199.211 888.152 199.602C887.544 200.644 886.827 201.795 886.002 203.054C885.177 204.313 884.331 205.529 883.462 206.702C882.811 207.57 881.899 208.504 880.726 209.502C879.554 210.501 878.295 211.348 876.948 212.043C875.602 212.738 874.321 213.085 873.105 213.085ZM879.945 189.701C882.116 187.139 884.309 184.403 886.523 181.494C888.782 178.541 890.649 175.545 892.125 172.505C892.212 172.288 892.407 171.854 892.711 171.202C893.015 170.551 893.298 169.834 893.558 169.053C893.819 168.228 893.949 167.533 893.949 166.968C893.949 166.23 893.667 165.861 893.102 165.861H892.646C892.082 165.861 891.409 166.252 890.627 167.034C889.889 167.815 889.129 168.857 888.347 170.16C887.349 171.81 886.371 173.721 885.416 175.892C884.461 178.02 883.527 180.278 882.615 182.666C881.703 185.055 880.813 187.4 879.945 189.701ZM905.613 213.085C904.267 213.085 903.333 212.564 902.812 211.522C902.334 210.48 902.096 209.198 902.096 207.679C902.096 206.289 902.226 204.921 902.486 203.575C902.617 202.967 902.747 202.359 902.877 201.751C903.051 201.1 903.246 200.427 903.464 199.732C902.725 201.078 901.944 202.381 901.119 203.64C900.337 204.899 899.534 206.007 898.709 206.962C897.319 208.656 895.843 210.067 894.279 211.196C892.759 212.325 891.24 212.89 889.72 212.89C888.504 212.89 887.462 212.455 886.593 211.587C885.768 210.675 885.356 209.112 885.356 206.897C885.356 204.639 885.746 202.316 886.528 199.927C887.31 197.539 888.395 195.324 889.785 193.284C891.218 191.199 892.89 189.527 894.8 188.268C896.754 187.009 898.882 186.379 901.184 186.379C901.922 186.379 902.725 186.488 903.594 186.705C904.462 186.922 905.266 187.334 906.004 187.942C906.742 188.507 907.241 189.31 907.502 190.352C907.545 190.266 907.589 190.2 907.632 190.157C907.719 190.114 907.784 190.07 907.828 190.027C908.436 189.071 909.13 188.268 909.912 187.617C910.694 186.965 911.562 186.64 912.517 186.64C912.995 186.64 913.668 186.661 914.537 186.705C915.405 186.748 916.035 186.748 916.426 186.705C916.209 186.878 915.905 187.226 915.514 187.747C915.166 188.268 914.841 188.811 914.537 189.375C914.233 189.896 913.994 190.309 913.82 190.613C912.648 192.871 911.584 195.107 910.629 197.322C909.673 199.537 908.935 201.664 908.414 203.705C908.284 204.14 908.197 204.552 908.153 204.943C908.11 205.29 908.088 205.638 908.088 205.985C908.088 207.114 908.457 207.679 909.196 207.679C909.89 207.679 910.759 207.244 911.801 206.376C913.321 205.16 914.645 203.64 915.774 201.816C916.947 199.993 917.967 198.234 918.836 196.54C919.009 196.236 919.161 196.084 919.292 196.084C919.552 196.084 919.682 196.453 919.682 197.192C919.682 197.539 919.617 197.93 919.487 198.364C919.4 198.798 919.248 199.211 919.031 199.602C918.423 200.644 917.62 201.925 916.621 203.445C915.666 204.965 914.58 206.463 913.364 207.939C912.148 209.372 910.867 210.588 909.521 211.587C908.218 212.586 906.916 213.085 905.613 213.085ZM892.651 207.418C892.781 207.462 892.977 207.483 893.237 207.483C894.062 207.483 894.952 207.136 895.908 206.441C896.863 205.746 897.818 204.856 898.774 203.77C899.729 202.641 900.576 201.512 901.314 200.383C903.225 197.344 904.636 195.064 905.548 193.544C906.46 192.024 906.981 191.156 907.111 190.939C906.894 190.2 906.503 189.658 905.939 189.31C905.418 188.963 904.788 188.789 904.05 188.789C903.094 188.789 902.074 189.05 900.988 189.571C899.946 190.092 899.056 190.721 898.318 191.46C897.189 192.589 896.103 194.043 895.061 195.824C894.062 197.604 893.237 199.363 892.586 201.1C891.978 202.837 891.674 204.292 891.674 205.464C891.674 206.55 892 207.201 892.651 207.418ZM927.281 213.15C925.891 213.15 924.893 212.564 924.285 211.391C923.807 210.349 923.568 209.112 923.568 207.679C923.568 206.072 923.807 204.292 924.285 202.337C924.762 200.383 925.414 198.386 926.239 196.345C926.543 195.607 926.934 194.673 927.411 193.544C927.932 192.415 928.54 191.308 929.235 190.222C928.627 190.743 927.911 191.177 927.086 191.525C926.261 191.829 925.457 191.981 924.676 191.981C924.068 191.981 923.568 191.894 923.177 191.72C922.83 192.415 922.266 193.544 921.484 195.107C920.702 196.671 919.66 198.516 918.357 200.644C918.227 200.861 918.097 200.861 917.967 200.644C917.88 200.383 917.836 200.036 917.836 199.602C917.836 199.254 917.88 198.885 917.967 198.494C918.053 198.104 918.184 197.734 918.357 197.387C918.792 196.562 919.226 195.715 919.66 194.847C920.094 193.935 920.485 193.132 920.833 192.437C921.18 191.742 921.375 191.308 921.419 191.134C920.637 190.743 920.051 190.2 919.66 189.506C919.269 188.767 919.074 188.051 919.074 187.356C919.074 186.661 919.226 186.032 919.53 185.467C919.877 184.903 920.377 184.468 921.028 184.164C921.419 184.034 921.788 183.969 922.135 183.969C923.091 183.969 923.872 184.273 924.48 184.881C924.437 185.055 924.393 185.25 924.35 185.467C924.35 185.641 924.35 185.836 924.35 186.053C924.35 187.4 924.893 188.398 925.978 189.05C927.064 189.701 928.236 189.94 929.496 189.766C930.104 188.898 930.798 188.138 931.58 187.486C932.362 186.835 933.208 186.509 934.12 186.509C934.598 186.509 935.271 186.531 936.14 186.574C937.052 186.618 937.703 186.618 938.094 186.574C937.833 186.748 937.529 187.096 937.182 187.617C936.834 188.138 936.509 188.681 936.205 189.245C935.901 189.81 935.662 190.244 935.488 190.548C934.316 192.806 933.23 195.064 932.231 197.322C931.233 199.537 930.473 201.664 929.952 203.705C929.865 204.096 929.778 204.465 929.691 204.813C929.648 205.117 929.626 205.442 929.626 205.79C929.626 207.092 930.06 207.744 930.929 207.744C931.537 207.744 932.405 207.31 933.534 206.441C934.533 205.616 935.423 204.704 936.205 203.705C937.073 202.576 937.898 201.36 938.68 200.058C939.462 198.755 940.135 197.561 940.699 196.475C940.916 196.128 941.068 195.954 941.155 195.954C941.416 195.954 941.546 196.345 941.546 197.127C941.546 197.431 941.503 197.8 941.416 198.234C941.329 198.668 941.177 199.081 940.96 199.471C940.308 200.557 939.57 201.751 938.745 203.054C937.92 204.313 937.073 205.551 936.205 206.767C935.64 207.548 934.837 208.439 933.795 209.437C932.796 210.436 931.71 211.305 930.538 212.043C929.409 212.781 928.323 213.15 927.281 213.15ZM940.501 225.787C939.416 225.787 938.265 225.613 937.049 225.265C935.877 224.962 934.899 224.419 934.118 223.637C933.293 222.855 932.88 221.813 932.88 220.511C932.88 219.599 933.162 218.752 933.727 217.97C934.292 217.189 935.073 216.798 936.072 216.798C936.68 216.798 937.244 216.95 937.765 217.254C938.287 217.601 938.634 218.014 938.808 218.491C938.721 218.535 938.591 218.665 938.417 218.882C938.243 219.099 938.135 219.251 938.091 219.338C937.787 219.946 937.635 220.576 937.635 221.227C937.635 222.052 937.917 222.703 938.482 223.181C939.09 223.702 939.85 223.963 940.762 223.963C941.934 223.963 943.15 223.529 944.409 222.66C945.799 221.661 946.885 220.359 947.666 218.752C948.491 217.189 949.143 215.777 949.62 214.518L953.333 204.617C952.551 205.573 951.726 206.55 950.858 207.548C950.033 208.504 949.512 209.09 949.295 209.307C947.644 210.957 946.168 211.999 944.865 212.434C943.563 212.868 942.412 213.085 941.413 213.085C940.371 213.085 939.481 212.629 938.743 211.717C938.048 210.805 937.7 209.481 937.7 207.744C937.7 206.875 937.831 205.768 938.091 204.422C938.352 203.076 938.721 201.643 939.198 200.123C939.676 198.56 940.219 197.04 940.827 195.563C941.478 194.043 942.173 192.697 942.911 191.525C944.04 189.744 945.3 188.594 946.689 188.073C948.079 187.551 949.837 187.291 951.965 187.291C952.139 187.291 952.226 187.378 952.226 187.551C952.226 187.725 952.095 187.942 951.835 188.203C951.227 188.724 950.489 189.636 949.62 190.939C948.752 192.241 947.905 193.674 947.08 195.238C946.298 196.801 945.647 198.299 945.126 199.732C944.778 200.731 944.431 201.903 944.084 203.249C943.78 204.596 943.628 205.768 943.628 206.767C943.628 207.462 943.715 208.026 943.888 208.46C944.105 208.851 944.431 209.047 944.865 209.047C945.56 209.047 946.515 208.525 947.731 207.483C949.555 205.963 951.205 204.096 952.682 201.882C954.158 199.667 955.417 197.365 956.46 194.977C957.068 193.587 957.567 192.415 957.958 191.46C958.349 190.461 958.783 189.658 959.26 189.05C959.738 188.442 960.411 188.007 961.28 187.747C962.148 187.443 963.321 187.291 964.797 187.291H967.468C966.643 187.812 965.818 188.789 964.992 190.222C964.167 191.612 963.386 193.262 962.648 195.172C962.083 196.562 961.497 198.082 960.889 199.732C960.324 201.382 959.738 203.054 959.13 204.748C958.609 206.311 958.045 208.026 957.437 209.893C956.829 211.717 956.134 213.498 955.352 215.234C954.571 217.015 953.659 218.556 952.617 219.859C951.14 221.683 949.338 223.116 947.21 224.158C945.082 225.244 942.846 225.787 940.501 225.787Z" fill="#7481AA"/>
<path d="M139.014 23.513L136.612 41.3094L118.635 40.6294L134.847 48.4191L128.658 65.2811L141.075 52.2968L155.218 63.3929L146.683 47.5801L161.618 37.5843L143.925 40.7952L139.014 23.513Z" fill="#FCEA10"/>
<line x1="98.8514" y1="10.2421" x2="10.3245" y2="10.2421" stroke="#7481AA" stroke-width="18.4842" stroke-linecap="round"/>
<path d="M10 99.0935L10 9.91764" stroke="#7481AA" stroke-width="18.4842" stroke-linecap="round"/>
<line x1="921.149" y1="264.821" x2="1009.68" y2="264.821" stroke="#7481AA" stroke-width="18.4842" stroke-linecap="round"/>
<path d="M1010 175.969L1010 265.145" stroke="#7481AA" stroke-width="18.4842" stroke-linecap="round"/>
</svg>
