<svg width="314" height="85" viewBox="0 0 314 85" fill="none" xmlns="http://www.w3.org/2000/svg">
<path d="M29.0849 40.6564C27.3442 40.6564 25.6778 40.4123 24.0856 39.924C22.4935 39.4145 21.2304 38.7671 20.2964 37.9816L21.7293 34.7655C22.6209 35.4661 23.7247 36.0498 25.0409 36.5169C26.3571 36.9839 27.7051 37.2174 29.0849 37.2174C30.2525 37.2174 31.1971 37.09 31.9189 36.8353C32.6406 36.5805 33.1713 36.2409 33.511 35.8163C33.8507 35.3705 34.0205 34.8717 34.0205 34.3197C34.0205 33.6404 33.7764 33.0991 33.2881 32.6958C32.7999 32.2712 32.163 31.9422 31.3776 31.7087C30.6133 31.4539 29.7536 31.2204 28.7983 31.0081C27.8643 30.7958 26.9196 30.5517 25.9643 30.2757C25.0303 29.9785 24.1705 29.607 23.3851 29.1613C22.6209 28.6942 21.9946 28.0786 21.5064 27.3144C21.0181 26.5502 20.774 25.5737 20.774 24.3849C20.774 23.1749 21.0924 22.071 21.7293 21.0733C22.3874 20.0543 23.3745 19.2476 24.6906 18.6532C26.028 18.0376 27.7157 17.7298 29.7536 17.7298C31.091 17.7298 32.4177 17.8996 33.7339 18.2393C35.0501 18.5789 36.1964 19.0672 37.1729 19.704L35.8673 22.9201C34.8696 22.3257 33.84 21.8906 32.7786 21.6146C31.7172 21.3174 30.6982 21.1688 29.7217 21.1688C28.5754 21.1688 27.6414 21.3068 26.9196 21.5827C26.2191 21.8587 25.699 22.2196 25.3593 22.6654C25.0409 23.1112 24.8817 23.6207 24.8817 24.1938C24.8817 24.8731 25.1152 25.4251 25.5822 25.8496C26.0705 26.253 26.6967 26.5714 27.4609 26.8049C28.2464 27.0384 29.1167 27.2719 30.072 27.5054C31.0273 27.7177 31.9719 27.9619 32.906 28.2378C33.8613 28.5138 34.721 28.8747 35.4852 29.3205C36.2707 29.7663 36.8969 30.3713 37.3639 31.1355C37.8522 31.8997 38.0963 32.8656 38.0963 34.0332C38.0963 35.2219 37.7673 36.3258 37.1092 37.3448C36.4723 38.3425 35.4852 39.1492 34.1478 39.7648C32.8105 40.3592 31.1228 40.6564 29.0849 40.6564Z" fill="#7481AA"/>
<path d="M41.8189 40.338V23.3341H45.7992V40.338H41.8189Z" fill="#7481AA"/>
<path d="M72.4852 23.143C73.8438 23.143 75.0432 23.4084 76.0834 23.9391C77.1448 24.4698 77.9727 25.2871 78.5671 26.391C79.1615 27.4736 79.4587 28.8747 79.4587 30.5942V40.338H75.4784V31.1036C75.4784 29.5964 75.1493 28.4713 74.4913 27.7283C73.8332 26.9854 72.8885 26.6139 71.6573 26.6139C70.7869 26.6139 70.0121 26.8049 69.3328 27.187C68.6747 27.5691 68.1546 28.1317 67.7725 28.8747C67.4116 29.6177 67.2312 30.5623 67.2312 31.7087V40.338H63.2509V31.1036C63.2509 29.5964 62.9218 28.4713 62.2638 27.7283C61.6057 26.9854 60.661 26.6139 59.4298 26.6139C58.5594 26.6139 57.7846 26.8049 57.1053 27.187C56.4472 27.5691 55.9271 28.1317 55.545 28.8747C55.1841 29.6177 55.0037 30.5623 55.0037 31.7087V40.338H51.0234V23.3341H54.8126V27.8557L54.1439 26.5183C54.7171 25.4145 55.545 24.5759 56.6276 24.0028C57.7315 23.4296 58.984 23.143 60.3851 23.143C61.9772 23.143 63.357 23.5358 64.5246 24.3212C65.7134 25.1066 66.4988 26.2954 66.8809 27.8876L65.3206 27.3462C65.8726 26.0725 66.7854 25.0536 68.0591 24.2894C69.3328 23.5251 70.8082 23.143 72.4852 23.143Z" fill="#7481AA"/>
<path d="M93.9704 40.5609C92.5906 40.5609 91.3275 40.2424 90.1811 39.6056C89.056 38.9687 88.1538 38.0135 87.4745 36.7398C86.8165 35.4448 86.4874 33.8103 86.4874 31.836C86.4874 29.8406 86.8058 28.206 87.4427 26.9323C88.1008 25.6586 88.9924 24.7139 90.1175 24.0983C91.2426 23.4615 92.5269 23.143 93.9704 23.143C95.6474 23.143 97.1228 23.5039 98.3965 24.2257C99.6914 24.9474 100.71 25.9558 101.453 27.2507C102.218 28.5456 102.6 30.0741 102.6 31.836C102.6 33.598 102.218 35.137 101.453 36.4532C100.71 37.7481 99.6914 38.7565 98.3965 39.4782C97.1228 40.2 95.6474 40.5609 93.9704 40.5609ZM84.545 46.5154V23.3341H88.3343V27.3462L88.2069 31.8679L88.5253 36.3895V46.5154H84.545ZM93.5246 37.1537C94.4799 37.1537 95.329 36.9414 96.072 36.5169C96.8362 36.0923 97.4412 35.4767 97.887 34.67C98.3328 33.8633 98.5557 32.9187 98.5557 31.836C98.5557 30.7321 98.3328 29.7875 97.887 29.002C97.4412 28.1954 96.8362 27.5797 96.072 27.1552C95.329 26.7306 94.4799 26.5183 93.5246 26.5183C92.5693 26.5183 91.7096 26.7306 90.9454 27.1552C90.1811 27.5797 89.5761 28.1954 89.1303 29.002C88.6846 29.7875 88.4617 30.7321 88.4617 31.836C88.4617 32.9187 88.6846 33.8633 89.1303 34.67C89.5761 35.4767 90.1811 36.0923 90.9454 36.5169C91.7096 36.9414 92.5693 37.1537 93.5246 37.1537Z" fill="#7481AA"/>
<path d="M106.375 40.338V16.7108H110.355V40.338H106.375Z" fill="#7481AA"/>
<path d="M116.98 46.7383C116.152 46.7383 115.324 46.6003 114.496 46.3243C113.668 46.0484 112.979 45.6663 112.427 45.178L114.019 42.2485C114.422 42.6094 114.878 42.896 115.388 43.1083C115.897 43.3205 116.418 43.4267 116.948 43.4267C117.67 43.4267 118.254 43.2462 118.7 42.8854C119.145 42.5245 119.559 41.9195 119.941 41.0703L120.929 38.8414L121.247 38.3637L127.679 23.3341H131.5L123.54 41.7072C123.009 42.9809 122.415 43.9892 121.756 44.7322C121.12 45.4752 120.398 45.9953 119.591 46.2925C118.806 46.5897 117.935 46.7383 116.98 46.7383ZM120.483 40.943L112.809 23.3341H116.948L123.189 38.0135L120.483 40.943Z" fill="#7481AA"/>
<path d="M143.17 40.338V18.0482H152.914C155.334 18.0482 157.457 18.5153 159.283 19.4493C161.108 20.3833 162.53 21.6783 163.549 23.3341C164.568 24.9899 165.078 26.9429 165.078 29.1931C165.078 31.4221 164.568 33.3751 163.549 35.0521C162.53 36.7079 161.108 38.0028 159.283 38.9369C157.457 39.8709 155.334 40.338 152.914 40.338H143.17ZM147.31 36.8353H152.723C154.4 36.8353 155.844 36.5169 157.054 35.88C158.285 35.2432 159.229 34.3516 159.888 33.2052C160.567 32.0589 160.907 30.7215 160.907 29.1931C160.907 27.6434 160.567 26.306 159.888 25.1809C159.229 24.0346 158.285 23.143 157.054 22.5062C155.844 21.8693 154.4 21.5509 152.723 21.5509H147.31V36.8353Z" fill="#7481AA"/>
<path d="M177.088 40.5609C175.199 40.5609 173.543 40.1894 172.121 39.4464C170.719 38.6822 169.626 37.642 168.841 36.3258C168.077 35.0097 167.694 33.5131 167.694 31.836C167.694 30.1378 168.066 28.6412 168.809 27.3462C169.573 26.0301 170.613 25.0005 171.929 24.2575C173.267 23.5145 174.785 23.143 176.483 23.143C178.139 23.143 179.614 23.5039 180.909 24.2257C182.204 24.9474 183.223 25.9664 183.966 27.2825C184.709 28.5987 185.08 30.1484 185.08 31.9316C185.08 32.1014 185.07 32.2924 185.049 32.5047C185.049 32.717 185.038 32.9187 185.017 33.1097H170.847V30.4668H182.915L181.355 31.2947C181.376 30.3182 181.174 29.4585 180.75 28.7155C180.325 27.9725 179.742 27.3887 178.999 26.9641C178.277 26.5396 177.438 26.3273 176.483 26.3273C175.506 26.3273 174.647 26.5396 173.904 26.9641C173.182 27.3887 172.609 27.9831 172.184 28.7473C171.781 29.4903 171.579 30.3713 171.579 31.3902V32.0271C171.579 33.046 171.813 33.9482 172.28 34.7337C172.747 35.5191 173.405 36.1241 174.254 36.5487C175.103 36.9733 176.08 37.1856 177.183 37.1856C178.139 37.1856 178.999 37.037 179.763 36.7398C180.527 36.4426 181.206 35.9755 181.801 35.3387L183.934 37.7906C183.17 38.6822 182.204 39.3721 181.036 39.8603C179.89 40.3274 178.574 40.5609 177.088 40.5609Z" fill="#7481AA"/>
<path d="M196.705 40.5609C194.922 40.5609 193.33 40.1894 191.929 39.4464C190.549 38.6822 189.466 37.642 188.681 36.3258C187.895 35.0097 187.503 33.5131 187.503 31.836C187.503 30.1378 187.895 28.6412 188.681 27.3462C189.466 26.0301 190.549 25.0005 191.929 24.2575C193.33 23.5145 194.922 23.143 196.705 23.143C198.361 23.143 199.815 23.4827 201.068 24.162C202.341 24.8201 203.307 25.7966 203.965 27.0915L200.908 28.8747C200.399 28.068 199.773 27.4736 199.03 27.0915C198.308 26.7094 197.522 26.5183 196.673 26.5183C195.697 26.5183 194.816 26.7306 194.03 27.1552C193.245 27.5797 192.629 28.1954 192.184 29.002C191.738 29.7875 191.515 30.7321 191.515 31.836C191.515 32.9399 191.738 33.8952 192.184 34.7018C192.629 35.4873 193.245 36.0923 194.03 36.5169C194.816 36.9414 195.697 37.1537 196.673 37.1537C197.522 37.1537 198.308 36.9627 199.03 36.5806C199.773 36.1984 200.399 35.604 200.908 34.7974L203.965 36.5806C203.307 37.8542 202.341 38.8414 201.068 39.5419C199.815 40.2212 198.361 40.5609 196.705 40.5609Z" fill="#7481AA"/>
<path d="M207.25 40.338V16.7108H211.231V40.338H207.25Z" fill="#7481AA"/>
<path d="M223.651 40.5609C222.208 40.5609 220.934 40.2955 219.83 39.7648C218.726 39.2129 217.867 38.385 217.251 37.2811C216.635 36.156 216.328 34.7443 216.328 33.046V23.3341H220.308V32.5047C220.308 34.0332 220.648 35.1795 221.327 35.9437C222.027 36.6867 223.015 37.0582 224.288 37.0582C225.222 37.0582 226.029 36.8671 226.708 36.485C227.409 36.1029 227.95 35.5297 228.332 34.7655C228.736 34.0013 228.937 33.0567 228.937 31.9316V23.3341H232.918V40.338H229.128V35.7526L229.797 37.1537C229.224 38.2576 228.385 39.1067 227.281 39.7011C226.178 40.2743 224.968 40.5609 223.651 40.5609Z" fill="#7481AA"/>
<path d="M244.529 40.5609C242.661 40.5609 241.218 40.0832 240.199 39.128C239.18 38.1514 238.67 36.7185 238.67 34.8292V19.5767H242.651V34.7337C242.651 35.5404 242.852 36.1666 243.256 36.6124C243.68 37.0582 244.264 37.2811 245.007 37.2811C245.899 37.2811 246.642 37.0476 247.236 36.5806L248.35 39.4145C247.883 39.7966 247.31 40.0832 246.631 40.2743C245.952 40.4653 245.251 40.5609 244.529 40.5609ZM235.868 26.6457V23.4615H247.204V26.6457H235.868Z" fill="#7481AA"/>
<path d="M257.621 40.5609C255.753 40.5609 254.309 40.0832 253.29 39.128C252.271 38.1514 251.762 36.7185 251.762 34.8292V19.5767H255.742V34.7337C255.742 35.5404 255.944 36.1666 256.347 36.6124C256.772 37.0582 257.355 37.2811 258.098 37.2811C258.99 37.2811 259.733 37.0476 260.327 36.5806L261.442 39.4145C260.975 39.7966 260.402 40.0832 259.722 40.2743C259.043 40.4653 258.343 40.5609 257.621 40.5609ZM248.96 26.6457V23.4615H260.296V26.6457H248.96Z" fill="#7481AA"/>
<path d="M272.149 40.5609C270.26 40.5609 268.604 40.1894 267.182 39.4464C265.78 38.6822 264.687 37.642 263.902 36.3258C263.138 35.0097 262.755 33.5131 262.755 31.836C262.755 30.1378 263.127 28.6412 263.87 27.3462C264.634 26.0301 265.674 25.0005 266.99 24.2575C268.328 23.5145 269.846 23.143 271.544 23.143C273.2 23.143 274.675 23.5039 275.97 24.2257C277.265 24.9474 278.284 25.9664 279.027 27.2825C279.77 28.5987 280.141 30.1484 280.141 31.9316C280.141 32.1014 280.131 32.2924 280.11 32.5047C280.11 32.717 280.099 32.9187 280.078 33.1097H265.908V30.4668H277.976L276.416 31.2947C276.437 30.3182 276.235 29.4585 275.811 28.7155C275.386 27.9725 274.802 27.3887 274.06 26.9641C273.338 26.5396 272.499 26.3273 271.544 26.3273C270.567 26.3273 269.708 26.5396 268.965 26.9641C268.243 27.3887 267.67 27.9831 267.245 28.7473C266.842 29.4903 266.64 30.3713 266.64 31.3902V32.0271C266.64 33.046 266.874 33.9482 267.341 34.7337C267.808 35.5191 268.466 36.1241 269.315 36.5487C270.164 36.9733 271.141 37.1856 272.244 37.1856C273.2 37.1856 274.059 37.037 274.824 36.7398C275.588 36.4426 276.267 35.9755 276.862 35.3387L278.995 37.7906C278.231 38.6822 277.265 39.3721 276.097 39.8603C274.951 40.3274 273.635 40.5609 272.149 40.5609Z" fill="#7481AA"/>
<path d="M283.965 40.338V23.3341H287.754V28.0149L287.308 26.6457C287.818 25.4994 288.614 24.629 289.696 24.0346C290.8 23.4402 292.169 23.143 293.804 23.143V26.9323C293.634 26.8898 293.475 26.8686 293.326 26.8686C293.178 26.8474 293.029 26.8368 292.881 26.8368C291.373 26.8368 290.174 27.2825 289.282 28.1741C288.391 29.0445 287.945 30.35 287.945 32.0908V40.338H283.965Z" fill="#7481AA"/>
<path d="M213.045 64.665C212.71 64.665 212.427 64.5039 212.195 64.1817C211.976 63.8466 211.892 63.3826 211.943 62.7897C211.969 62.416 212.066 61.9391 212.233 61.3591C212.401 60.7791 212.607 60.1927 212.852 59.5998C213.11 58.994 213.368 58.4849 213.625 58.0725C213.96 57.5441 214.334 57.2025 214.747 57.0479C215.159 56.8932 215.688 56.8159 216.332 56.8159C216.371 56.8159 216.39 56.8352 216.39 56.8739C216.39 56.9383 216.351 57.0092 216.274 57.0865C216.094 57.2412 215.887 57.5119 215.655 57.8985C215.436 58.2723 215.224 58.6912 215.017 59.1552C214.811 59.6191 214.631 60.0638 214.476 60.4891C214.45 60.5793 214.392 60.7533 214.302 61.0111C214.212 61.2689 214.128 61.5524 214.051 61.8618C213.973 62.1582 213.935 62.4353 213.935 62.6931C213.935 62.8993 213.973 63.0733 214.051 63.2151C214.128 63.344 214.257 63.4084 214.437 63.4084C214.682 63.3955 214.946 63.2473 215.23 62.9637C215.514 62.6673 215.797 62.2935 216.081 61.8424C216.364 61.3913 216.635 60.9338 216.893 60.4698C217.15 59.9929 217.376 59.5676 217.569 59.1938C217.775 58.8072 217.924 58.5365 218.014 58.3818C218.207 58.0725 218.413 57.8083 218.633 57.5892C218.852 57.3572 219.103 57.2412 219.387 57.2412C219.49 57.2412 219.644 57.2476 219.851 57.2605C220.057 57.2605 220.25 57.2605 220.431 57.2605C220.624 57.2605 220.753 57.2541 220.817 57.2412C220.766 57.267 220.688 57.325 220.585 57.4152C220.482 57.4925 220.405 57.5827 220.353 57.6859C220.147 58.0854 219.941 58.5043 219.735 58.9425C219.528 59.3807 219.322 59.8962 219.116 60.4891C219.09 60.5793 219.026 60.7533 218.923 61.0111C218.832 61.2689 218.749 61.5524 218.671 61.8618C218.594 62.1582 218.555 62.4353 218.555 62.6931C218.555 63.0024 218.607 63.2215 218.71 63.3504C218.826 63.4793 218.968 63.5437 219.135 63.5437C219.367 63.5437 219.625 63.4535 219.909 63.2731C220.205 63.0797 220.469 62.8477 220.701 62.5771C221.101 62.1131 221.417 61.6298 221.649 61.1271C221.893 60.6116 222.061 60.2249 222.151 59.9671C222.125 59.8254 222.1 59.6707 222.074 59.5031C222.061 59.3356 222.054 59.168 222.054 59.0005C222.054 58.7685 222.074 58.5301 222.112 58.2852C222.164 58.0403 222.235 57.8018 222.325 57.5699C222.493 57.1574 222.731 56.9061 223.04 56.8159C223.092 56.803 223.137 56.7965 223.176 56.7965C223.227 56.7836 223.279 56.7772 223.33 56.7772C223.575 56.7772 223.736 56.861 223.814 57.0285C223.904 57.1961 223.949 57.3959 223.949 57.6279C223.949 57.8598 223.923 58.0918 223.872 58.3238C223.82 58.5429 223.769 58.7169 223.717 58.8458C223.627 59.0907 223.524 59.3291 223.408 59.5611C223.292 59.7803 223.182 59.9994 223.079 60.2185C223.079 60.2958 223.098 60.4053 223.137 60.5471C223.279 61.1658 223.595 61.4751 224.084 61.4751C224.381 61.4751 224.69 61.3333 225.012 61.0498C225.193 60.8951 225.354 60.7018 225.496 60.4698C225.65 60.2249 225.786 59.9994 225.902 59.7931C225.966 59.69 226.005 59.6643 226.018 59.7158C226.044 59.7674 226.056 59.8511 226.056 59.9671C226.056 60.096 226.044 60.2442 226.018 60.4118C225.992 60.5793 225.947 60.7147 225.882 60.8178C225.689 61.1529 225.489 61.4107 225.283 61.5911C225.077 61.7587 224.845 61.894 224.587 61.9971C224.484 62.0358 224.374 62.068 224.258 62.0938C224.142 62.1195 224.033 62.1324 223.93 62.1324C223.62 62.1324 223.337 62.0486 223.079 61.8811C222.834 61.7007 222.654 61.4236 222.538 61.0498L222.48 60.8565C222.351 61.0756 222.203 61.3269 222.035 61.6104C221.868 61.894 221.707 62.1518 221.552 62.3838C221.41 62.6157 221.301 62.7833 221.223 62.8864C220.785 63.4406 220.308 63.8788 219.793 64.201C219.29 64.5233 218.755 64.6844 218.188 64.6844C218.123 64.6844 218.059 64.6844 217.995 64.6844C217.93 64.6844 217.866 64.6779 217.801 64.665C217.311 64.6006 216.983 64.3815 216.815 64.0077C216.648 63.6211 216.564 63.2344 216.564 62.8477C216.564 62.706 216.57 62.5706 216.583 62.4418C216.609 62.3 216.628 62.184 216.641 62.0938C216.448 62.3644 216.242 62.6157 216.023 62.8477C215.816 63.0797 215.604 63.3117 215.385 63.5437C214.895 64.0335 214.457 64.3428 214.07 64.4717C213.683 64.6006 213.342 64.665 213.045 64.665ZM229.474 55.2692C229.139 55.1532 228.971 54.9341 228.971 54.6119C228.971 54.3155 229.087 54.0126 229.319 53.7033C229.564 53.3811 229.828 53.1748 230.112 53.0846C230.176 53.0588 230.228 53.0459 230.266 53.0459C230.318 53.0459 230.369 53.0459 230.421 53.0459C230.64 53.0459 230.821 53.1104 230.962 53.2393C231.104 53.3682 231.175 53.5164 231.175 53.6839C231.175 53.9159 231.053 54.1093 230.808 54.2639C230.614 54.2381 230.427 54.2833 230.247 54.3993C230.067 54.5152 229.905 54.657 229.764 54.8246C229.635 54.9921 229.538 55.1403 229.474 55.2692ZM226.148 64.665C225.981 64.665 225.82 64.6264 225.665 64.549C225.51 64.4846 225.382 64.3493 225.278 64.1431C225.137 63.8337 225.066 63.4664 225.066 63.0411C225.066 62.5771 225.137 62.0615 225.278 61.4944C225.42 60.9145 225.607 60.3216 225.839 59.7158C225.929 59.4967 226.045 59.226 226.187 58.9038C226.329 58.5816 226.496 58.2594 226.69 57.9372C226.883 57.615 227.102 57.3507 227.347 57.1445C227.605 56.9254 227.882 56.8159 228.178 56.8159C228.32 56.8159 228.52 56.8223 228.778 56.8352C229.035 56.8481 229.222 56.8481 229.338 56.8352C229.261 56.8868 229.171 56.9899 229.068 57.1445C228.965 57.2992 228.868 57.4603 228.778 57.6279C228.687 57.7825 228.617 57.905 228.565 57.9952C228.23 58.6654 227.914 59.3292 227.618 59.9865C227.321 60.6438 227.096 61.2753 226.941 61.8811C226.915 61.9842 226.896 62.0873 226.883 62.1904C226.87 62.2935 226.864 62.3902 226.864 62.4804C226.864 62.8542 226.986 63.0411 227.231 63.0411C227.334 63.0411 227.444 63.0153 227.56 62.9637C227.689 62.8993 227.837 62.8026 228.004 62.6737C228.301 62.4418 228.559 62.1775 228.778 61.8811C229.035 61.546 229.28 61.1916 229.512 60.8178C229.744 60.4311 229.944 60.0767 230.112 59.7545C230.176 59.6514 230.221 59.5998 230.247 59.5998C230.324 59.5998 230.363 59.7094 230.363 59.9285C230.363 60.0316 230.344 60.154 230.305 60.2958C230.279 60.4247 230.234 60.5471 230.17 60.6631C229.989 60.9724 229.777 61.314 229.532 61.6878C229.287 62.0615 229.035 62.4224 228.778 62.7704C228.597 63.0153 228.359 63.286 228.062 63.5824C227.766 63.8788 227.45 64.1366 227.115 64.3557C226.78 64.5619 226.458 64.665 226.148 64.665ZM230.997 64.665C230.623 64.665 230.34 64.5168 230.146 64.2204C230.056 64.0786 229.992 63.9111 229.953 63.7177C229.914 63.5244 229.895 63.3246 229.895 63.1184C229.895 62.9122 229.908 62.706 229.934 62.4998C229.96 62.2806 229.992 62.068 230.03 61.8618C230.095 61.5267 230.166 61.2238 230.243 60.9531C230.333 60.6696 230.423 60.3989 230.514 60.1411V60.1218C230.411 60.3151 230.282 60.5278 230.127 60.7598C229.972 60.9789 229.863 61.14 229.798 61.2431C229.708 61.3849 229.637 61.4558 229.586 61.4558C229.534 61.4558 229.508 61.3978 229.508 61.2818C229.508 61.024 229.586 60.7405 229.74 60.4311C229.844 60.2249 229.985 59.9607 230.166 59.6385C230.346 59.3034 230.533 58.9425 230.726 58.5558C230.92 58.1692 231.087 57.7954 231.229 57.4345H229.934C229.869 57.4345 229.856 57.383 229.895 57.2799C229.934 57.1768 229.992 57.0801 230.069 56.9899C230.146 56.8868 230.204 56.8352 230.243 56.8352H231.712C231.854 56.5001 232.015 56.1392 232.196 55.7526C232.389 55.3659 232.602 55.005 232.834 54.6699C233.079 54.3219 233.343 54.0384 233.626 53.8193C233.91 53.6002 234.213 53.4906 234.535 53.4906C234.677 53.4906 234.851 53.4906 235.057 53.4906C235.276 53.4906 235.411 53.4842 235.463 53.4713C235.192 53.6517 234.877 54.0126 234.516 54.5539C234.155 55.0823 233.762 55.8428 233.336 56.8352H235.289C235.328 56.8352 235.315 56.8868 235.25 56.9899C235.186 57.0801 235.102 57.1768 234.999 57.2799C234.909 57.383 234.819 57.4345 234.728 57.4345H233.066C232.898 57.8598 232.711 58.3238 232.505 58.8265C232.312 59.3292 232.131 59.8254 231.964 60.3151C231.809 60.792 231.693 61.2302 231.616 61.6298C231.564 61.8747 231.538 62.1002 231.538 62.3064C231.538 62.7962 231.693 63.0411 232.002 63.0411C232.209 63.0411 232.453 62.938 232.737 62.7317C233.021 62.5255 233.304 62.242 233.588 61.8811C233.845 61.546 234.09 61.1851 234.322 60.7985C234.567 60.4118 234.773 60.0574 234.941 59.7351C234.993 59.6449 235.038 59.5998 235.076 59.5998C235.154 59.5998 235.192 59.7029 235.192 59.9091C235.192 60.0122 235.173 60.1347 235.134 60.2765C235.109 60.4053 235.057 60.5342 234.98 60.6631C234.799 60.9724 234.587 61.314 234.342 61.6878C234.097 62.0486 233.845 62.4095 233.588 62.7704C233.407 63.0024 233.169 63.2666 232.872 63.5631C232.589 63.8595 232.279 64.1173 231.944 64.3364C231.622 64.5555 231.306 64.665 230.997 64.665ZM239.427 64.665C238.988 64.665 238.686 64.5362 238.518 64.2784C238.363 64.0077 238.286 63.6984 238.286 63.3504C238.286 62.9766 238.344 62.5449 238.46 62.0551C238.589 61.5524 238.744 61.0369 238.924 60.5085C239.117 59.9671 239.311 59.4645 239.504 59.0005C239.568 58.8458 239.626 58.6783 239.678 58.4978C239.742 58.3174 239.775 58.1563 239.775 58.0145C239.775 57.7567 239.659 57.6279 239.427 57.6279C239.336 57.6279 239.233 57.6472 239.117 57.6859C239.001 57.7116 238.866 57.7696 238.711 57.8598C238.441 57.9887 238.183 58.1692 237.938 58.4012C237.693 58.6203 237.526 58.7878 237.435 58.9038C237.268 59.11 237.107 59.342 236.952 59.5998C236.797 59.8447 236.662 60.096 236.546 60.3538C236.288 60.908 236.082 61.4364 235.927 61.9391C235.786 62.4289 235.65 62.8477 235.521 63.1957C235.444 63.4148 235.367 63.6404 235.289 63.8724C235.212 64.1044 235.141 64.3299 235.077 64.549H233.201C233.201 64.549 233.247 64.3879 233.337 64.0657C233.427 63.7435 233.537 63.4213 233.665 63.0991C234.258 61.5653 234.819 59.9994 235.347 58.4012C235.876 56.803 236.514 55.2692 237.261 53.7999C237.596 53.1426 237.957 52.5368 238.344 51.9826C238.744 51.4284 239.162 50.9902 239.601 50.668C240.052 50.3329 240.522 50.1653 241.012 50.1653C241.399 50.1653 241.663 50.2556 241.805 50.436C241.959 50.6036 242.037 50.8162 242.037 51.074C242.037 51.3575 241.979 51.654 241.863 51.9633C241.747 52.2726 241.631 52.5368 241.515 52.756C241.283 53.2199 240.98 53.7419 240.606 54.3219C240.232 54.9019 239.839 55.4432 239.427 55.9459C239.336 56.0619 239.182 56.2488 238.963 56.5065C238.744 56.7514 238.518 57.0028 238.286 57.2605C238.067 57.5183 237.893 57.7181 237.764 57.8598C238.189 57.5505 238.557 57.3121 238.866 57.1445C239.175 56.977 239.44 56.861 239.659 56.7965C240.032 56.6934 240.342 56.6419 240.587 56.6419C241.321 56.6419 241.689 56.9641 241.689 57.6085C241.689 57.8792 241.611 58.2014 241.457 58.5752C241.379 58.7814 241.27 59.0585 241.128 59.4065C240.986 59.7545 240.838 60.1282 240.683 60.5278C240.542 60.9145 240.419 61.2882 240.316 61.6491C240.226 62.01 240.181 62.3064 240.181 62.5384C240.181 62.6802 240.2 62.8091 240.239 62.9251C240.29 63.0282 240.38 63.0797 240.509 63.0797C240.6 63.0797 240.728 63.0346 240.896 62.9444C241.257 62.7382 241.592 62.4482 241.901 62.0744C242.223 61.7007 242.507 61.3011 242.752 60.8758C243.01 60.4505 243.229 60.0638 243.409 59.7158C243.448 59.6256 243.493 59.5805 243.545 59.5805C243.609 59.5805 243.641 59.69 243.641 59.9091C243.641 60.0122 243.628 60.1347 243.603 60.2765C243.577 60.4053 243.525 60.5342 243.448 60.6631C243.267 60.9724 243.029 61.3527 242.733 61.8038C242.449 62.2549 242.127 62.6995 241.766 63.1377C241.405 63.5631 241.025 63.9239 240.625 64.2204C240.226 64.5168 239.826 64.665 239.427 64.665ZM237.203 57.7245C237.848 56.9641 238.499 56.1521 239.156 55.2886C239.826 54.4121 240.38 53.5228 240.819 52.6206C240.844 52.5562 240.902 52.4273 240.993 52.234C241.083 52.0406 241.167 51.828 241.244 51.596C241.321 51.3511 241.36 51.1449 241.36 50.9773C241.36 50.7582 241.276 50.6487 241.109 50.6487C240.941 50.6487 240.741 50.7647 240.509 50.9967C240.29 51.2287 240.065 51.538 239.833 51.9246C239.536 52.4144 239.233 52.9815 238.924 53.6259C238.615 54.2575 238.312 54.9277 238.015 55.6366C237.732 56.3454 237.461 57.0414 237.203 57.7245ZM258.417 64.7037C257.94 64.7037 257.618 64.5877 257.45 64.3557C257.296 64.1237 257.218 63.8273 257.218 63.4664C257.218 63.2473 257.238 63.0282 257.276 62.8091C257.315 62.5771 257.354 62.3386 257.392 62.0938C257.495 61.5395 257.669 60.9145 257.914 60.2185C258.172 59.5096 258.462 58.7492 258.784 57.9372H253.313C253.158 58.2852 252.972 58.7363 252.752 59.2905C252.546 59.8318 252.34 60.4118 252.134 61.0304C251.928 61.6491 251.754 62.2355 251.612 62.7897C251.47 63.3311 251.399 63.7757 251.399 64.1237C251.399 64.317 251.425 64.4588 251.477 64.549H248.983C249.137 63.9046 249.343 63.1893 249.601 62.4031C249.872 61.604 250.175 60.7727 250.51 59.9091C250.858 59.0456 251.212 58.1885 251.573 57.3379C251.934 56.4872 252.282 55.6752 252.617 54.9019C252.952 54.1157 253.339 53.3231 253.777 52.524C253.867 52.3693 253.945 52.2275 254.009 52.0986C254.086 51.9697 254.17 51.8602 254.26 51.77C253.758 51.7829 253.216 51.8473 252.636 51.9633C252.069 52.0664 251.522 52.2146 250.993 52.408C250.478 52.6013 250.033 52.8268 249.659 53.0846C249.298 53.3424 249.066 53.6259 248.963 53.9353C248.95 53.9739 248.925 53.9933 248.886 53.9933C248.77 53.9933 248.712 53.903 248.712 53.7226C248.712 53.6839 248.725 53.6259 248.751 53.5486C248.867 53.2135 249.008 52.9171 249.176 52.6593C249.356 52.4015 249.537 52.1824 249.717 52.002C250.143 51.5638 250.619 51.2995 251.148 51.2093C251.676 51.1062 252.237 51.0547 252.83 51.0547H257.199C256.916 51.2738 256.613 51.6153 256.29 52.0793C255.968 52.5433 255.646 53.0717 255.324 53.6646C255.002 54.2446 254.699 54.831 254.415 55.4239C254.144 56.0039 253.906 56.5259 253.7 56.9899H259.171C259.455 56.3197 259.738 55.6817 260.022 55.0759C260.305 54.4573 260.557 53.9095 260.776 53.4326C261.008 52.9557 261.188 52.6013 261.317 52.3693C261.459 52.0857 261.594 51.8473 261.723 51.654C261.865 51.4606 262.045 51.3124 262.264 51.2093C262.483 51.1062 262.793 51.0547 263.192 51.0547H264.43C264.198 51.2351 263.933 51.5444 263.637 51.9826C263.353 52.408 263.063 52.8848 262.767 53.4133C262.483 53.9417 262.232 54.4444 262.013 54.9212C261.691 55.6043 261.349 56.3777 260.988 57.2412C260.64 58.1047 260.325 58.9683 260.041 59.8318C259.77 60.6825 259.577 61.4493 259.461 62.1324C259.422 62.3258 259.403 62.5191 259.403 62.7124C259.403 62.996 259.455 63.2602 259.558 63.5051C259.661 63.7371 259.848 63.8531 260.118 63.8531C260.325 63.8531 260.576 63.7693 260.872 63.6017H260.892C260.917 63.6017 260.937 63.6275 260.95 63.6791C260.963 63.7177 260.956 63.7499 260.93 63.7757C260.776 63.9433 260.557 64.0979 260.273 64.2397C259.989 64.3815 259.68 64.491 259.345 64.5684C259.023 64.6586 258.713 64.7037 258.417 64.7037ZM265.893 55.2692C265.558 55.1532 265.39 54.9341 265.39 54.6119C265.39 54.3155 265.506 54.0126 265.738 53.7033C265.983 53.3811 266.247 53.1748 266.531 53.0846C266.595 53.0588 266.647 53.0459 266.685 53.0459C266.737 53.0459 266.789 53.0459 266.84 53.0459C267.059 53.0459 267.24 53.1104 267.381 53.2393C267.523 53.3682 267.594 53.5164 267.594 53.6839C267.594 53.9159 267.472 54.1093 267.227 54.2639C267.033 54.2381 266.847 54.2833 266.666 54.3993C266.486 54.5152 266.325 54.657 266.183 54.8246C266.054 54.9921 265.957 55.1403 265.893 55.2692ZM262.568 64.665C262.4 64.665 262.239 64.6264 262.084 64.549C261.93 64.4846 261.801 64.3493 261.698 64.1431C261.556 63.8337 261.485 63.4664 261.485 63.0411C261.485 62.5771 261.556 62.0615 261.698 61.4944C261.839 60.9145 262.026 60.3216 262.258 59.7158C262.348 59.4967 262.464 59.226 262.606 58.9038C262.748 58.5816 262.916 58.2594 263.109 57.9372C263.302 57.615 263.521 57.3507 263.766 57.1445C264.024 56.9254 264.301 56.8159 264.598 56.8159C264.739 56.8159 264.939 56.8223 265.197 56.8352C265.455 56.8481 265.641 56.8481 265.757 56.8352C265.68 56.8868 265.59 56.9899 265.487 57.1445C265.384 57.2992 265.287 57.4603 265.197 57.6279C265.107 57.7825 265.036 57.905 264.984 57.9952C264.649 58.6654 264.333 59.3292 264.037 59.9865C263.74 60.6438 263.515 61.2753 263.36 61.8811C263.334 61.9842 263.315 62.0873 263.302 62.1904C263.289 62.2935 263.283 62.3902 263.283 62.4804C263.283 62.8542 263.405 63.0411 263.65 63.0411C263.753 63.0411 263.863 63.0153 263.979 62.9637C264.108 62.8993 264.256 62.8026 264.424 62.6737C264.72 62.4418 264.978 62.1775 265.197 61.8811C265.455 61.546 265.699 61.1916 265.931 60.8178C266.163 60.4311 266.363 60.0767 266.531 59.7545C266.595 59.6514 266.64 59.5998 266.666 59.5998C266.743 59.5998 266.782 59.7094 266.782 59.9285C266.782 60.0316 266.763 60.154 266.724 60.2958C266.698 60.4247 266.653 60.5471 266.589 60.6631C266.408 60.9724 266.196 61.314 265.951 61.6878C265.706 62.0615 265.455 62.4224 265.197 62.7704C265.016 63.0153 264.778 63.286 264.482 63.5824C264.185 63.8788 263.869 64.1366 263.534 64.3557C263.199 64.5619 262.877 64.665 262.568 64.665ZM266.875 64.665C266.514 64.665 266.243 64.5362 266.063 64.2784C265.882 64.0077 265.792 63.6468 265.792 63.1957C265.792 63.1313 265.792 63.0669 265.792 63.0024C265.792 62.938 265.799 62.8735 265.812 62.8091C265.876 62.3193 265.986 61.7651 266.14 61.1464C266.308 60.5278 266.501 59.8769 266.72 59.1938C266.849 58.8072 267.01 58.3238 267.204 57.7438C267.41 57.151 267.648 56.5194 267.919 55.8492C268.19 55.1661 268.486 54.4895 268.808 53.8193C269.143 53.1491 269.511 52.5433 269.91 52.002C270.31 51.4478 270.729 51.0031 271.167 50.668C271.618 50.3329 272.095 50.1653 272.597 50.1653C273.01 50.1653 273.293 50.2684 273.448 50.4747C273.603 50.668 273.68 50.9 273.68 51.1707C273.68 51.4542 273.629 51.7442 273.525 52.0406C273.422 52.3242 273.319 52.5626 273.216 52.756C272.984 53.2199 272.681 53.7419 272.307 54.3219C271.934 54.9019 271.541 55.4432 271.128 55.9459C270.883 56.2681 270.58 56.629 270.219 57.0285C269.859 57.4281 269.517 57.7954 269.195 58.1305C268.886 58.4656 268.66 58.6976 268.518 58.8265L268.209 59.7158C268.119 59.9607 268.028 60.2507 267.938 60.5858C267.861 60.9209 267.79 61.256 267.726 61.5911C267.674 61.9133 267.629 62.1969 267.59 62.4418C267.577 62.4933 267.571 62.5449 267.571 62.5964C267.571 62.648 267.571 62.6931 267.571 62.7317C267.571 63.1184 267.719 63.3117 268.016 63.3117C268.196 63.3117 268.422 63.228 268.692 63.0604C268.95 62.9057 269.195 62.706 269.427 62.4611C269.672 62.2033 269.846 62.01 269.949 61.8811C270.207 61.546 270.451 61.1916 270.683 60.8178C270.915 60.4311 271.115 60.0767 271.283 59.7545C271.347 59.6514 271.392 59.5998 271.418 59.5998C271.495 59.5998 271.534 59.7094 271.534 59.9285C271.534 60.0316 271.515 60.154 271.476 60.2958C271.45 60.4247 271.405 60.5471 271.341 60.6631C271.16 60.9724 270.948 61.314 270.703 61.6878C270.458 62.0615 270.207 62.4224 269.949 62.7704C269.755 63.0282 269.485 63.3053 269.137 63.6017C268.789 63.8982 268.415 64.1495 268.016 64.3557C267.616 64.5619 267.236 64.665 266.875 64.665ZM268.905 57.7245C269.549 56.9641 270.2 56.1521 270.857 55.2886C271.528 54.4121 272.082 53.5228 272.52 52.6206C272.546 52.5562 272.604 52.4273 272.694 52.234C272.784 52.0406 272.868 51.828 272.945 51.596C273.023 51.3511 273.061 51.1449 273.061 50.9773C273.061 50.7582 272.978 50.6487 272.81 50.6487H272.675C272.507 50.6487 272.307 50.7647 272.075 50.9967C271.856 51.2287 271.631 51.538 271.399 51.9246C271.102 52.4144 270.812 52.9815 270.529 53.6259C270.245 54.2575 269.968 54.9277 269.697 55.6366C269.427 56.3454 269.163 57.0414 268.905 57.7245ZM276.523 64.665C276.124 64.665 275.847 64.5104 275.692 64.201C275.55 63.8917 275.479 63.5115 275.479 63.0604C275.479 62.648 275.518 62.242 275.595 61.8424C275.634 61.662 275.673 61.4815 275.711 61.3011C275.763 61.1078 275.821 60.908 275.885 60.7018C275.666 61.1013 275.434 61.488 275.189 61.8618C274.957 62.2355 274.719 62.5642 274.474 62.8477C274.062 63.3504 273.623 63.7693 273.159 64.1044C272.708 64.4395 272.257 64.607 271.806 64.607C271.445 64.607 271.136 64.4782 270.878 64.2204C270.633 63.9497 270.511 63.4857 270.511 62.8284C270.511 62.1582 270.627 61.4687 270.859 60.7598C271.091 60.0509 271.413 59.3936 271.825 58.7878C272.251 58.1692 272.747 57.673 273.314 57.2992C273.894 56.9254 274.526 56.7385 275.209 56.7385C275.428 56.7385 275.666 56.7708 275.924 56.8352C276.182 56.8996 276.42 57.0221 276.639 57.2025C276.858 57.3701 277.007 57.6085 277.084 57.9178C277.097 57.8921 277.11 57.8727 277.123 57.8598C277.148 57.847 277.168 57.8341 277.181 57.8212C277.361 57.5376 277.567 57.2992 277.799 57.1059C278.031 56.9125 278.289 56.8159 278.573 56.8159C278.714 56.8159 278.914 56.8223 279.172 56.8352C279.43 56.8481 279.617 56.8481 279.733 56.8352C279.668 56.8868 279.578 56.9899 279.462 57.1445C279.359 57.2992 279.262 57.4603 279.172 57.6279C279.082 57.7825 279.011 57.905 278.959 57.9952C278.611 58.6654 278.296 59.3292 278.012 59.9865C277.728 60.6438 277.509 61.2753 277.355 61.8811C277.316 62.01 277.29 62.1324 277.277 62.2484C277.264 62.3515 277.258 62.4546 277.258 62.5577C277.258 62.8929 277.368 63.0604 277.587 63.0604C277.793 63.0604 278.051 62.9315 278.36 62.6737C278.811 62.3129 279.204 61.8618 279.539 61.3204C279.887 60.7791 280.19 60.2571 280.448 59.7545C280.5 59.6643 280.545 59.6191 280.583 59.6191C280.661 59.6191 280.699 59.7287 280.699 59.9478C280.699 60.0509 280.68 60.1669 280.641 60.2958C280.616 60.4247 280.57 60.5471 280.506 60.6631C280.326 60.9724 280.087 61.3527 279.791 61.8038C279.507 62.2549 279.185 62.6995 278.824 63.1377C278.463 63.5631 278.083 63.9239 277.683 64.2204C277.297 64.5168 276.91 64.665 276.523 64.665ZM272.676 62.9831C272.715 62.996 272.773 63.0024 272.85 63.0024C273.095 63.0024 273.359 62.8993 273.643 62.6931C273.926 62.4869 274.21 62.2226 274.493 61.9004C274.777 61.5653 275.028 61.2302 275.247 60.8951C275.814 59.9929 276.233 59.3163 276.504 58.8652C276.775 58.4141 276.929 58.1563 276.968 58.0918C276.904 57.8727 276.788 57.7116 276.62 57.6085C276.465 57.5054 276.278 57.4539 276.059 57.4539C275.776 57.4539 275.473 57.5312 275.151 57.6859C274.841 57.8405 274.577 58.0274 274.358 58.2465C274.023 58.5816 273.701 59.0134 273.391 59.5418C273.095 60.0702 272.85 60.5922 272.657 61.1078C272.476 61.6233 272.386 62.0551 272.386 62.4031C272.386 62.7253 272.483 62.9186 272.676 62.9831ZM282.955 64.6844C282.542 64.6844 282.246 64.5104 282.065 64.1624C281.924 63.8531 281.853 63.4857 281.853 63.0604C281.853 62.5835 281.924 62.0551 282.065 61.4751C282.207 60.8951 282.4 60.3022 282.645 59.6965C282.735 59.4774 282.851 59.2003 282.993 58.8652C283.148 58.5301 283.328 58.2014 283.535 57.8792C283.354 58.0338 283.141 58.1627 282.897 58.2658C282.652 58.3561 282.413 58.4012 282.181 58.4012C282.001 58.4012 281.853 58.3754 281.737 58.3238C281.634 58.5301 281.466 58.8652 281.234 59.3292C281.002 59.7931 280.693 60.3409 280.306 60.9724C280.267 61.0369 280.229 61.0369 280.19 60.9724C280.164 60.8951 280.151 60.792 280.151 60.6631C280.151 60.56 280.164 60.4505 280.19 60.3345C280.216 60.2185 280.254 60.1089 280.306 60.0058C280.435 59.7609 280.564 59.5096 280.693 59.2518C280.822 58.9812 280.938 58.7427 281.041 58.5365C281.144 58.3303 281.202 58.2014 281.215 58.1498C280.983 58.0338 280.809 57.8727 280.693 57.6665C280.577 57.4474 280.519 57.2347 280.519 57.0285C280.519 56.8223 280.564 56.6354 280.654 56.4679C280.757 56.3003 280.905 56.1714 281.099 56.0812C281.215 56.0426 281.324 56.0232 281.427 56.0232C281.711 56.0232 281.943 56.1134 282.123 56.2939C282.11 56.3454 282.097 56.4034 282.085 56.4679C282.085 56.5194 282.085 56.5774 282.085 56.6419C282.085 57.0414 282.246 57.3379 282.568 57.5312C282.89 57.7245 283.238 57.7954 283.612 57.7438C283.792 57.4861 283.999 57.2605 284.231 57.0672C284.463 56.8739 284.714 56.7772 284.985 56.7772C285.126 56.7772 285.326 56.7836 285.584 56.7965C285.855 56.8094 286.048 56.8094 286.164 56.7965C286.087 56.8481 285.996 56.9512 285.893 57.1059C285.79 57.2605 285.693 57.4216 285.603 57.5892C285.513 57.7567 285.442 57.8856 285.391 57.9758C285.043 58.6461 284.72 59.3163 284.424 59.9865C284.127 60.6438 283.902 61.2753 283.747 61.8811C283.721 61.9971 283.696 62.1066 283.67 62.2098C283.657 62.3 283.651 62.3966 283.651 62.4998C283.651 62.8864 283.779 63.0797 284.037 63.0797C284.218 63.0797 284.475 62.9509 284.811 62.6931C285.107 62.4482 285.371 62.1775 285.603 61.8811C285.861 61.546 286.106 61.1851 286.338 60.7985C286.57 60.4118 286.77 60.0574 286.937 59.7351C287.002 59.632 287.047 59.5805 287.073 59.5805C287.15 59.5805 287.189 59.6965 287.189 59.9285C287.189 60.0187 287.176 60.1282 287.15 60.2571C287.124 60.386 287.079 60.5085 287.015 60.6245C286.821 60.9467 286.602 61.3011 286.357 61.6878C286.112 62.0615 285.861 62.4289 285.603 62.7897C285.436 63.0217 285.197 63.286 284.888 63.5824C284.591 63.8788 284.269 64.1366 283.921 64.3557C283.586 64.5748 283.264 64.6844 282.955 64.6844ZM286.878 68.435C286.556 68.435 286.215 68.3834 285.854 68.2803C285.506 68.1901 285.216 68.029 284.984 67.797C284.739 67.565 284.616 67.2557 284.616 66.869C284.616 66.5983 284.7 66.347 284.868 66.115C285.035 65.883 285.267 65.767 285.564 65.767C285.744 65.767 285.912 65.8121 286.066 65.9023C286.221 66.0055 286.324 66.1279 286.376 66.2697C286.35 66.2826 286.311 66.3212 286.26 66.3857C286.208 66.4501 286.176 66.4952 286.163 66.521C286.073 66.7014 286.028 66.8883 286.028 67.0817C286.028 67.3265 286.112 67.5199 286.279 67.6616C286.46 67.8163 286.685 67.8936 286.956 67.8936C287.304 67.8936 287.665 67.7648 288.038 67.507C288.451 67.2105 288.773 66.8239 289.005 66.347C289.25 65.883 289.443 65.4641 289.585 65.0904L290.687 62.1518C290.455 62.4353 290.21 62.7253 289.952 63.0217C289.707 63.3053 289.553 63.4793 289.488 63.5437C288.999 64.0335 288.56 64.3428 288.174 64.4717C287.787 64.6006 287.446 64.665 287.149 64.665C286.84 64.665 286.576 64.5297 286.356 64.259C286.15 63.9884 286.047 63.5953 286.047 63.0797C286.047 62.822 286.086 62.4933 286.163 62.0938C286.24 61.6942 286.35 61.2689 286.492 60.8178C286.634 60.3538 286.795 59.9027 286.975 59.4645C287.168 59.0134 287.375 58.6138 287.594 58.2658C287.929 57.7374 288.303 57.3959 288.715 57.2412C289.127 57.0865 289.649 57.0092 290.281 57.0092C290.333 57.0092 290.358 57.035 290.358 57.0865C290.358 57.1381 290.32 57.2025 290.242 57.2799C290.062 57.4345 289.843 57.7052 289.585 58.0918C289.327 58.4785 289.076 58.9038 288.831 59.3678C288.599 59.8318 288.406 60.2765 288.251 60.7018C288.148 60.9982 288.045 61.3462 287.942 61.7458C287.852 62.1453 287.806 62.4933 287.806 62.7897C287.806 62.996 287.832 63.1635 287.884 63.2924C287.948 63.4084 288.045 63.4664 288.174 63.4664C288.38 63.4664 288.663 63.3117 289.024 63.0024C289.566 62.5513 290.055 61.9971 290.494 61.3398C290.932 60.6825 291.306 59.9994 291.615 59.2905C291.795 58.878 291.944 58.5301 292.06 58.2465C292.176 57.9501 292.305 57.7116 292.446 57.5312C292.588 57.3507 292.788 57.2219 293.046 57.1445C293.303 57.0543 293.651 57.0092 294.09 57.0092H294.882C294.637 57.1639 294.392 57.4539 294.148 57.8792C293.903 58.2916 293.671 58.7814 293.452 59.3485C293.284 59.7609 293.11 60.212 292.93 60.7018C292.762 61.1916 292.588 61.6878 292.408 62.1904C292.253 62.6544 292.085 63.1635 291.905 63.7177C291.725 64.259 291.518 64.7875 291.286 65.303C291.054 65.8315 290.784 66.289 290.474 66.6757C290.036 67.217 289.501 67.6423 288.87 67.9516C288.238 68.2739 287.574 68.435 286.878 68.435Z" fill="#7481AA"/>
<path d="M43.0775 7.42706L42.3387 12.9014L36.8088 12.6922L41.7957 15.0884L39.892 20.2753L43.7117 16.2812L48.0621 19.6945L45.4368 14.8303L50.0307 11.7555L44.5883 12.7432L43.0775 7.42706Z" fill="#FCEA10"/>
<line x1="30.8231" y1="3.24498" x2="3.39184" y2="3.24498" stroke="#7481AA" stroke-width="5.48625" stroke-linecap="round"/>
<path d="M3.39185 30.6762L3.39184 3.245" stroke="#7481AA" stroke-width="5.48625" stroke-linecap="round"/>
<line x1="283.569" y1="81.7551" x2="311" y2="81.7551" stroke="#7481AA" stroke-width="5.48625" stroke-linecap="round"/>
<path d="M311 54.3238L311 81.7551" stroke="#7481AA" stroke-width="5.48625" stroke-linecap="round"/>
</svg>
