<svg width="1130" height="303" viewBox="0 0 1130 303" fill="none" xmlns="http://www.w3.org/2000/svg">
<path d="M103.061 144.849C96.7817 144.849 90.7704 143.969 85.0271 142.208C79.2838 140.37 74.7275 138.034 71.3581 135.201L76.5271 123.599C79.7433 126.126 83.7253 128.232 88.4731 129.917C93.2208 131.602 98.0835 132.444 103.061 132.444C107.273 132.444 110.68 131.985 113.284 131.066C115.888 130.147 117.802 128.921 119.027 127.39C120.252 125.782 120.865 123.982 120.865 121.991C120.865 119.541 119.984 117.588 118.223 116.133C116.462 114.602 114.165 113.415 111.331 112.572C108.575 111.653 105.473 110.811 102.027 110.045C98.6578 109.279 95.2501 108.399 91.8042 107.403C88.4348 106.331 85.3334 104.991 82.5001 103.383C79.7433 101.698 77.4843 99.4776 75.723 96.7209C73.9618 93.9641 73.0811 90.4416 73.0811 86.1533C73.0811 81.7884 74.2298 77.8064 76.5271 74.2073C78.901 70.5316 82.4618 67.6216 87.2096 65.4775C92.0339 63.2568 98.1218 62.1464 105.473 62.1464C110.297 62.1464 115.084 62.759 119.831 63.9842C124.579 65.2095 128.714 66.9707 132.237 69.2681L127.527 80.8694C123.928 78.7253 120.214 77.1555 116.385 76.16C112.557 75.0879 108.881 74.5519 105.358 74.5519C101.223 74.5519 97.8537 75.0496 95.2501 76.0451C92.7231 77.0406 90.847 78.3424 89.6217 79.9505C88.4731 81.5586 87.8988 83.3965 87.8988 85.4641C87.8988 87.9145 88.7411 89.9055 90.4258 91.4371C92.1871 92.892 94.4461 94.0407 97.2028 94.883C100.036 95.7254 103.176 96.5677 106.622 97.4101C110.068 98.1758 113.475 99.0565 116.845 100.052C120.291 101.047 123.392 102.349 126.149 103.957C128.982 105.565 131.241 107.748 132.926 110.505C134.687 113.261 135.568 116.746 135.568 120.957C135.568 125.246 134.381 129.228 132.007 132.903C129.71 136.503 126.149 139.412 121.325 141.633C116.5 143.777 110.412 144.849 103.061 144.849Z" fill="#333333"/>
<path d="M148.996 143.701V82.3627H163.355V143.701H148.996Z" fill="#333333"/>
<path d="M259.619 81.6735C264.52 81.6735 268.846 82.6307 272.599 84.5451C276.427 86.4596 279.414 89.4078 281.558 93.3898C283.702 97.2952 284.774 102.349 284.774 108.552V143.701H270.416V110.39C270.416 104.953 269.229 100.894 266.855 98.2141C264.482 95.5339 261.074 94.1938 256.632 94.1938C253.493 94.1938 250.698 94.883 248.247 96.2614C245.873 97.6398 243.997 99.6691 242.619 102.349C241.317 105.029 240.666 108.437 240.666 112.572V143.701H226.308V110.39C226.308 104.953 225.121 100.894 222.747 98.2141C220.373 95.5339 216.966 94.1938 212.524 94.1938C209.384 94.1938 206.589 94.883 204.139 96.2614C201.765 97.6398 199.889 99.6691 198.51 102.349C197.209 105.029 196.558 108.437 196.558 112.572V143.701H182.2V82.3627H195.869V98.6736L193.456 93.8492C195.524 89.8672 198.511 86.8424 202.416 84.7749C206.398 82.7073 210.916 81.6735 215.97 81.6735C221.713 81.6735 226.691 83.0902 230.903 85.9235C235.191 88.7569 238.024 93.0452 239.403 98.7884L233.774 96.8357C235.765 92.2411 239.058 88.5654 243.653 85.8087C248.247 83.0519 253.569 81.6735 259.619 81.6735Z" fill="#333333"/>
<path d="M337.122 144.505C332.145 144.505 327.589 143.356 323.453 141.059C319.395 138.762 316.14 135.316 313.69 130.721C311.316 126.05 310.129 120.153 310.129 113.032C310.129 105.834 311.278 99.9371 313.575 95.3425C315.949 90.7479 319.165 87.3402 323.224 85.1195C327.282 82.8222 331.915 81.6735 337.122 81.6735C343.172 81.6735 348.494 82.9753 353.089 85.5789C357.76 88.1825 361.436 91.8199 364.116 96.4911C366.873 101.162 368.251 106.676 368.251 113.032C368.251 119.388 366.873 124.939 364.116 129.687C361.436 134.358 357.76 137.996 353.089 140.599C348.494 143.203 343.172 144.505 337.122 144.505ZM303.122 165.985V82.3627H316.791V96.8357L316.332 113.147L317.48 129.457V165.985H303.122ZM335.514 132.214C338.96 132.214 342.023 131.448 344.704 129.917C347.46 128.385 349.643 126.165 351.251 123.255C352.859 120.345 353.663 116.937 353.663 113.032C353.663 109.05 352.859 105.642 351.251 102.809C349.643 99.8988 347.46 97.6781 344.704 96.1465C342.023 94.615 338.96 93.8492 335.514 93.8492C332.068 93.8492 328.967 94.615 326.21 96.1465C323.453 97.6781 321.271 99.8988 319.663 102.809C318.055 105.642 317.251 109.05 317.251 113.032C317.251 116.937 318.055 120.345 319.663 123.255C321.271 126.165 323.453 128.385 326.21 129.917C328.967 131.448 332.068 132.214 335.514 132.214Z" fill="#333333"/>
<path d="M381.868 143.701V58.4707H396.226V143.701H381.868Z" fill="#333333"/>
<path d="M420.125 166.789C417.139 166.789 414.152 166.291 411.166 165.295C408.179 164.3 405.69 162.922 403.699 161.16L409.443 150.593C410.898 151.895 412.544 152.928 414.382 153.694C416.22 154.46 418.096 154.843 420.01 154.843C422.614 154.843 424.72 154.192 426.328 152.89C427.936 151.588 429.429 149.406 430.808 146.343L434.369 138.302L435.517 136.579L458.72 82.3627H472.504L443.788 148.64C441.873 153.235 439.729 156.872 437.355 159.552C435.058 162.232 432.454 164.109 429.544 165.181C426.711 166.253 423.571 166.789 420.125 166.789ZM432.76 145.883L405.078 82.3627H420.01L442.524 135.316L432.76 145.883Z" fill="#333333"/>
<path d="M514.601 143.701V63.295H549.75C558.48 63.295 566.137 64.9797 572.723 68.3491C579.309 71.7185 584.439 76.3897 588.115 82.3627C591.791 88.3357 593.628 95.3808 593.628 103.498C593.628 111.539 591.791 118.584 588.115 124.633C584.439 130.606 579.309 135.277 572.723 138.647C566.137 142.016 558.48 143.701 549.75 143.701H514.601ZM529.534 131.066H549.061C555.11 131.066 560.318 129.917 564.682 127.62C569.124 125.322 572.532 122.106 574.905 117.971C577.356 113.836 578.581 109.011 578.581 103.498C578.581 97.9078 577.356 93.0835 574.905 89.0249C572.532 84.8897 569.124 81.6735 564.682 79.3762C560.318 77.0789 555.11 75.9302 549.061 75.9302H529.534V131.066Z" fill="#333333"/>
<path d="M636.952 144.505C630.137 144.505 624.164 143.165 619.033 140.485C613.979 137.728 610.036 133.976 607.202 129.228C604.446 124.48 603.067 119.081 603.067 113.032C603.067 106.906 604.407 101.507 607.087 96.8357C609.844 92.088 613.596 88.374 618.344 85.6938C623.169 83.0136 628.644 81.6735 634.77 81.6735C640.743 81.6735 646.065 82.9753 650.736 85.5789C655.407 88.1825 659.083 91.8582 661.763 96.606C664.444 101.354 665.784 106.944 665.784 113.376C665.784 113.989 665.745 114.678 665.669 115.444C665.669 116.21 665.63 116.937 665.554 117.626H614.439V108.093H657.973L652.344 111.079C652.421 107.557 651.693 104.455 650.162 101.775C648.63 99.0948 646.525 96.9889 643.844 95.4573C641.241 93.9258 638.216 93.16 634.77 93.16C631.247 93.16 628.146 93.9258 625.466 95.4573C622.862 96.9889 620.795 99.133 619.263 101.89C617.808 104.57 617.081 107.748 617.081 111.424V113.721C617.081 117.397 617.923 120.651 619.608 123.484C621.292 126.318 623.666 128.5 626.729 130.032C629.793 131.563 633.315 132.329 637.297 132.329C640.743 132.329 643.844 131.793 646.601 130.721C649.358 129.649 651.808 127.964 653.953 125.667L661.648 134.512C658.892 137.728 655.407 140.217 651.196 141.978C647.061 143.663 642.313 144.505 636.952 144.505Z" fill="#333333"/>
<path d="M707.718 144.505C701.285 144.505 695.542 143.165 690.488 140.485C685.51 137.728 681.605 133.976 678.771 129.228C675.938 124.48 674.521 119.081 674.521 113.032C674.521 106.906 675.938 101.507 678.771 96.8357C681.605 92.088 685.51 88.374 690.488 85.6938C695.542 83.0136 701.285 81.6735 707.718 81.6735C713.691 81.6735 718.936 82.8987 723.454 85.3492C728.049 87.7231 731.533 91.2456 733.907 95.9168L722.88 102.349C721.042 99.4393 718.783 97.2952 716.103 95.9168C713.499 94.5384 710.666 93.8492 707.603 93.8492C704.08 93.8492 700.902 94.615 698.069 96.1465C695.236 97.6781 693.015 99.8988 691.407 102.809C689.799 105.642 688.995 109.05 688.995 113.032C688.995 117.014 689.799 120.46 691.407 123.37C693.015 126.203 695.236 128.385 698.069 129.917C700.902 131.448 704.08 132.214 707.603 132.214C710.666 132.214 713.499 131.525 716.103 130.147C718.783 128.768 721.042 126.624 722.88 123.714L733.907 130.147C731.533 134.741 728.049 138.302 723.454 140.829C718.936 143.28 713.691 144.505 707.718 144.505Z" fill="#333333"/>
<path d="M745.758 143.701V58.4707H760.116V143.701H745.758Z" fill="#333333"/>
<path d="M804.921 144.505C799.713 144.505 795.119 143.548 791.137 141.633C787.155 139.642 784.053 136.656 781.833 132.674C779.612 128.615 778.502 123.523 778.502 117.397V82.3627H792.86V115.444C792.86 120.957 794.085 125.093 796.535 127.849C799.062 130.53 802.623 131.87 807.218 131.87C810.587 131.87 813.497 131.18 815.948 129.802C818.475 128.424 820.427 126.356 821.806 123.599C823.261 120.843 823.988 117.435 823.988 113.376V82.3627H838.346V143.701H824.677V127.16L827.09 132.214C825.022 136.196 821.997 139.259 818.015 141.403C814.033 143.471 809.668 144.505 804.921 144.505Z" fill="#333333"/>
<path d="M880.234 144.505C873.495 144.505 868.288 142.782 864.612 139.336C860.936 135.813 859.098 130.644 859.098 123.829V68.8086H873.457V123.484C873.457 126.394 874.184 128.653 875.639 130.262C877.171 131.87 879.276 132.674 881.957 132.674C885.173 132.674 887.853 131.831 889.997 130.147L894.018 140.37C892.333 141.748 890.265 142.782 887.815 143.471C885.364 144.16 882.837 144.505 880.234 144.505ZM848.99 94.3087V82.8222H889.882V94.3087H848.99Z" fill="#333333"/>
<path d="M927.459 144.505C920.72 144.505 915.513 142.782 911.837 139.336C908.161 135.813 906.323 130.644 906.323 123.829V68.8086H920.682V123.484C920.682 126.394 921.409 128.653 922.864 130.262C924.396 131.87 926.501 132.674 929.182 132.674C932.398 132.674 935.078 131.831 937.222 130.147L941.242 140.37C939.558 141.748 937.49 142.782 935.04 143.471C932.589 144.16 930.062 144.505 927.459 144.505ZM896.215 94.3087V82.8222H937.107V94.3087H896.215Z" fill="#333333"/>
<path d="M979.866 144.505C973.051 144.505 967.078 143.165 961.947 140.485C956.893 137.728 952.949 133.976 950.116 129.228C947.359 124.48 945.981 119.081 945.981 113.032C945.981 106.906 947.321 101.507 950.001 96.8357C952.758 92.088 956.51 88.374 961.258 85.6938C966.082 83.0136 971.557 81.6735 977.683 81.6735C983.656 81.6735 988.979 82.9753 993.65 85.5789C998.321 88.1825 1002 91.8582 1004.68 96.606C1007.36 101.354 1008.7 106.944 1008.7 113.376C1008.7 113.989 1008.66 114.678 1008.58 115.444C1008.58 116.21 1008.54 116.937 1008.47 117.626H957.352V108.093H1000.89L995.258 111.079C995.334 107.557 994.607 104.455 993.075 101.775C991.544 99.0948 989.438 96.9889 986.758 95.4573C984.154 93.9258 981.129 93.16 977.683 93.16C974.161 93.16 971.06 93.9258 968.379 95.4573C965.776 96.9889 963.708 99.133 962.177 101.89C960.722 104.57 959.994 107.748 959.994 111.424V113.721C959.994 117.397 960.837 120.651 962.521 123.484C964.206 126.318 966.58 128.5 969.643 130.032C972.706 131.563 976.228 132.329 980.21 132.329C983.656 132.329 986.758 131.793 989.515 130.721C992.271 129.649 994.722 127.964 996.866 125.667L1004.56 134.512C1001.81 137.728 998.321 140.217 994.109 141.978C989.974 143.663 985.226 144.505 979.866 144.505Z" fill="#333333"/>
<path d="M1022.49 143.701V82.3627H1036.16V99.2479L1034.55 94.3087C1036.39 90.1735 1039.26 87.0339 1043.16 84.8897C1047.15 82.7456 1052.09 81.6735 1057.98 81.6735V95.3425C1057.37 95.1893 1056.8 95.1128 1056.26 95.1128C1055.72 95.0362 1055.19 94.9979 1054.65 94.9979C1049.21 94.9979 1044.89 96.606 1041.67 99.8222C1038.46 102.962 1036.85 107.671 1036.85 113.951V143.701H1022.49Z" fill="#333333"/>
<path d="M766.662 232.524C765.453 232.524 764.43 231.943 763.593 230.781C762.803 229.572 762.5 227.898 762.686 225.76C762.779 224.411 763.128 222.691 763.733 220.599C764.337 218.507 765.081 216.391 765.964 214.253C766.894 212.067 767.824 210.231 768.754 208.743C769.963 206.837 771.311 205.605 772.799 205.047C774.286 204.489 776.193 204.21 778.517 204.21C778.657 204.21 778.727 204.28 778.727 204.419C778.727 204.652 778.587 204.908 778.308 205.186C777.657 205.744 776.913 206.721 776.076 208.116C775.286 209.464 774.519 210.975 773.775 212.649C773.031 214.322 772.38 215.926 771.822 217.461C771.729 217.786 771.52 218.414 771.195 219.344C770.869 220.274 770.567 221.296 770.288 222.412C770.009 223.482 769.87 224.481 769.87 225.411C769.87 226.155 770.009 226.783 770.288 227.294C770.567 227.759 771.032 227.991 771.683 227.991C772.566 227.945 773.519 227.41 774.542 226.387C775.565 225.318 776.588 223.97 777.611 222.342C778.634 220.715 779.61 219.065 780.54 217.391C781.47 215.671 782.283 214.136 782.981 212.788C783.725 211.393 784.259 210.417 784.585 209.859C785.282 208.743 786.026 207.79 786.816 207C787.607 206.163 788.513 205.744 789.536 205.744C789.908 205.744 790.466 205.768 791.21 205.814C791.954 205.814 792.651 205.814 793.302 205.814C794 205.814 794.464 205.791 794.697 205.744C794.511 205.837 794.232 206.047 793.86 206.372C793.488 206.651 793.209 206.976 793.023 207.348C792.279 208.79 791.535 210.301 790.792 211.882C790.048 213.462 789.304 215.322 788.56 217.461C788.467 217.786 788.234 218.414 787.862 219.344C787.537 220.274 787.235 221.296 786.956 222.412C786.677 223.482 786.537 224.481 786.537 225.411C786.537 226.527 786.723 227.317 787.095 227.782C787.514 228.247 788.025 228.48 788.63 228.48C789.466 228.48 790.396 228.154 791.419 227.503C792.489 226.806 793.442 225.969 794.279 224.993C795.72 223.319 796.859 221.575 797.696 219.762C798.579 217.902 799.184 216.508 799.509 215.578C799.416 215.066 799.323 214.508 799.23 213.904C799.184 213.3 799.16 212.695 799.16 212.091C799.16 211.254 799.23 210.394 799.37 209.51C799.555 208.627 799.811 207.767 800.137 206.93C800.741 205.442 801.601 204.536 802.717 204.21C802.903 204.164 803.066 204.14 803.205 204.14C803.391 204.094 803.577 204.071 803.763 204.071C804.646 204.071 805.228 204.373 805.507 204.977C805.832 205.582 805.995 206.302 805.995 207.139C805.995 207.976 805.902 208.813 805.716 209.65C805.53 210.44 805.344 211.068 805.158 211.533C804.832 212.416 804.461 213.276 804.042 214.113C803.624 214.904 803.228 215.694 802.857 216.484C802.857 216.763 802.926 217.158 803.066 217.67C803.577 219.902 804.716 221.017 806.483 221.017C807.552 221.017 808.668 220.506 809.83 219.483C810.481 218.925 811.063 218.228 811.574 217.391C812.132 216.508 812.62 215.694 813.038 214.95C813.271 214.578 813.41 214.485 813.457 214.671C813.55 214.857 813.596 215.159 813.596 215.578C813.596 216.043 813.55 216.577 813.457 217.182C813.364 217.786 813.201 218.274 812.969 218.646C812.271 219.855 811.551 220.785 810.807 221.436C810.063 222.04 809.226 222.528 808.296 222.9C807.924 223.04 807.529 223.156 807.111 223.249C806.692 223.342 806.297 223.389 805.925 223.389C804.809 223.389 803.786 223.086 802.857 222.482C801.973 221.831 801.322 220.831 800.904 219.483L800.695 218.786C800.23 219.576 799.695 220.483 799.091 221.506C798.486 222.528 797.905 223.458 797.347 224.295C796.836 225.132 796.44 225.736 796.161 226.108C794.581 228.108 792.86 229.688 791.001 230.851C789.188 232.013 787.258 232.594 785.212 232.594C784.98 232.594 784.747 232.594 784.515 232.594C784.282 232.594 784.05 232.571 783.818 232.524C782.051 232.292 780.865 231.502 780.261 230.153C779.656 228.759 779.354 227.364 779.354 225.969C779.354 225.458 779.377 224.969 779.424 224.504C779.517 223.993 779.587 223.575 779.633 223.249C778.936 224.225 778.192 225.132 777.402 225.969C776.658 226.806 775.89 227.643 775.1 228.48C773.333 230.246 771.753 231.362 770.358 231.827C768.963 232.292 767.731 232.524 766.662 232.524ZM825.923 198.631C824.715 198.213 824.11 197.422 824.11 196.26C824.11 195.19 824.529 194.098 825.366 192.982C826.249 191.82 827.202 191.076 828.225 190.75C828.457 190.657 828.643 190.611 828.783 190.611C828.969 190.611 829.155 190.611 829.341 190.611C830.131 190.611 830.782 190.843 831.293 191.308C831.805 191.773 832.061 192.308 832.061 192.912C832.061 193.749 831.619 194.447 830.735 195.005C830.038 194.912 829.364 195.074 828.713 195.493C828.062 195.911 827.481 196.423 826.97 197.027C826.505 197.631 826.156 198.166 825.923 198.631ZM813.928 232.524C813.324 232.524 812.743 232.385 812.185 232.106C811.627 231.874 811.162 231.385 810.79 230.641C810.279 229.526 810.023 228.201 810.023 226.666C810.023 224.993 810.279 223.133 810.79 221.087C811.301 218.995 811.976 216.856 812.812 214.671C813.138 213.881 813.556 212.904 814.068 211.742C814.579 210.58 815.184 209.417 815.881 208.255C816.578 207.093 817.369 206.14 818.252 205.396C819.182 204.605 820.182 204.21 821.251 204.21C821.762 204.21 822.483 204.233 823.413 204.28C824.343 204.326 825.017 204.326 825.435 204.28C825.156 204.466 824.831 204.838 824.459 205.396C824.087 205.954 823.738 206.535 823.413 207.139C823.087 207.697 822.832 208.139 822.646 208.464C821.437 210.882 820.298 213.276 819.228 215.647C818.159 218.019 817.345 220.297 816.788 222.482C816.695 222.854 816.625 223.226 816.578 223.598C816.532 223.97 816.509 224.318 816.509 224.644C816.509 225.992 816.95 226.666 817.834 226.666C818.206 226.666 818.601 226.573 819.019 226.387C819.484 226.155 820.019 225.806 820.623 225.341C821.693 224.504 822.622 223.551 823.413 222.482C824.343 221.273 825.226 219.995 826.063 218.646C826.9 217.251 827.62 215.973 828.225 214.811C828.457 214.439 828.62 214.253 828.713 214.253C828.992 214.253 829.131 214.648 829.131 215.438C829.131 215.81 829.062 216.252 828.922 216.763C828.829 217.228 828.667 217.67 828.434 218.088C827.783 219.204 827.016 220.436 826.133 221.785C825.249 223.133 824.343 224.435 823.413 225.69C822.762 226.573 821.902 227.55 820.832 228.619C819.763 229.688 818.624 230.618 817.415 231.409C816.206 232.153 815.044 232.524 813.928 232.524ZM831.419 232.524C830.07 232.524 829.048 231.99 828.35 230.92C828.025 230.409 827.792 229.805 827.653 229.107C827.513 228.41 827.444 227.689 827.444 226.945C827.444 226.201 827.49 225.458 827.583 224.714C827.676 223.923 827.792 223.156 827.932 222.412C828.164 221.203 828.42 220.111 828.699 219.134C829.024 218.112 829.35 217.135 829.675 216.205V216.136C829.303 216.833 828.838 217.6 828.28 218.437C827.723 219.227 827.327 219.809 827.095 220.181C826.769 220.692 826.514 220.948 826.328 220.948C826.142 220.948 826.049 220.738 826.049 220.32C826.049 219.39 826.328 218.367 826.886 217.251C827.258 216.508 827.769 215.554 828.42 214.392C829.071 213.183 829.745 211.882 830.442 210.487C831.14 209.092 831.744 207.744 832.256 206.442H827.583C827.351 206.442 827.304 206.256 827.444 205.884C827.583 205.512 827.792 205.163 828.071 204.838C828.35 204.466 828.559 204.28 828.699 204.28H833.999C834.511 203.071 835.092 201.769 835.743 200.374C836.44 198.98 837.207 197.678 838.044 196.469C838.927 195.214 839.88 194.191 840.903 193.4C841.926 192.61 843.019 192.215 844.181 192.215C844.693 192.215 845.32 192.215 846.064 192.215C846.854 192.215 847.343 192.192 847.529 192.145C846.552 192.796 845.413 194.098 844.111 196.051C842.81 197.957 841.391 200.7 839.857 204.28H846.901C847.04 204.28 846.994 204.466 846.761 204.838C846.529 205.163 846.227 205.512 845.855 205.884C845.529 206.256 845.204 206.442 844.878 206.442H838.881C838.276 207.976 837.602 209.65 836.858 211.463C836.161 213.276 835.51 215.066 834.906 216.833C834.348 218.553 833.929 220.134 833.65 221.575C833.464 222.459 833.371 223.272 833.371 224.016C833.371 225.783 833.929 226.666 835.045 226.666C835.789 226.666 836.672 226.294 837.695 225.55C838.718 224.807 839.741 223.784 840.764 222.482C841.694 221.273 842.577 219.971 843.414 218.577C844.297 217.182 845.041 215.903 845.646 214.741C845.832 214.415 845.994 214.253 846.134 214.253C846.413 214.253 846.552 214.625 846.552 215.368C846.552 215.74 846.482 216.182 846.343 216.694C846.25 217.158 846.064 217.623 845.785 218.088C845.134 219.204 844.367 220.436 843.484 221.785C842.6 223.086 841.694 224.388 840.764 225.69C840.113 226.527 839.253 227.48 838.183 228.549C837.161 229.619 836.045 230.548 834.836 231.339C833.674 232.129 832.535 232.524 831.419 232.524ZM861.827 232.524C860.246 232.524 859.153 232.06 858.549 231.13C857.991 230.153 857.712 229.037 857.712 227.782C857.712 226.434 857.921 224.876 858.34 223.11C858.805 221.296 859.363 219.437 860.014 217.53C860.711 215.578 861.408 213.764 862.106 212.091C862.338 211.533 862.547 210.928 862.733 210.277C862.966 209.627 863.082 209.045 863.082 208.534C863.082 207.604 862.664 207.139 861.827 207.139C861.501 207.139 861.129 207.209 860.711 207.348C860.293 207.441 859.804 207.651 859.246 207.976C858.27 208.441 857.34 209.092 856.457 209.929C855.574 210.719 854.969 211.324 854.644 211.742C854.039 212.486 853.458 213.323 852.9 214.253C852.342 215.136 851.854 216.043 851.436 216.973C850.506 218.972 849.762 220.878 849.204 222.691C848.693 224.458 848.204 225.969 847.739 227.224C847.46 228.015 847.182 228.828 846.903 229.665C846.624 230.502 846.368 231.316 846.135 232.106H839.371C839.371 232.106 839.533 231.525 839.859 230.363C840.184 229.2 840.579 228.038 841.044 226.876C843.183 221.343 845.206 215.694 847.112 209.929C849.018 204.164 851.319 198.631 854.016 193.331C855.225 190.96 856.527 188.774 857.921 186.775C859.363 184.776 860.874 183.195 862.455 182.033C864.082 180.824 865.779 180.22 867.546 180.22C868.94 180.22 869.893 180.545 870.405 181.196C870.963 181.8 871.242 182.568 871.242 183.497C871.242 184.52 871.032 185.59 870.614 186.705C870.196 187.821 869.777 188.774 869.359 189.565C868.522 191.239 867.429 193.122 866.081 195.214C864.733 197.306 863.315 199.259 861.827 201.072C861.501 201.49 860.943 202.164 860.153 203.094C859.363 203.978 858.549 204.884 857.712 205.814C856.922 206.744 856.294 207.465 855.829 207.976C857.364 206.86 858.689 206 859.804 205.396C860.92 204.791 861.873 204.373 862.664 204.14C864.012 203.768 865.128 203.582 866.011 203.582C868.661 203.582 869.986 204.745 869.986 207.069C869.986 208.046 869.707 209.208 869.15 210.556C868.871 211.3 868.475 212.3 867.964 213.555C867.453 214.811 866.918 216.159 866.36 217.6C865.849 218.995 865.407 220.343 865.035 221.645C864.709 222.947 864.547 224.016 864.547 224.853C864.547 225.365 864.616 225.829 864.756 226.248C864.942 226.62 865.267 226.806 865.732 226.806C866.058 226.806 866.523 226.643 867.127 226.318C868.429 225.574 869.638 224.528 870.754 223.179C871.916 221.831 872.939 220.39 873.822 218.855C874.752 217.321 875.542 215.926 876.193 214.671C876.333 214.346 876.495 214.183 876.681 214.183C876.914 214.183 877.03 214.578 877.03 215.368C877.03 215.74 876.984 216.182 876.891 216.694C876.798 217.158 876.612 217.623 876.333 218.088C875.682 219.204 874.822 220.576 873.752 222.203C872.729 223.83 871.567 225.434 870.265 227.015C868.964 228.549 867.592 229.851 866.151 230.92C864.709 231.99 863.268 232.524 861.827 232.524ZM853.807 207.488C856.131 204.745 858.479 201.816 860.85 198.701C863.268 195.539 865.267 192.331 866.848 189.077C866.941 188.844 867.15 188.379 867.476 187.682C867.801 186.984 868.103 186.217 868.382 185.38C868.661 184.497 868.801 183.753 868.801 183.149C868.801 182.358 868.499 181.963 867.894 181.963C867.29 181.963 866.569 182.382 865.732 183.218C864.942 184.055 864.128 185.171 863.291 186.566C862.222 188.333 861.129 190.378 860.014 192.703C858.898 194.981 857.805 197.399 856.736 199.956C855.713 202.513 854.737 205.024 853.807 207.488ZM930.331 232.664C928.611 232.664 927.448 232.245 926.844 231.409C926.286 230.572 926.007 229.502 926.007 228.201C926.007 227.41 926.077 226.62 926.216 225.829C926.356 224.993 926.495 224.132 926.635 223.249C927.007 221.25 927.634 218.995 928.518 216.484C929.447 213.927 930.494 211.184 931.656 208.255H911.92C911.362 209.51 910.687 211.138 909.897 213.137C909.153 215.09 908.409 217.182 907.665 219.413C906.922 221.645 906.294 223.761 905.782 225.76C905.271 227.712 905.015 229.316 905.015 230.572C905.015 231.269 905.108 231.781 905.294 232.106H896.298C896.856 229.781 897.6 227.201 898.53 224.365C899.506 221.482 900.598 218.484 901.807 215.368C903.063 212.253 904.341 209.162 905.643 206.093C906.945 203.025 908.2 200.096 909.409 197.306C910.618 194.47 912.013 191.611 913.593 188.728C913.919 188.17 914.198 187.659 914.43 187.194C914.709 186.729 915.011 186.334 915.337 186.008C913.524 186.055 911.571 186.287 909.479 186.705C907.433 187.077 905.457 187.612 903.551 188.309C901.691 189.007 900.087 189.821 898.739 190.75C897.437 191.68 896.6 192.703 896.228 193.819C896.182 193.958 896.089 194.028 895.949 194.028C895.531 194.028 895.322 193.703 895.322 193.052C895.322 192.912 895.368 192.703 895.461 192.424C895.879 191.215 896.391 190.146 896.995 189.216C897.646 188.286 898.297 187.496 898.948 186.845C900.482 185.264 902.203 184.311 904.109 183.986C906.015 183.614 908.037 183.428 910.176 183.428H925.937C924.914 184.218 923.822 185.45 922.659 187.124C921.497 188.798 920.335 190.704 919.172 192.843C918.01 194.935 916.918 197.05 915.895 199.189C914.918 201.281 914.058 203.164 913.314 204.838H933.051C934.074 202.42 935.096 200.119 936.119 197.934C937.142 195.702 938.049 193.726 938.839 192.006C939.676 190.285 940.327 189.007 940.792 188.17C941.303 187.147 941.791 186.287 942.256 185.59C942.768 184.892 943.419 184.358 944.209 183.986C944.999 183.614 946.115 183.428 947.557 183.428H952.02C951.183 184.079 950.23 185.194 949.161 186.775C948.138 188.309 947.092 190.03 946.022 191.936C944.999 193.842 944.093 195.655 943.302 197.376C942.14 199.84 940.908 202.629 939.606 205.744C938.351 208.859 937.212 211.974 936.189 215.09C935.213 218.158 934.515 220.924 934.097 223.389C933.957 224.086 933.888 224.783 933.888 225.481C933.888 226.504 934.074 227.457 934.445 228.34C934.817 229.177 935.492 229.595 936.468 229.595C937.212 229.595 938.118 229.293 939.188 228.689H939.258C939.351 228.689 939.42 228.782 939.467 228.968C939.513 229.107 939.49 229.223 939.397 229.316C938.839 229.921 938.049 230.479 937.026 230.99C936.003 231.502 934.887 231.897 933.678 232.176C932.516 232.501 931.4 232.664 930.331 232.664ZM957.298 198.631C956.089 198.213 955.485 197.422 955.485 196.26C955.485 195.19 955.904 194.098 956.74 192.982C957.624 191.82 958.577 191.076 959.6 190.75C959.832 190.657 960.018 190.611 960.158 190.611C960.344 190.611 960.53 190.611 960.716 190.611C961.506 190.611 962.157 190.843 962.668 191.308C963.18 191.773 963.435 192.308 963.435 192.912C963.435 193.749 962.994 194.447 962.11 195.005C961.413 194.912 960.739 195.074 960.088 195.493C959.437 195.911 958.856 196.423 958.344 197.027C957.879 197.631 957.531 198.166 957.298 198.631ZM945.303 232.524C944.699 232.524 944.117 232.385 943.56 232.106C943.002 231.874 942.537 231.385 942.165 230.641C941.653 229.526 941.398 228.201 941.398 226.666C941.398 224.993 941.653 223.133 942.165 221.087C942.676 218.995 943.35 216.856 944.187 214.671C944.513 213.881 944.931 212.904 945.443 211.742C945.954 210.58 946.558 209.417 947.256 208.255C947.953 207.093 948.744 206.14 949.627 205.396C950.557 204.605 951.556 204.21 952.626 204.21C953.137 204.21 953.858 204.233 954.788 204.28C955.718 204.326 956.392 204.326 956.81 204.28C956.531 204.466 956.206 204.838 955.834 205.396C955.462 205.954 955.113 206.535 954.788 207.139C954.462 207.697 954.207 208.139 954.021 208.464C952.812 210.882 951.673 213.276 950.603 215.647C949.534 218.019 948.72 220.297 948.162 222.482C948.069 222.854 948 223.226 947.953 223.598C947.907 223.97 947.883 224.318 947.883 224.644C947.883 225.992 948.325 226.666 949.208 226.666C949.58 226.666 949.976 226.573 950.394 226.387C950.859 226.155 951.394 225.806 951.998 225.341C953.067 224.504 953.997 223.551 954.788 222.482C955.718 221.273 956.601 219.995 957.438 218.646C958.275 217.251 958.995 215.973 959.6 214.811C959.832 214.439 959.995 214.253 960.088 214.253C960.367 214.253 960.506 214.648 960.506 215.438C960.506 215.81 960.437 216.252 960.297 216.763C960.204 217.228 960.041 217.67 959.809 218.088C959.158 219.204 958.391 220.436 957.508 221.785C956.624 223.133 955.718 224.435 954.788 225.69C954.137 226.573 953.277 227.55 952.207 228.619C951.138 229.688 949.999 230.618 948.79 231.409C947.581 232.153 946.419 232.524 945.303 232.524ZM960.841 232.524C959.539 232.524 958.563 232.06 957.912 231.13C957.261 230.153 956.935 228.851 956.935 227.224C956.935 226.992 956.935 226.759 956.935 226.527C956.935 226.294 956.959 226.062 957.005 225.829C957.238 224.063 957.633 222.064 958.191 219.832C958.795 217.6 959.493 215.252 960.283 212.788C960.748 211.393 961.329 209.65 962.026 207.558C962.77 205.419 963.63 203.141 964.607 200.723C965.583 198.259 966.652 195.818 967.815 193.4C969.024 190.983 970.349 188.798 971.79 186.845C973.231 184.846 974.742 183.242 976.323 182.033C977.95 180.824 979.671 180.22 981.484 180.22C982.972 180.22 983.994 180.592 984.552 181.336C985.11 182.033 985.389 182.87 985.389 183.846C985.389 184.869 985.203 185.915 984.831 186.984C984.459 188.007 984.087 188.867 983.715 189.565C982.879 191.239 981.786 193.122 980.438 195.214C979.089 197.306 977.671 199.259 976.184 201.072C975.3 202.234 974.208 203.536 972.906 204.977C971.604 206.419 970.372 207.744 969.21 208.952C968.094 210.161 967.28 210.998 966.769 211.463L965.653 214.671C965.327 215.554 965.002 216.601 964.677 217.809C964.398 219.018 964.142 220.227 963.909 221.436C963.723 222.598 963.561 223.621 963.421 224.504C963.375 224.69 963.351 224.876 963.351 225.062C963.351 225.248 963.351 225.411 963.351 225.55C963.351 226.945 963.886 227.643 964.955 227.643C965.606 227.643 966.42 227.34 967.396 226.736C968.326 226.178 969.21 225.458 970.046 224.574C970.93 223.644 971.558 222.947 971.929 222.482C972.859 221.273 973.743 219.995 974.58 218.646C975.416 217.251 976.137 215.973 976.742 214.811C976.974 214.439 977.137 214.253 977.23 214.253C977.509 214.253 977.648 214.648 977.648 215.438C977.648 215.81 977.578 216.252 977.439 216.763C977.346 217.228 977.183 217.67 976.951 218.088C976.3 219.204 975.533 220.436 974.649 221.785C973.766 223.133 972.859 224.435 971.929 225.69C971.232 226.62 970.256 227.619 969 228.689C967.745 229.758 966.397 230.665 964.955 231.409C963.514 232.153 962.143 232.524 960.841 232.524ZM968.164 207.488C970.488 204.745 972.836 201.816 975.207 198.701C977.625 195.539 979.624 192.331 981.205 189.077C981.298 188.844 981.507 188.379 981.832 187.682C982.158 186.984 982.46 186.217 982.739 185.38C983.018 184.497 983.158 183.753 983.158 183.149C983.158 182.358 982.855 181.963 982.251 181.963H981.763C981.158 181.963 980.438 182.382 979.601 183.218C978.81 184.055 977.997 185.171 977.16 186.566C976.091 188.333 975.045 190.378 974.022 192.703C972.999 194.981 971.999 197.399 971.023 199.956C970.046 202.513 969.093 205.024 968.164 207.488ZM995.646 232.524C994.205 232.524 993.205 231.967 992.647 230.851C992.136 229.735 991.88 228.363 991.88 226.736C991.88 225.248 992.019 223.784 992.298 222.342C992.438 221.692 992.577 221.041 992.717 220.39C992.903 219.692 993.112 218.972 993.344 218.228C992.554 219.669 991.717 221.064 990.834 222.412C989.997 223.761 989.137 224.946 988.253 225.969C986.766 227.782 985.185 229.293 983.511 230.502C981.884 231.711 980.257 232.315 978.629 232.315C977.328 232.315 976.212 231.85 975.282 230.92C974.399 229.944 973.957 228.27 973.957 225.899C973.957 223.482 974.375 220.994 975.212 218.437C976.049 215.88 977.211 213.509 978.699 211.324C980.233 209.092 982.023 207.302 984.069 205.954C986.161 204.605 988.439 203.931 990.904 203.931C991.694 203.931 992.554 204.047 993.484 204.28C994.414 204.512 995.274 204.954 996.064 205.605C996.855 206.209 997.389 207.069 997.668 208.185C997.715 208.092 997.761 208.023 997.808 207.976C997.901 207.93 997.971 207.883 998.017 207.837C998.668 206.814 999.412 205.954 1000.25 205.256C1001.09 204.559 1002.02 204.21 1003.04 204.21C1003.55 204.21 1004.27 204.233 1005.2 204.28C1006.13 204.326 1006.8 204.326 1007.22 204.28C1006.99 204.466 1006.66 204.838 1006.25 205.396C1005.87 205.954 1005.53 206.535 1005.2 207.139C1004.87 207.697 1004.62 208.139 1004.43 208.464C1003.18 210.882 1002.04 213.276 1001.02 215.647C999.993 218.019 999.203 220.297 998.645 222.482C998.505 222.947 998.412 223.389 998.366 223.807C998.319 224.179 998.296 224.551 998.296 224.923C998.296 226.132 998.691 226.736 999.482 226.736C1000.23 226.736 1001.16 226.271 1002.27 225.341C1003.9 224.039 1005.32 222.412 1006.53 220.459C1007.78 218.507 1008.87 216.624 1009.8 214.811C1009.99 214.485 1010.15 214.322 1010.29 214.322C1010.57 214.322 1010.71 214.718 1010.71 215.508C1010.71 215.88 1010.64 216.298 1010.5 216.763C1010.41 217.228 1010.24 217.67 1010.01 218.088C1009.36 219.204 1008.5 220.576 1007.43 222.203C1006.41 223.83 1005.25 225.434 1003.94 227.015C1002.64 228.549 1001.27 229.851 999.83 230.92C998.435 231.99 997.041 232.524 995.646 232.524ZM981.768 226.457C981.907 226.504 982.116 226.527 982.395 226.527C983.279 226.527 984.232 226.155 985.255 225.411C986.278 224.667 987.3 223.714 988.323 222.552C989.346 221.343 990.253 220.134 991.043 218.925C993.089 215.671 994.6 213.23 995.576 211.603C996.552 209.975 997.11 209.045 997.25 208.813C997.017 208.023 996.599 207.441 995.995 207.069C995.437 206.698 994.763 206.512 993.972 206.512C992.949 206.512 991.857 206.791 990.694 207.348C989.579 207.906 988.625 208.58 987.835 209.371C986.626 210.58 985.464 212.137 984.348 214.043C983.279 215.95 982.395 217.833 981.698 219.692C981.047 221.552 980.722 223.11 980.722 224.365C980.722 225.527 981.07 226.225 981.768 226.457ZM1018.85 232.594C1017.36 232.594 1016.29 231.967 1015.64 230.711C1015.13 229.595 1014.87 228.27 1014.87 226.736C1014.87 225.016 1015.13 223.11 1015.64 221.017C1016.15 218.925 1016.85 216.787 1017.73 214.601C1018.05 213.811 1018.47 212.811 1018.98 211.603C1019.54 210.394 1020.19 209.208 1020.94 208.046C1020.29 208.604 1019.52 209.069 1018.64 209.441C1017.75 209.766 1016.89 209.929 1016.06 209.929C1015.4 209.929 1014.87 209.836 1014.45 209.65C1014.08 210.394 1013.48 211.603 1012.64 213.276C1011.8 214.95 1010.69 216.926 1009.29 219.204C1009.15 219.437 1009.01 219.437 1008.87 219.204C1008.78 218.925 1008.73 218.553 1008.73 218.088C1008.73 217.716 1008.78 217.321 1008.87 216.903C1008.97 216.484 1009.1 216.089 1009.29 215.717C1009.76 214.834 1010.22 213.927 1010.69 212.997C1011.15 212.021 1011.57 211.161 1011.94 210.417C1012.31 209.673 1012.52 209.208 1012.57 209.022C1011.73 208.604 1011.1 208.023 1010.69 207.279C1010.27 206.488 1010.06 205.721 1010.06 204.977C1010.06 204.233 1010.22 203.559 1010.55 202.955C1010.92 202.35 1011.45 201.885 1012.15 201.56C1012.57 201.421 1012.96 201.351 1013.34 201.351C1014.36 201.351 1015.2 201.676 1015.85 202.327C1015.8 202.513 1015.75 202.722 1015.71 202.955C1015.71 203.141 1015.71 203.35 1015.71 203.582C1015.71 205.024 1016.29 206.093 1017.45 206.791C1018.61 207.488 1019.87 207.744 1021.22 207.558C1021.87 206.628 1022.61 205.814 1023.45 205.117C1024.28 204.419 1025.19 204.071 1026.17 204.071C1026.68 204.071 1027.4 204.094 1028.33 204.14C1029.31 204.187 1030 204.187 1030.42 204.14C1030.14 204.326 1029.82 204.698 1029.45 205.256C1029.07 205.814 1028.72 206.395 1028.4 207C1028.07 207.604 1027.82 208.069 1027.63 208.395C1026.38 210.812 1025.21 213.23 1024.15 215.647C1023.08 218.019 1022.26 220.297 1021.7 222.482C1021.61 222.9 1021.52 223.296 1021.43 223.668C1021.38 223.993 1021.36 224.342 1021.36 224.714C1021.36 226.108 1021.82 226.806 1022.75 226.806C1023.4 226.806 1024.33 226.341 1025.54 225.411C1026.61 224.528 1027.56 223.551 1028.4 222.482C1029.33 221.273 1030.21 219.971 1031.05 218.577C1031.89 217.182 1032.61 215.903 1033.21 214.741C1033.44 214.369 1033.61 214.183 1033.7 214.183C1033.98 214.183 1034.12 214.601 1034.12 215.438C1034.12 215.764 1034.07 216.159 1033.98 216.624C1033.89 217.089 1033.72 217.53 1033.49 217.949C1032.79 219.111 1032 220.39 1031.12 221.785C1030.24 223.133 1029.33 224.458 1028.4 225.76C1027.8 226.597 1026.94 227.55 1025.82 228.619C1024.75 229.688 1023.59 230.618 1022.33 231.409C1021.12 232.199 1019.96 232.594 1018.85 232.594ZM1033 246.124C1031.84 246.124 1030.61 245.938 1029.3 245.566C1028.05 245.24 1027 244.659 1026.17 243.822C1025.28 242.985 1024.84 241.87 1024.84 240.475C1024.84 239.498 1025.14 238.592 1025.75 237.755C1026.35 236.918 1027.19 236.5 1028.26 236.5C1028.91 236.5 1029.51 236.662 1030.07 236.988C1030.63 237.36 1031 237.801 1031.19 238.313C1031.09 238.359 1030.95 238.499 1030.77 238.731C1030.58 238.964 1030.47 239.126 1030.42 239.219C1030.09 239.87 1029.93 240.545 1029.93 241.242C1029.93 242.125 1030.23 242.823 1030.84 243.334C1031.49 243.892 1032.3 244.171 1033.28 244.171C1034.53 244.171 1035.84 243.706 1037.18 242.776C1038.67 241.707 1039.83 240.312 1040.67 238.592C1041.55 236.918 1042.25 235.407 1042.76 234.059L1046.74 223.458C1045.9 224.481 1045.02 225.527 1044.09 226.597C1043.2 227.619 1042.65 228.247 1042.41 228.48C1040.65 230.246 1039.07 231.362 1037.67 231.827C1036.28 232.292 1035.05 232.524 1033.98 232.524C1032.86 232.524 1031.91 232.036 1031.12 231.06C1030.37 230.084 1030 228.666 1030 226.806C1030 225.876 1030.14 224.69 1030.42 223.249C1030.7 221.808 1031.09 220.274 1031.6 218.646C1032.12 216.973 1032.7 215.345 1033.35 213.764C1034.05 212.137 1034.79 210.696 1035.58 209.441C1036.79 207.534 1038.14 206.302 1039.62 205.744C1041.11 205.186 1043 204.908 1045.27 204.908C1045.46 204.908 1045.55 205.001 1045.55 205.186C1045.55 205.372 1045.41 205.605 1045.13 205.884C1044.48 206.442 1043.69 207.418 1042.76 208.813C1041.83 210.208 1040.93 211.742 1040.04 213.416C1039.21 215.09 1038.51 216.694 1037.95 218.228C1037.58 219.297 1037.21 220.552 1036.84 221.994C1036.51 223.435 1036.35 224.69 1036.35 225.76C1036.35 226.504 1036.44 227.108 1036.63 227.573C1036.86 227.991 1037.21 228.201 1037.67 228.201C1038.42 228.201 1039.44 227.643 1040.74 226.527C1042.69 224.9 1044.46 222.9 1046.04 220.529C1047.62 218.158 1048.97 215.694 1050.09 213.137C1050.74 211.649 1051.27 210.394 1051.69 209.371C1052.11 208.302 1052.57 207.441 1053.08 206.791C1053.6 206.14 1054.32 205.675 1055.25 205.396C1056.18 205.07 1057.43 204.908 1059.01 204.908H1061.87C1060.99 205.465 1060.11 206.512 1059.22 208.046C1058.34 209.534 1057.5 211.3 1056.71 213.346C1056.11 214.834 1055.48 216.461 1054.83 218.228C1054.22 219.995 1053.6 221.785 1052.95 223.598C1052.39 225.272 1051.78 227.108 1051.13 229.107C1050.48 231.06 1049.74 232.966 1048.9 234.826C1048.06 236.732 1047.09 238.383 1045.97 239.777C1044.39 241.73 1042.46 243.264 1040.18 244.38C1037.9 245.543 1035.51 246.124 1033 246.124Z" fill="#333333"/>
<path d="M153.536 24.9814L150.871 44.7289L130.923 43.9744L148.913 52.6181L142.045 71.3287L155.824 56.9209L171.517 69.2336L162.047 51.6871L178.619 40.5954L158.986 44.1584L153.536 24.9814Z" fill="#FCEA10"/>
<line x1="109.331" y1="9.89533" x2="10.3784" y2="9.89532" stroke="#333333" stroke-width="19.7905" stroke-linecap="round"/>
<path d="M10.3784 108.848L10.3784 9.89524" stroke="#333333" stroke-width="19.7905" stroke-linecap="round"/>
<line x1="1021.06" y1="293.105" x2="1120.01" y2="293.105" stroke="#333333" stroke-width="19.7905" stroke-linecap="round"/>
<path d="M1120.01 194.152L1120.01 293.105" stroke="#333333" stroke-width="19.7905" stroke-linecap="round"/>
</svg>
