<svg width="715" height="193" viewBox="0 0 715 193" fill="none" xmlns="http://www.w3.org/2000/svg">
<path d="M64.9938 92.295C61.0235 92.295 57.2226 91.7382 53.5913 90.6245C49.9599 89.4625 47.0789 87.9857 44.9485 86.1942L48.2168 78.8588C50.2504 80.4566 52.7681 81.7881 55.7701 82.8533C58.772 83.9185 61.8466 84.4512 64.9938 84.4512C67.6569 84.4512 69.8115 84.1606 71.4577 83.5796C73.1039 82.9986 74.3144 82.2239 75.0891 81.2555C75.8638 80.2387 76.2512 79.1009 76.2512 77.842C76.2512 76.2926 75.6943 75.0579 74.5807 74.138C73.4671 73.1696 72.0145 72.4191 70.223 71.8865C68.48 71.3055 66.519 70.7729 64.3402 70.2887C62.2098 69.8045 60.0551 69.2477 57.8763 68.6183C55.7459 67.9404 53.7849 67.0931 51.9934 66.0763C50.2504 65.0111 48.822 63.6069 47.7084 61.8639C46.5948 60.1208 46.0379 57.8935 46.0379 55.1821C46.0379 52.4222 46.7642 49.9045 48.2168 47.6288C49.7178 45.3047 51.9692 43.4648 54.9712 42.1091C58.0216 40.7049 61.8708 40.0029 66.519 40.0029C69.5694 40.0029 72.5956 40.3902 75.5975 41.1649C78.5995 41.9396 81.2141 43.0532 83.4413 44.5058L80.4636 51.8412C78.1879 50.4855 75.8396 49.4929 73.4187 48.8635C70.9977 48.1856 68.6736 47.8467 66.4464 47.8467C63.8318 47.8467 61.7014 48.1614 60.0551 48.7908C58.4573 49.4203 57.2711 50.2434 56.4964 51.2602C55.7701 52.277 55.4069 53.439 55.4069 54.7463C55.4069 56.2957 55.9396 57.5546 57.0048 58.523C58.1184 59.4429 59.5467 60.1692 61.2898 60.7018C63.0813 61.2344 65.0665 61.767 67.2453 62.2996C69.4241 62.7838 71.5788 63.3406 73.7092 63.9701C75.888 64.5995 77.849 65.4226 79.592 66.4394C81.3835 67.4562 82.8119 68.8361 83.8771 70.5792C84.9907 72.3223 85.5475 74.5253 85.5475 77.1884C85.5475 79.8998 84.797 82.4176 83.2961 84.7417C81.8435 87.0173 79.592 88.8572 76.5417 90.2614C73.4913 91.6171 69.642 92.295 64.9938 92.295Z" fill="#7481AA"/>
<path d="M94.0382 91.5687V52.7854H103.117V91.5687H94.0382Z" fill="#7481AA"/>
<path d="M163.983 52.3496C167.082 52.3496 169.818 52.9548 172.19 54.1653C174.611 55.3758 176.5 57.2399 177.855 59.7577C179.211 62.227 179.889 65.4226 179.889 69.3445V91.5687H170.81V70.5066C170.81 67.0689 170.06 64.5027 168.559 62.808C167.058 61.1134 164.903 60.2661 162.095 60.2661C160.11 60.2661 158.343 60.7018 156.793 61.5734C155.292 62.4449 154.106 63.728 153.234 65.4226C152.411 67.1173 152 69.2719 152 71.8865V91.5687H142.921V70.5066C142.921 67.0689 142.171 64.5027 140.67 62.808C139.169 61.1134 137.014 60.2661 134.206 60.2661C132.221 60.2661 130.454 60.7018 128.904 61.5734C127.403 62.4449 126.217 63.728 125.345 65.4226C124.522 67.1173 124.111 69.2719 124.111 71.8865V91.5687H115.032V52.7854H123.675V63.0985L122.15 60.0482C123.457 57.5304 125.345 55.6179 127.815 54.3106C130.332 53.0033 133.189 52.3496 136.385 52.3496C140.016 52.3496 143.163 53.2454 145.826 55.0368C148.538 56.8283 150.329 59.5398 151.201 63.1712L147.642 61.9365C148.901 59.0314 150.983 56.7073 153.888 54.9642C156.793 53.2211 160.158 52.3496 163.983 52.3496Z" fill="#7481AA"/>
<path d="M212.988 92.0771C209.841 92.0771 206.96 91.3508 204.345 89.8982C201.779 88.4457 199.721 86.2668 198.172 83.3617C196.671 80.4082 195.92 76.68 195.92 72.177C195.92 67.6257 196.647 63.8974 198.099 60.9923C199.6 58.0872 201.634 55.9326 204.2 54.5284C206.766 53.0759 209.695 52.3496 212.988 52.3496C216.813 52.3496 220.178 53.1727 223.083 54.819C226.037 56.4652 228.361 58.7651 230.056 61.7186C231.799 64.6721 232.67 68.1583 232.67 72.177C232.67 76.1958 231.799 79.7061 230.056 82.7081C228.361 85.6616 226.037 87.9615 223.083 89.6077C220.178 91.254 216.813 92.0771 212.988 92.0771ZM191.49 105.658V52.7854H200.133V61.9365L199.842 72.2497L200.569 82.5628V105.658H191.49ZM211.971 84.3059C214.15 84.3059 216.087 83.8217 217.781 82.8533C219.524 81.885 220.904 80.4808 221.921 78.6409C222.938 76.801 223.446 74.6464 223.446 72.177C223.446 69.6593 222.938 67.5046 221.921 65.7131C220.904 63.8732 219.524 62.4691 217.781 61.5007C216.087 60.5324 214.15 60.0482 211.971 60.0482C209.792 60.0482 207.831 60.5324 206.088 61.5007C204.345 62.4691 202.965 63.8732 201.949 65.7131C200.932 67.5046 200.423 69.6593 200.423 72.177C200.423 74.6464 200.932 76.801 201.949 78.6409C202.965 80.4808 204.345 81.885 206.088 82.8533C207.831 83.8217 209.792 84.3059 211.971 84.3059Z" fill="#7481AA"/>
<path d="M241.28 91.5687V37.6788H250.358V91.5687H241.28Z" fill="#7481AA"/>
<path d="M265.47 106.167C263.581 106.167 261.693 105.852 259.805 105.223C257.916 104.593 256.343 103.722 255.084 102.608L258.715 95.9264C259.635 96.7495 260.676 97.4031 261.838 97.8873C263 98.3715 264.186 98.6136 265.397 98.6136C267.043 98.6136 268.375 98.202 269.391 97.3789C270.408 96.5558 271.352 95.1759 272.224 93.2391L274.475 88.1552L275.202 87.0658L289.873 52.7854H298.588L280.431 94.6917C279.22 97.5968 277.865 99.8967 276.364 101.591C274.911 103.286 273.265 104.472 271.425 105.15C269.634 105.828 267.648 106.167 265.47 106.167ZM273.459 92.9486L255.955 52.7854H265.397L279.632 86.2669L273.459 92.9486Z" fill="#7481AA"/>
<path d="M325.205 91.5687V40.7291H347.43C352.949 40.7291 357.791 41.7944 361.955 43.9248C366.119 46.0552 369.363 49.0087 371.687 52.7854C374.011 56.562 375.173 61.0165 375.173 66.1489C375.173 71.2329 374.011 75.6874 371.687 79.5125C369.363 83.2891 366.119 86.2426 361.955 88.3731C357.791 90.5035 352.949 91.5687 347.43 91.5687H325.205ZM334.647 83.5796H346.994C350.819 83.5796 354.111 82.8533 356.871 81.4008C359.679 79.9482 361.834 77.9146 363.335 75.3C364.884 72.6854 365.659 69.6351 365.659 66.1489C365.659 62.6144 364.884 59.564 363.335 56.9978C361.834 54.3832 359.679 52.3496 356.871 50.8971C354.111 49.4445 350.819 48.7182 346.994 48.7182H334.647V83.5796Z" fill="#7481AA"/>
<path d="M402.567 92.0771C398.257 92.0771 394.481 91.2298 391.237 89.5351C388.041 87.792 385.548 85.4195 383.756 82.4176C382.013 79.4156 381.141 76.0021 381.141 72.177C381.141 68.3035 381.989 64.89 383.683 61.9365C385.426 58.9345 387.799 56.5862 390.801 54.8916C393.851 53.1969 397.313 52.3496 401.187 52.3496C404.963 52.3496 408.328 53.1727 411.282 54.819C414.236 56.4652 416.56 58.7893 418.254 61.7912C419.949 64.7932 420.796 68.3278 420.796 72.3949C420.796 72.7823 420.772 73.218 420.724 73.7022C420.724 74.1864 420.699 74.6464 420.651 75.0821H388.332V69.054H415.858L412.299 70.9424C412.347 68.7151 411.887 66.7541 410.919 65.0595C409.95 63.3648 408.619 62.0333 406.924 61.065C405.278 60.0966 403.366 59.6124 401.187 59.6124C398.959 59.6124 396.999 60.0966 395.304 61.065C393.658 62.0333 392.35 63.3891 391.382 65.1321C390.462 66.8268 390.002 68.8361 390.002 71.1602V72.6128C390.002 74.9369 390.535 76.9947 391.6 78.7862C392.665 80.5777 394.166 81.9576 396.103 82.926C398.04 83.8943 400.267 84.3785 402.785 84.3785C404.963 84.3785 406.924 84.0396 408.667 83.3617C410.41 82.6839 411.96 81.6187 413.316 80.1661L418.182 85.7584C416.439 87.792 414.236 89.3656 411.573 90.4793C408.958 91.5445 405.956 92.0771 402.567 92.0771Z" fill="#7481AA"/>
<path d="M447.311 92.0771C443.243 92.0771 439.612 91.2298 436.416 89.5351C433.269 87.792 430.8 85.4195 429.008 82.4176C427.217 79.4156 426.321 76.0021 426.321 72.177C426.321 68.3035 427.217 64.89 429.008 61.9365C430.8 58.9345 433.269 56.5862 436.416 54.8916C439.612 53.1969 443.243 52.3496 447.311 52.3496C451.087 52.3496 454.404 53.1243 457.261 54.6737C460.166 56.1747 462.369 58.4019 463.87 61.3555L456.897 65.4226C455.735 63.5827 454.307 62.227 452.612 61.3555C450.966 60.4839 449.175 60.0482 447.238 60.0482C445.011 60.0482 443.001 60.5324 441.21 61.5007C439.418 62.4691 438.014 63.8732 436.997 65.7131C435.981 67.5046 435.472 69.6593 435.472 72.177C435.472 74.6948 435.981 76.8736 436.997 78.7135C438.014 80.505 439.418 81.885 441.21 82.8533C443.001 83.8217 445.011 84.3059 447.238 84.3059C449.175 84.3059 450.966 83.8701 452.612 82.9986C454.307 82.1271 455.735 80.7713 456.897 78.9314L463.87 82.9986C462.369 85.9037 460.166 88.1552 457.261 89.753C454.404 91.3024 451.087 92.0771 447.311 92.0771Z" fill="#7481AA"/>
<path d="M471.363 91.5687V37.6788H480.441V91.5687H471.363Z" fill="#7481AA"/>
<path d="M508.771 92.0771C505.478 92.0771 502.573 91.4718 500.055 90.2614C497.538 89.0025 495.577 87.1142 494.173 84.5964C492.768 82.0302 492.066 78.8104 492.066 74.9369V52.7854H501.145V73.7022C501.145 77.1884 501.92 79.803 503.469 81.546C505.067 83.2407 507.318 84.088 510.223 84.088C512.354 84.088 514.194 83.6522 515.743 82.7807C517.341 81.9092 518.576 80.6019 519.447 78.8588C520.367 77.1157 520.827 74.9611 520.827 72.3949V52.7854H529.906V91.5687H521.263V81.1103L522.788 84.3059C521.481 86.8237 519.568 88.7604 517.05 90.1161C514.533 91.4234 511.773 92.0771 508.771 92.0771Z" fill="#7481AA"/>
<path d="M556.39 92.0771C552.129 92.0771 548.837 90.9877 546.513 88.8088C544.189 86.5816 543.027 83.3133 543.027 79.0041V44.2153H552.105V78.7862C552.105 80.6261 552.565 82.0544 553.485 83.0712C554.454 84.088 555.785 84.5964 557.48 84.5964C559.513 84.5964 561.208 84.0638 562.564 82.9986L565.106 89.4625C564.04 90.334 562.733 90.9877 561.184 91.4234C559.634 91.8592 558.037 92.0771 556.39 92.0771ZM536.636 60.3387V53.0759H562.491V60.3387H536.636Z" fill="#7481AA"/>
<path d="M586.25 92.0771C581.989 92.0771 578.697 90.9877 576.373 88.8088C574.049 86.5816 572.887 83.3133 572.887 79.0041V44.2153H581.965V78.7862C581.965 80.6261 582.425 82.0544 583.345 83.0712C584.313 84.088 585.645 84.5964 587.339 84.5964C589.373 84.5964 591.068 84.0638 592.423 82.9986L594.965 89.4625C593.9 90.334 592.593 90.9877 591.043 91.4234C589.494 91.8592 587.896 92.0771 586.25 92.0771ZM566.495 60.3387V53.0759H592.351V60.3387H566.495Z" fill="#7481AA"/>
<path d="M619.386 92.0771C615.077 92.0771 611.301 91.2298 608.057 89.5351C604.861 87.792 602.367 85.4195 600.576 82.4176C598.833 79.4156 597.961 76.0021 597.961 72.177C597.961 68.3035 598.809 64.89 600.503 61.9365C602.246 58.9345 604.619 56.5862 607.621 54.8916C610.671 53.1969 614.133 52.3496 618.007 52.3496C621.783 52.3496 625.148 53.1727 628.102 54.819C631.055 56.4652 633.379 58.7893 635.074 61.7912C636.769 64.7932 637.616 68.3278 637.616 72.3949C637.616 72.7823 637.592 73.218 637.543 73.7022C637.543 74.1864 637.519 74.6464 637.471 75.0821H605.151V69.054H632.677L629.119 70.9424C629.167 68.7151 628.707 66.7541 627.739 65.0595C626.77 63.3648 625.439 62.0333 623.744 61.065C622.098 60.0966 620.185 59.6124 618.007 59.6124C615.779 59.6124 613.818 60.0966 612.124 61.065C610.477 62.0333 609.17 63.3891 608.202 65.1321C607.282 66.8268 606.822 68.8361 606.822 71.1602V72.6128C606.822 74.9369 607.354 76.9947 608.42 78.7862C609.485 80.5777 610.986 81.9576 612.923 82.926C614.859 83.8943 617.087 84.3785 619.604 84.3785C621.783 84.3785 623.744 84.0396 625.487 83.3617C627.23 82.6839 628.78 81.6187 630.135 80.1661L635.002 85.7584C633.258 87.792 631.055 89.3656 628.392 90.4793C625.778 91.5445 622.776 92.0771 619.386 92.0771Z" fill="#7481AA"/>
<path d="M646.337 91.5687V52.7854H654.979V63.4617L653.962 60.3387C655.125 57.7241 656.94 55.7389 659.41 54.3832C661.927 53.0275 665.05 52.3496 668.779 52.3496V60.9923C668.391 60.8955 668.028 60.8471 667.689 60.8471C667.35 60.7987 667.011 60.7744 666.672 60.7744C663.235 60.7744 660.499 61.7912 658.465 63.8248C656.432 65.81 655.415 68.7877 655.415 72.7581V91.5687H646.337Z" fill="#7481AA"/>
<path d="M484.58 148C483.816 148 483.169 147.632 482.64 146.897C482.14 146.133 481.949 145.075 482.067 143.723C482.125 142.87 482.346 141.782 482.728 140.459C483.11 139.137 483.581 137.799 484.139 136.447C484.727 135.065 485.315 133.904 485.903 132.963C486.667 131.758 487.52 130.979 488.461 130.626C489.401 130.273 490.606 130.097 492.076 130.097C492.165 130.097 492.209 130.141 492.209 130.229C492.209 130.376 492.12 130.538 491.944 130.714C491.532 131.067 491.062 131.684 490.533 132.566C490.033 133.419 489.548 134.374 489.078 135.433C488.607 136.491 488.196 137.505 487.843 138.475C487.784 138.681 487.652 139.078 487.446 139.666C487.241 140.254 487.049 140.9 486.873 141.606C486.697 142.282 486.608 142.914 486.608 143.502C486.608 143.972 486.697 144.369 486.873 144.693C487.049 144.987 487.343 145.134 487.755 145.134C488.314 145.104 488.916 144.766 489.563 144.119C490.21 143.443 490.856 142.591 491.503 141.562C492.15 140.533 492.767 139.489 493.355 138.431C493.943 137.343 494.457 136.373 494.898 135.521C495.369 134.639 495.707 134.021 495.913 133.669C496.354 132.963 496.824 132.361 497.324 131.861C497.823 131.332 498.397 131.067 499.043 131.067C499.279 131.067 499.631 131.082 500.102 131.111C500.572 131.111 501.013 131.111 501.425 131.111C501.866 131.111 502.16 131.096 502.307 131.067C502.189 131.126 502.013 131.258 501.777 131.464C501.542 131.64 501.366 131.846 501.248 132.081C500.778 132.993 500.308 133.948 499.837 134.947C499.367 135.947 498.896 137.123 498.426 138.475C498.367 138.681 498.22 139.078 497.985 139.666C497.779 140.254 497.588 140.9 497.412 141.606C497.236 142.282 497.147 142.914 497.147 143.502C497.147 144.208 497.265 144.707 497.5 145.001C497.765 145.295 498.088 145.442 498.47 145.442C498.999 145.442 499.587 145.236 500.234 144.825C500.91 144.384 501.513 143.855 502.042 143.237C502.953 142.179 503.673 141.077 504.203 139.93C504.761 138.754 505.143 137.873 505.349 137.285C505.29 136.961 505.232 136.608 505.173 136.226C505.143 135.844 505.129 135.462 505.129 135.08C505.129 134.551 505.173 134.007 505.261 133.448C505.378 132.89 505.54 132.346 505.746 131.817C506.128 130.876 506.672 130.303 507.377 130.097C507.495 130.068 507.598 130.053 507.686 130.053C507.804 130.023 507.921 130.009 508.039 130.009C508.597 130.009 508.965 130.2 509.141 130.582C509.347 130.964 509.45 131.42 509.45 131.949C509.45 132.478 509.391 133.007 509.274 133.536C509.156 134.036 509.038 134.433 508.921 134.727C508.715 135.286 508.48 135.829 508.215 136.359C507.951 136.858 507.701 137.358 507.466 137.858C507.466 138.034 507.51 138.284 507.598 138.607C507.921 140.018 508.642 140.724 509.759 140.724C510.435 140.724 511.14 140.401 511.875 139.754C512.287 139.401 512.654 138.96 512.978 138.431C513.33 137.873 513.639 137.358 513.904 136.888C514.051 136.653 514.139 136.594 514.168 136.711C514.227 136.829 514.256 137.02 514.256 137.285C514.256 137.579 514.227 137.917 514.168 138.299C514.109 138.681 514.007 138.99 513.86 139.225C513.419 139.989 512.963 140.577 512.493 140.989C512.022 141.371 511.493 141.679 510.905 141.915C510.67 142.003 510.42 142.076 510.156 142.135C509.891 142.194 509.641 142.223 509.406 142.223C508.7 142.223 508.054 142.032 507.466 141.65C506.907 141.238 506.496 140.606 506.231 139.754L506.099 139.313C505.805 139.813 505.467 140.386 505.085 141.033C504.702 141.679 504.335 142.267 503.982 142.797C503.659 143.326 503.409 143.708 503.233 143.943C502.233 145.207 501.145 146.207 499.969 146.941C498.823 147.676 497.603 148.044 496.31 148.044C496.163 148.044 496.016 148.044 495.869 148.044C495.722 148.044 495.575 148.029 495.428 148C494.311 147.853 493.561 147.353 493.179 146.501C492.797 145.619 492.605 144.737 492.605 143.855C492.605 143.531 492.62 143.223 492.65 142.929C492.708 142.605 492.752 142.341 492.782 142.135C492.341 142.752 491.871 143.326 491.371 143.855C490.9 144.384 490.415 144.913 489.916 145.442C488.799 146.559 487.799 147.265 486.917 147.559C486.035 147.853 485.256 148 484.58 148ZM522.051 126.569C521.286 126.305 520.904 125.805 520.904 125.07C520.904 124.394 521.169 123.703 521.698 122.998C522.256 122.263 522.859 121.792 523.506 121.587C523.653 121.528 523.77 121.498 523.859 121.498C523.976 121.498 524.094 121.498 524.211 121.498C524.711 121.498 525.123 121.645 525.446 121.939C525.769 122.233 525.931 122.571 525.931 122.954C525.931 123.483 525.652 123.924 525.093 124.276C524.652 124.218 524.226 124.32 523.814 124.585C523.403 124.85 523.035 125.173 522.712 125.555C522.418 125.937 522.198 126.275 522.051 126.569ZM514.466 148C514.084 148 513.717 147.912 513.364 147.735C513.011 147.588 512.717 147.28 512.482 146.809C512.159 146.104 511.997 145.266 511.997 144.296C511.997 143.237 512.159 142.062 512.482 140.768C512.805 139.445 513.232 138.093 513.761 136.711C513.966 136.212 514.231 135.594 514.554 134.859C514.878 134.124 515.26 133.389 515.701 132.655C516.142 131.92 516.642 131.317 517.2 130.847C517.788 130.347 518.42 130.097 519.096 130.097C519.42 130.097 519.875 130.112 520.463 130.141C521.051 130.17 521.477 130.17 521.742 130.141C521.566 130.259 521.36 130.494 521.125 130.847C520.889 131.199 520.669 131.567 520.463 131.949C520.257 132.302 520.096 132.581 519.978 132.787C519.214 134.315 518.494 135.829 517.817 137.329C517.141 138.828 516.627 140.268 516.274 141.65C516.215 141.885 516.171 142.12 516.142 142.356C516.112 142.591 516.098 142.811 516.098 143.017C516.098 143.869 516.377 144.296 516.936 144.296C517.171 144.296 517.421 144.237 517.685 144.119C517.979 143.972 518.317 143.752 518.699 143.458C519.375 142.929 519.963 142.326 520.463 141.65C521.051 140.886 521.61 140.077 522.139 139.225C522.668 138.343 523.124 137.534 523.506 136.8C523.653 136.564 523.756 136.447 523.814 136.447C523.991 136.447 524.079 136.697 524.079 137.196C524.079 137.432 524.035 137.711 523.947 138.034C523.888 138.328 523.785 138.607 523.638 138.872C523.226 139.578 522.741 140.357 522.183 141.209C521.624 142.062 521.051 142.885 520.463 143.678C520.052 144.237 519.508 144.854 518.832 145.53C518.156 146.207 517.435 146.794 516.671 147.294C515.907 147.765 515.172 148 514.466 148ZM525.525 148C524.673 148 524.026 147.662 523.585 146.986C523.379 146.662 523.232 146.28 523.144 145.839C523.056 145.398 523.012 144.942 523.012 144.472C523.012 144.002 523.041 143.531 523.1 143.061C523.159 142.561 523.232 142.076 523.32 141.606C523.467 140.842 523.629 140.151 523.805 139.533C524.011 138.887 524.217 138.269 524.423 137.681V137.637C524.188 138.078 523.894 138.563 523.541 139.092C523.188 139.592 522.938 139.96 522.791 140.195C522.585 140.518 522.424 140.68 522.306 140.68C522.189 140.68 522.13 140.548 522.13 140.283C522.13 139.695 522.306 139.048 522.659 138.343C522.894 137.873 523.218 137.27 523.629 136.535C524.041 135.771 524.467 134.947 524.908 134.066C525.349 133.184 525.731 132.331 526.054 131.508H523.1C522.953 131.508 522.924 131.39 523.012 131.155C523.1 130.92 523.232 130.7 523.409 130.494C523.585 130.259 523.717 130.141 523.805 130.141H527.157C527.48 129.377 527.848 128.554 528.259 127.672C528.7 126.79 529.185 125.967 529.714 125.202C530.273 124.409 530.875 123.762 531.522 123.262C532.169 122.762 532.86 122.513 533.595 122.513C533.918 122.513 534.315 122.513 534.785 122.513C535.285 122.513 535.594 122.498 535.711 122.468C535.094 122.88 534.374 123.703 533.551 124.938C532.727 126.143 531.831 127.878 530.861 130.141H535.314C535.403 130.141 535.373 130.259 535.226 130.494C535.079 130.7 534.888 130.92 534.653 131.155C534.447 131.39 534.241 131.508 534.036 131.508H530.243C529.861 132.478 529.435 133.536 528.965 134.683C528.524 135.829 528.112 136.961 527.73 138.078C527.377 139.166 527.113 140.165 526.936 141.077C526.819 141.635 526.76 142.15 526.76 142.62C526.76 143.737 527.113 144.296 527.818 144.296C528.289 144.296 528.847 144.061 529.494 143.59C530.141 143.12 530.787 142.473 531.434 141.65C532.022 140.886 532.58 140.063 533.11 139.181C533.668 138.299 534.139 137.49 534.521 136.755C534.638 136.55 534.741 136.447 534.829 136.447C535.006 136.447 535.094 136.682 535.094 137.152C535.094 137.387 535.05 137.667 534.962 137.99C534.903 138.284 534.785 138.578 534.609 138.872C534.197 139.578 533.712 140.357 533.154 141.209C532.595 142.032 532.022 142.855 531.434 143.678C531.022 144.208 530.479 144.81 529.802 145.486C529.156 146.162 528.45 146.75 527.686 147.25C526.951 147.75 526.231 148 525.525 148ZM544.752 148C543.752 148 543.062 147.706 542.679 147.118C542.327 146.501 542.15 145.795 542.15 145.001C542.15 144.149 542.283 143.164 542.547 142.047C542.841 140.9 543.194 139.725 543.605 138.519C544.046 137.285 544.487 136.138 544.928 135.08C545.075 134.727 545.208 134.345 545.325 133.933C545.472 133.522 545.546 133.154 545.546 132.831C545.546 132.243 545.281 131.949 544.752 131.949C544.546 131.949 544.311 131.993 544.046 132.081C543.782 132.14 543.473 132.272 543.12 132.478C542.503 132.772 541.915 133.184 541.357 133.713C540.798 134.213 540.416 134.595 540.21 134.859C539.828 135.33 539.46 135.859 539.108 136.447C538.755 137.005 538.446 137.579 538.182 138.166C537.594 139.431 537.123 140.636 536.771 141.782C536.447 142.899 536.139 143.855 535.845 144.649C535.668 145.148 535.492 145.663 535.315 146.192C535.139 146.721 534.977 147.235 534.83 147.735H530.553C530.553 147.735 530.656 147.368 530.862 146.633C531.068 145.898 531.317 145.163 531.611 144.428C532.964 140.93 534.242 137.358 535.448 133.713C536.653 130.068 538.108 126.569 539.813 123.218C540.578 121.719 541.401 120.337 542.283 119.073C543.194 117.809 544.149 116.81 545.149 116.075C546.178 115.31 547.251 114.928 548.368 114.928C549.25 114.928 549.852 115.134 550.176 115.545C550.528 115.928 550.705 116.413 550.705 117.001C550.705 117.647 550.572 118.323 550.308 119.029C550.043 119.735 549.779 120.337 549.514 120.837C548.985 121.895 548.294 123.086 547.442 124.409C546.589 125.732 545.693 126.966 544.752 128.113C544.546 128.377 544.193 128.804 543.694 129.391C543.194 129.95 542.679 130.523 542.15 131.111C541.65 131.699 541.254 132.155 540.96 132.478C541.93 131.773 542.768 131.229 543.473 130.847C544.179 130.464 544.781 130.2 545.281 130.053C546.134 129.818 546.839 129.7 547.398 129.7C549.073 129.7 549.911 130.435 549.911 131.905C549.911 132.522 549.735 133.257 549.382 134.11C549.206 134.58 548.956 135.212 548.632 136.006C548.309 136.8 547.971 137.652 547.618 138.563C547.295 139.445 547.015 140.298 546.78 141.121C546.574 141.944 546.472 142.62 546.472 143.149C546.472 143.473 546.516 143.767 546.604 144.031C546.721 144.266 546.927 144.384 547.221 144.384C547.427 144.384 547.721 144.281 548.103 144.075C548.926 143.605 549.691 142.943 550.396 142.091C551.131 141.238 551.778 140.327 552.336 139.357C552.924 138.387 553.424 137.505 553.836 136.711C553.924 136.506 554.027 136.403 554.144 136.403C554.291 136.403 554.365 136.653 554.365 137.152C554.365 137.387 554.335 137.667 554.277 137.99C554.218 138.284 554.1 138.578 553.924 138.872C553.512 139.578 552.968 140.445 552.292 141.474C551.645 142.503 550.911 143.517 550.087 144.516C549.264 145.486 548.397 146.309 547.486 146.986C546.574 147.662 545.663 148 544.752 148ZM539.681 132.169C541.151 130.435 542.635 128.583 544.135 126.613C545.663 124.614 546.927 122.586 547.927 120.528C547.986 120.381 548.118 120.087 548.324 119.646C548.529 119.205 548.72 118.72 548.897 118.191C549.073 117.633 549.161 117.162 549.161 116.78C549.161 116.28 548.97 116.031 548.588 116.031C548.206 116.031 547.75 116.295 547.221 116.824C546.721 117.353 546.207 118.059 545.678 118.941C545.002 120.058 544.311 121.351 543.605 122.821C542.9 124.262 542.209 125.79 541.533 127.407C540.886 129.024 540.269 130.611 539.681 132.169ZM588.066 148.088C586.978 148.088 586.243 147.823 585.861 147.294C585.509 146.765 585.332 146.089 585.332 145.266C585.332 144.766 585.376 144.266 585.464 143.767C585.553 143.237 585.641 142.694 585.729 142.135C585.964 140.871 586.361 139.445 586.92 137.858C587.508 136.241 588.169 134.507 588.904 132.655H576.425C576.072 133.448 575.646 134.477 575.146 135.741C574.676 136.976 574.205 138.299 573.735 139.71C573.265 141.121 572.868 142.458 572.544 143.723C572.221 144.957 572.059 145.971 572.059 146.765C572.059 147.206 572.118 147.529 572.236 147.735H566.547C566.9 146.265 567.371 144.634 567.959 142.841C568.576 141.018 569.267 139.122 570.031 137.152C570.825 135.183 571.633 133.228 572.456 131.288C573.279 129.347 574.073 127.495 574.837 125.732C575.602 123.938 576.484 122.13 577.483 120.308C577.689 119.955 577.865 119.632 578.012 119.338C578.189 119.044 578.38 118.794 578.586 118.588C577.439 118.617 576.204 118.764 574.882 119.029C573.588 119.264 572.339 119.602 571.133 120.043C569.958 120.484 568.943 120.999 568.091 121.587C567.268 122.174 566.739 122.821 566.503 123.527C566.474 123.615 566.415 123.659 566.327 123.659C566.062 123.659 565.93 123.453 565.93 123.042C565.93 122.954 565.96 122.821 566.018 122.645C566.283 121.881 566.606 121.204 566.988 120.616C567.4 120.029 567.812 119.529 568.223 119.117C569.193 118.118 570.281 117.515 571.486 117.309C572.691 117.074 573.97 116.957 575.322 116.957H585.288C584.641 117.456 583.951 118.235 583.216 119.294C582.481 120.352 581.746 121.557 581.011 122.909C580.276 124.232 579.585 125.57 578.938 126.922C578.321 128.245 577.777 129.436 577.307 130.494H589.786C590.433 128.965 591.079 127.51 591.726 126.128C592.373 124.717 592.946 123.468 593.446 122.38C593.975 121.293 594.386 120.484 594.68 119.955C595.004 119.308 595.312 118.764 595.606 118.323C595.93 117.883 596.341 117.544 596.841 117.309C597.341 117.074 598.046 116.957 598.958 116.957H601.78C601.251 117.368 600.648 118.074 599.972 119.073C599.325 120.043 598.664 121.131 597.988 122.336C597.341 123.541 596.768 124.688 596.268 125.776C595.533 127.334 594.754 129.097 593.931 131.067C593.137 133.037 592.417 135.006 591.77 136.976C591.153 138.916 590.712 140.665 590.447 142.223C590.359 142.664 590.315 143.105 590.315 143.546C590.315 144.193 590.433 144.795 590.668 145.354C590.903 145.883 591.329 146.148 591.946 146.148C592.417 146.148 592.99 145.957 593.666 145.575H593.71C593.769 145.575 593.813 145.633 593.843 145.751C593.872 145.839 593.857 145.913 593.799 145.971C593.446 146.354 592.946 146.706 592.299 147.03C591.653 147.353 590.947 147.603 590.183 147.779C589.448 147.985 588.742 148.088 588.066 148.088ZM605.117 126.569C604.353 126.305 603.971 125.805 603.971 125.07C603.971 124.394 604.235 123.703 604.765 122.998C605.323 122.263 605.926 121.792 606.572 121.587C606.719 121.528 606.837 121.498 606.925 121.498C607.043 121.498 607.16 121.498 607.278 121.498C607.778 121.498 608.189 121.645 608.513 121.939C608.836 122.233 608.998 122.571 608.998 122.954C608.998 123.483 608.718 123.924 608.16 124.276C607.719 124.218 607.293 124.32 606.881 124.585C606.47 124.85 606.102 125.173 605.779 125.555C605.485 125.937 605.264 126.275 605.117 126.569ZM597.533 148C597.151 148 596.783 147.912 596.43 147.735C596.078 147.588 595.784 147.28 595.549 146.809C595.225 146.104 595.063 145.266 595.063 144.296C595.063 143.237 595.225 142.062 595.549 140.768C595.872 139.445 596.298 138.093 596.827 136.711C597.033 136.212 597.298 135.594 597.621 134.859C597.944 134.124 598.327 133.389 598.768 132.655C599.208 131.92 599.708 131.317 600.267 130.847C600.855 130.347 601.487 130.097 602.163 130.097C602.486 130.097 602.942 130.112 603.53 130.141C604.118 130.17 604.544 130.17 604.809 130.141C604.632 130.259 604.426 130.494 604.191 130.847C603.956 131.199 603.736 131.567 603.53 131.949C603.324 132.302 603.162 132.581 603.045 132.787C602.28 134.315 601.56 135.829 600.884 137.329C600.208 138.828 599.694 140.268 599.341 141.65C599.282 141.885 599.238 142.12 599.208 142.356C599.179 142.591 599.164 142.811 599.164 143.017C599.164 143.869 599.444 144.296 600.002 144.296C600.237 144.296 600.487 144.237 600.752 144.119C601.046 143.972 601.384 143.752 601.766 143.458C602.442 142.929 603.03 142.326 603.53 141.65C604.118 140.886 604.676 140.077 605.205 139.225C605.735 138.343 606.19 137.534 606.572 136.8C606.719 136.564 606.822 136.447 606.881 136.447C607.057 136.447 607.146 136.697 607.146 137.196C607.146 137.432 607.102 137.711 607.013 138.034C606.955 138.328 606.852 138.607 606.705 138.872C606.293 139.578 605.808 140.357 605.25 141.209C604.691 142.062 604.118 142.885 603.53 143.678C603.118 144.237 602.574 144.854 601.898 145.53C601.222 146.207 600.502 146.794 599.738 147.294C598.973 147.765 598.238 148 597.533 148ZM607.357 148C606.534 148 605.917 147.706 605.505 147.118C605.094 146.501 604.888 145.677 604.888 144.649C604.888 144.502 604.888 144.355 604.888 144.208C604.888 144.061 604.903 143.914 604.932 143.767C605.079 142.65 605.329 141.385 605.682 139.974C606.064 138.563 606.505 137.079 607.004 135.521C607.298 134.639 607.666 133.536 608.107 132.214C608.577 130.861 609.121 129.421 609.738 127.892C610.356 126.334 611.032 124.791 611.767 123.262C612.531 121.734 613.369 120.352 614.28 119.117C615.191 117.853 616.147 116.839 617.146 116.075C618.175 115.31 619.263 114.928 620.409 114.928C621.35 114.928 621.997 115.163 622.35 115.634C622.702 116.075 622.879 116.604 622.879 117.221C622.879 117.868 622.761 118.529 622.526 119.205C622.291 119.852 622.056 120.396 621.821 120.837C621.291 121.895 620.601 123.086 619.748 124.409C618.896 125.732 617.999 126.966 617.058 128.113C616.5 128.848 615.809 129.671 614.986 130.582C614.163 131.493 613.384 132.331 612.649 133.095C611.943 133.86 611.429 134.389 611.105 134.683L610.4 136.711C610.194 137.27 609.988 137.931 609.782 138.696C609.606 139.46 609.444 140.224 609.297 140.989C609.18 141.724 609.077 142.37 608.989 142.929C608.959 143.046 608.945 143.164 608.945 143.282C608.945 143.399 608.945 143.502 608.945 143.59C608.945 144.472 609.283 144.913 609.959 144.913C610.37 144.913 610.885 144.722 611.502 144.34C612.09 143.987 612.649 143.531 613.178 142.973C613.736 142.385 614.133 141.944 614.368 141.65C614.956 140.886 615.515 140.077 616.044 139.225C616.573 138.343 617.029 137.534 617.411 136.8C617.558 136.564 617.661 136.447 617.72 136.447C617.896 136.447 617.984 136.697 617.984 137.196C617.984 137.432 617.94 137.711 617.852 138.034C617.793 138.328 617.69 138.607 617.543 138.872C617.132 139.578 616.647 140.357 616.088 141.209C615.53 142.062 614.956 142.885 614.368 143.678C613.927 144.266 613.31 144.898 612.516 145.575C611.723 146.251 610.87 146.824 609.959 147.294C609.048 147.765 608.18 148 607.357 148ZM611.987 132.169C613.457 130.435 614.942 128.583 616.441 126.613C617.97 124.614 619.234 122.586 620.233 120.528C620.292 120.381 620.424 120.087 620.63 119.646C620.836 119.205 621.027 118.72 621.203 118.191C621.38 117.633 621.468 117.162 621.468 116.78C621.468 116.28 621.277 116.031 620.895 116.031H620.586C620.204 116.031 619.748 116.295 619.219 116.824C618.719 117.353 618.205 118.059 617.676 118.941C616.999 120.058 616.338 121.351 615.691 122.821C615.045 124.262 614.412 125.79 613.795 127.407C613.178 129.024 612.575 130.611 611.987 132.169ZM629.364 148C628.453 148 627.821 147.647 627.468 146.941C627.144 146.236 626.983 145.369 626.983 144.34C626.983 143.399 627.071 142.473 627.247 141.562C627.336 141.15 627.424 140.739 627.512 140.327C627.63 139.886 627.762 139.431 627.909 138.96C627.409 139.871 626.88 140.753 626.321 141.606C625.792 142.458 625.248 143.208 624.69 143.855C623.749 145.001 622.75 145.957 621.691 146.721C620.662 147.485 619.634 147.867 618.605 147.867C617.782 147.867 617.076 147.574 616.488 146.986C615.93 146.368 615.65 145.31 615.65 143.811C615.65 142.282 615.915 140.709 616.444 139.092C616.973 137.476 617.708 135.976 618.649 134.595C619.619 133.184 620.751 132.052 622.044 131.199C623.367 130.347 624.807 129.921 626.365 129.921C626.865 129.921 627.409 129.994 627.997 130.141C628.585 130.288 629.129 130.567 629.629 130.979C630.128 131.361 630.466 131.905 630.643 132.61C630.672 132.552 630.702 132.508 630.731 132.478C630.79 132.449 630.834 132.419 630.863 132.39C631.275 131.743 631.745 131.199 632.274 130.758C632.803 130.317 633.391 130.097 634.038 130.097C634.361 130.097 634.817 130.112 635.405 130.141C635.993 130.17 636.419 130.17 636.684 130.141C636.537 130.259 636.331 130.494 636.066 130.847C635.831 131.199 635.611 131.567 635.405 131.949C635.199 132.302 635.038 132.581 634.92 132.787C634.126 134.315 633.406 135.829 632.759 137.329C632.113 138.828 631.613 140.268 631.26 141.65C631.172 141.944 631.113 142.223 631.084 142.488C631.054 142.723 631.04 142.958 631.04 143.193C631.04 143.958 631.289 144.34 631.789 144.34C632.26 144.34 632.848 144.046 633.553 143.458C634.582 142.635 635.479 141.606 636.243 140.371C637.037 139.137 637.727 137.946 638.315 136.8C638.433 136.594 638.536 136.491 638.624 136.491C638.8 136.491 638.889 136.741 638.889 137.24C638.889 137.476 638.844 137.74 638.756 138.034C638.698 138.328 638.595 138.607 638.448 138.872C638.036 139.578 637.492 140.445 636.816 141.474C636.169 142.503 635.434 143.517 634.611 144.516C633.788 145.486 632.921 146.309 632.01 146.986C631.128 147.662 630.246 148 629.364 148ZM620.589 144.163C620.677 144.193 620.809 144.208 620.986 144.208C621.544 144.208 622.147 143.972 622.794 143.502C623.44 143.032 624.087 142.429 624.734 141.694C625.381 140.93 625.954 140.165 626.454 139.401C627.747 137.343 628.703 135.8 629.32 134.771C629.937 133.742 630.29 133.154 630.378 133.007C630.231 132.508 629.967 132.14 629.584 131.905C629.232 131.67 628.805 131.552 628.306 131.552C627.659 131.552 626.968 131.729 626.233 132.081C625.528 132.434 624.925 132.86 624.425 133.36C623.661 134.124 622.926 135.109 622.22 136.314C621.544 137.52 620.986 138.71 620.545 139.886C620.133 141.062 619.928 142.047 619.928 142.841C619.928 143.576 620.148 144.016 620.589 144.163ZM644.033 148.044C643.092 148.044 642.416 147.647 642.004 146.853C641.681 146.148 641.519 145.31 641.519 144.34C641.519 143.252 641.681 142.047 642.004 140.724C642.328 139.401 642.769 138.049 643.327 136.667C643.533 136.167 643.797 135.535 644.121 134.771C644.474 134.007 644.885 133.257 645.355 132.522C644.944 132.875 644.459 133.169 643.9 133.404C643.342 133.61 642.798 133.713 642.269 133.713C641.857 133.713 641.519 133.654 641.255 133.536C641.019 134.007 640.637 134.771 640.108 135.829C639.579 136.888 638.873 138.137 637.992 139.578C637.903 139.725 637.815 139.725 637.727 139.578C637.668 139.401 637.639 139.166 637.639 138.872C637.639 138.637 637.668 138.387 637.727 138.122C637.786 137.858 637.874 137.608 637.992 137.373C638.285 136.814 638.579 136.241 638.873 135.653C639.167 135.036 639.432 134.492 639.667 134.021C639.902 133.551 640.035 133.257 640.064 133.14C639.535 132.875 639.138 132.508 638.873 132.037C638.609 131.537 638.477 131.052 638.477 130.582C638.477 130.112 638.579 129.685 638.785 129.303C639.02 128.921 639.358 128.627 639.799 128.421C640.064 128.333 640.314 128.289 640.549 128.289C641.196 128.289 641.725 128.495 642.137 128.906C642.107 129.024 642.078 129.156 642.048 129.303C642.048 129.421 642.048 129.553 642.048 129.7C642.048 130.611 642.416 131.288 643.151 131.729C643.886 132.169 644.679 132.331 645.532 132.214C645.943 131.626 646.414 131.111 646.943 130.67C647.472 130.229 648.045 130.009 648.663 130.009C648.986 130.009 649.442 130.023 650.03 130.053C650.647 130.082 651.088 130.082 651.352 130.053C651.176 130.17 650.97 130.406 650.735 130.758C650.5 131.111 650.279 131.479 650.074 131.861C649.868 132.243 649.706 132.537 649.589 132.743C648.795 134.271 648.06 135.8 647.384 137.329C646.708 138.828 646.193 140.268 645.841 141.65C645.782 141.915 645.723 142.164 645.664 142.4C645.635 142.605 645.62 142.826 645.62 143.061C645.62 143.943 645.914 144.384 646.502 144.384C646.914 144.384 647.501 144.09 648.266 143.502C648.942 142.943 649.545 142.326 650.074 141.65C650.662 140.886 651.22 140.063 651.749 139.181C652.278 138.299 652.734 137.49 653.116 136.755C653.263 136.52 653.366 136.403 653.425 136.403C653.601 136.403 653.69 136.667 653.69 137.196C653.69 137.402 653.66 137.652 653.601 137.946C653.543 138.24 653.44 138.519 653.293 138.784C652.852 139.519 652.352 140.327 651.793 141.209C651.235 142.062 650.662 142.899 650.074 143.723C649.692 144.252 649.148 144.854 648.442 145.53C647.766 146.207 647.031 146.794 646.237 147.294C645.473 147.794 644.738 148.044 644.033 148.044ZM652.982 156.598C652.247 156.598 651.468 156.481 650.645 156.246C649.851 156.04 649.19 155.672 648.661 155.143C648.102 154.614 647.823 153.909 647.823 153.027C647.823 152.409 648.014 151.836 648.396 151.307C648.779 150.778 649.308 150.513 649.984 150.513C650.395 150.513 650.778 150.616 651.13 150.822C651.483 151.057 651.718 151.336 651.836 151.66C651.777 151.689 651.689 151.777 651.571 151.924C651.454 152.071 651.38 152.174 651.351 152.233C651.145 152.645 651.042 153.071 651.042 153.512C651.042 154.07 651.233 154.511 651.615 154.835C652.027 155.187 652.541 155.364 653.159 155.364C653.952 155.364 654.775 155.07 655.628 154.482C656.569 153.806 657.304 152.924 657.833 151.836C658.391 150.778 658.832 149.822 659.156 148.97L661.669 142.267C661.14 142.914 660.581 143.576 659.993 144.252C659.435 144.898 659.082 145.295 658.935 145.442C657.818 146.559 656.819 147.265 655.937 147.559C655.055 147.853 654.276 148 653.6 148C652.894 148 652.291 147.691 651.792 147.074C651.321 146.456 651.086 145.56 651.086 144.384C651.086 143.796 651.174 143.046 651.351 142.135C651.527 141.224 651.777 140.254 652.1 139.225C652.424 138.166 652.791 137.138 653.203 136.138C653.644 135.109 654.114 134.198 654.614 133.404C655.378 132.199 656.231 131.42 657.171 131.067C658.112 130.714 659.303 130.538 660.743 130.538C660.861 130.538 660.919 130.597 660.919 130.714C660.919 130.832 660.831 130.979 660.655 131.155C660.243 131.508 659.744 132.125 659.156 133.007C658.568 133.889 657.994 134.859 657.436 135.918C656.907 136.976 656.466 137.99 656.113 138.96C655.878 139.636 655.643 140.43 655.408 141.341C655.202 142.253 655.099 143.046 655.099 143.723C655.099 144.193 655.158 144.575 655.275 144.869C655.422 145.134 655.643 145.266 655.937 145.266C656.407 145.266 657.054 144.913 657.877 144.208C659.112 143.179 660.229 141.915 661.228 140.415C662.228 138.916 663.08 137.358 663.786 135.741C664.197 134.801 664.535 134.007 664.8 133.36C665.064 132.684 665.358 132.14 665.682 131.729C666.005 131.317 666.461 131.023 667.049 130.847C667.637 130.641 668.43 130.538 669.43 130.538H671.238C670.679 130.891 670.121 131.552 669.562 132.522C669.004 133.463 668.475 134.58 667.975 135.874C667.593 136.814 667.196 137.843 666.784 138.96C666.402 140.077 666.005 141.209 665.594 142.356C665.241 143.414 664.859 144.575 664.447 145.839C664.036 147.074 663.565 148.279 663.036 149.455C662.507 150.66 661.89 151.704 661.184 152.586C660.185 153.82 658.965 154.79 657.524 155.496C656.084 156.231 654.57 156.598 652.982 156.598Z" fill="#7481AA"/>
<path d="M96.9088 16.5039L95.2237 28.99L82.6109 28.5129L93.9853 33.9782L89.6432 45.8087L98.3553 36.6988L108.278 44.484L102.29 33.3895L112.768 26.3764L100.355 28.6292L96.9088 16.5039Z" fill="#FCEA10"/>
<line x1="68.9584" y1="6.96515" x2="6.39185" y2="6.96514" stroke="#7481AA" stroke-width="12.5133" stroke-linecap="round"/>
<path d="M6.39185 69.5317L6.39184 6.96517" stroke="#7481AA" stroke-width="12.5133" stroke-linecap="round"/>
<line x1="645.433" y1="186.035" x2="708" y2="186.035" stroke="#7481AA" stroke-width="12.5133" stroke-linecap="round"/>
<path d="M708 123.468L708 186.035" stroke="#7481AA" stroke-width="12.5133" stroke-linecap="round"/>
</svg>
