<svg width="504" height="135" viewBox="0 0 504 135" fill="none" xmlns="http://www.w3.org/2000/svg">
<path d="M46.2942 64.5369C43.4965 64.5369 40.8182 64.1446 38.2593 63.3598C35.7005 62.541 33.6704 61.5004 32.1692 60.238L34.4722 55.069C35.9052 56.195 37.6793 57.1332 39.7947 57.8838C41.91 58.6344 44.0765 59.0097 46.2942 59.0097C48.1707 59.0097 49.689 58.805 50.849 58.3956C52.0091 57.9862 52.862 57.4403 53.4079 56.7579C53.9538 56.0414 54.2268 55.2396 54.2268 54.3526C54.2268 53.2608 53.8344 52.3908 53.0497 51.7425C52.2649 51.0601 51.2414 50.5313 49.979 50.156C48.7507 49.7466 47.369 49.3713 45.8336 49.0301C44.3324 48.6889 42.8141 48.2965 41.2788 47.853C39.7776 47.3753 38.3958 46.7783 37.1334 46.0618C35.9052 45.3112 34.8987 44.3217 34.1139 43.0935C33.3292 41.8652 32.9369 40.2958 32.9369 38.3851C32.9369 36.4404 33.4486 34.6662 34.4722 33.0627C35.5299 31.425 37.1164 30.1285 39.2317 29.1732C41.3812 28.1837 44.0936 27.689 47.369 27.689C49.5184 27.689 51.6508 27.962 53.7662 28.5079C55.8815 29.0538 57.7239 29.8385 59.2933 30.862L57.1951 36.031C55.5915 35.0757 53.9368 34.3762 52.2308 33.9327C50.5249 33.455 48.8872 33.2162 47.3178 33.2162C45.4754 33.2162 43.9742 33.438 42.8141 33.8815C41.6882 34.325 40.8523 34.9051 40.3064 35.6215C39.7947 36.338 39.5388 37.1569 39.5388 38.0781C39.5388 39.1699 39.9141 40.0569 40.6647 40.7393C41.4494 41.3876 42.4559 41.8993 43.6842 42.2746C44.9465 42.6499 46.3454 43.0252 47.8807 43.4005C49.4161 43.7417 50.9343 44.1341 52.4355 44.5776C53.9709 45.0212 55.3527 45.6012 56.5809 46.3177C57.8433 47.0342 58.8498 48.0065 59.6004 49.2348C60.3851 50.4631 60.7775 52.0155 60.7775 53.892C60.7775 55.8026 60.2487 57.5768 59.191 59.2144C58.1674 60.818 56.5809 62.1145 54.4315 63.1039C52.282 64.0593 49.5696 64.5369 46.2942 64.5369Z" fill="#7481AA"/>
<path d="M66.7605 64.0251V36.6963H73.1577V64.0251H66.7605Z" fill="#7481AA"/>
<path d="M116.048 36.3892C118.231 36.3892 120.159 36.8157 121.831 37.6687C123.537 38.5216 124.867 39.8352 125.823 41.6093C126.778 43.3494 127.256 45.6012 127.256 48.3648V64.0251H120.858V49.1836C120.858 46.7612 120.33 44.9529 119.272 43.7588C118.214 42.5646 116.696 41.9676 114.717 41.9676C113.318 41.9676 112.073 42.2746 110.981 42.8888C109.923 43.5029 109.088 44.407 108.473 45.6012C107.893 46.7953 107.603 48.3136 107.603 50.156V64.0251H101.206V49.1836C101.206 46.7612 100.677 44.9529 99.6197 43.7588C98.562 42.5646 97.0438 41.9676 95.0649 41.9676C93.666 41.9676 92.4207 42.2746 91.3289 42.8888C90.2713 43.5029 89.4354 44.407 88.8212 45.6012C88.2412 46.7953 87.9512 48.3136 87.9512 50.156V64.0251H81.554V36.6963H87.6441V43.9635L86.5694 41.814C87.4906 40.0399 88.8212 38.6922 90.5613 37.771C92.3354 36.8498 94.3484 36.3892 96.6002 36.3892C99.1591 36.3892 101.377 37.0204 103.253 38.2828C105.164 39.5452 106.426 41.4558 107.04 44.0147L104.533 43.1447C105.42 41.0976 106.887 39.4599 108.934 38.2316C110.981 37.0033 113.352 36.3892 116.048 36.3892Z" fill="#7481AA"/>
<path d="M150.579 64.3834C148.361 64.3834 146.331 63.8716 144.489 62.848C142.681 61.8245 141.231 60.2892 140.139 58.2421C139.081 56.1608 138.552 53.5337 138.552 50.3607C138.552 47.1536 139.064 44.5265 140.088 42.4794C141.145 40.4322 142.578 38.914 144.387 37.9245C146.195 36.901 148.259 36.3892 150.579 36.3892C153.274 36.3892 155.646 36.9692 157.693 38.1293C159.774 39.2893 161.412 40.9099 162.606 42.9911C163.834 45.0724 164.448 47.5289 164.448 50.3607C164.448 53.1925 163.834 55.6661 162.606 57.7815C161.412 59.8627 159.774 61.4833 157.693 62.6433C155.646 63.8034 153.274 64.3834 150.579 64.3834ZM135.43 73.9536V36.6963H141.521V43.1447L141.316 50.4119L141.828 57.6791V73.9536H135.43ZM149.863 58.9074C151.398 58.9074 152.763 58.5662 153.957 57.8838C155.185 57.2015 156.157 56.212 156.874 54.9155C157.59 53.619 157.949 52.1007 157.949 50.3607C157.949 48.5865 157.59 47.0683 156.874 45.8059C156.157 44.5094 155.185 43.52 153.957 42.8376C152.763 42.1552 151.398 41.814 149.863 41.814C148.327 41.814 146.945 42.1552 145.717 42.8376C144.489 43.52 143.517 44.5094 142.8 45.8059C142.084 47.0683 141.725 48.5865 141.725 50.3607C141.725 52.1007 142.084 53.619 142.8 54.9155C143.517 56.212 144.489 57.2015 145.717 57.8838C146.945 58.5662 148.327 58.9074 149.863 58.9074Z" fill="#7481AA"/>
<path d="M170.515 64.0251V26.0513H176.912V64.0251H170.515Z" fill="#7481AA"/>
<path d="M187.56 74.3118C186.23 74.3118 184.899 74.0901 183.569 73.6465C182.238 73.203 181.129 72.5889 180.242 71.8041L182.801 67.0958C183.449 67.6758 184.183 68.1364 185.002 68.4776C185.82 68.8188 186.656 68.9894 187.509 68.9894C188.669 68.9894 189.608 68.6994 190.324 68.1193C191.041 67.5393 191.706 66.567 192.32 65.2022L193.906 61.6198L194.418 60.8521L204.756 36.6963H210.897L198.103 66.2258C197.25 68.2729 196.295 69.8935 195.237 71.0877C194.214 72.2818 193.054 73.1177 191.757 73.5954C190.495 74.073 189.096 74.3118 187.56 74.3118ZM193.19 64.9975L180.856 36.6963H187.509L197.54 60.2892L193.19 64.9975Z" fill="#7481AA"/>
<path d="M229.654 64.0251V28.2008H245.314C249.204 28.2008 252.615 28.9514 255.55 30.4526C258.484 31.9538 260.77 34.035 262.407 36.6963C264.045 39.3575 264.864 42.4964 264.864 46.113C264.864 49.6954 264.045 52.8343 262.407 55.5297C260.77 58.1909 258.484 60.2721 255.55 61.7733C252.615 63.2745 249.204 64.0251 245.314 64.0251H229.654ZM236.307 58.3956H245.007C247.702 58.3956 250.022 57.8838 251.967 56.8603C253.946 55.8367 255.464 54.4037 256.522 52.5613C257.614 50.719 258.16 48.5695 258.16 46.113C258.16 43.6223 257.614 41.4729 256.522 39.6646C255.464 37.8222 253.946 36.3892 251.967 35.3657C250.022 34.3421 247.702 33.8303 245.007 33.8303H236.307V58.3956Z" fill="#7481AA"/>
<path d="M284.167 64.3834C281.13 64.3834 278.469 63.7863 276.183 62.5922C273.931 61.3639 272.174 59.6921 270.912 57.5768C269.683 55.4614 269.069 53.0561 269.069 50.3607C269.069 47.6312 269.666 45.2259 270.86 43.1447C272.089 41.0293 273.761 39.3746 275.876 38.1804C278.025 36.9863 280.465 36.3892 283.194 36.3892C285.856 36.3892 288.227 36.9692 290.308 38.1293C292.389 39.2893 294.027 40.927 295.221 43.0423C296.415 45.1576 297.012 47.6483 297.012 50.5142C297.012 50.7872 296.995 51.0943 296.961 51.4354C296.961 51.7766 296.944 52.1007 296.91 52.4078H274.136V48.1601H293.532L291.024 49.4907C291.059 47.9212 290.734 46.5394 290.052 45.3453C289.37 44.1512 288.431 43.2129 287.237 42.5305C286.077 41.8482 284.73 41.507 283.194 41.507C281.625 41.507 280.243 41.8482 279.049 42.5305C277.889 43.2129 276.968 44.1682 276.285 45.3965C275.637 46.5906 275.313 48.0065 275.313 49.6442V50.6678C275.313 52.3055 275.688 53.7555 276.439 55.0179C277.189 56.2803 278.247 57.2526 279.612 57.935C280.977 58.6174 282.546 58.9586 284.32 58.9586C285.855 58.9586 287.237 58.7197 288.466 58.2421C289.694 57.7644 290.786 57.0138 291.741 55.9902L295.17 59.9309C293.942 61.3639 292.389 62.4728 290.513 63.2575C288.67 64.0081 286.555 64.3834 284.167 64.3834Z" fill="#7481AA"/>
<path d="M315.696 64.3834C312.83 64.3834 310.271 63.7863 308.019 62.5922C305.801 61.3639 304.061 59.6921 302.799 57.5768C301.537 55.4614 300.905 53.0561 300.905 50.3607C300.905 47.6312 301.537 45.2259 302.799 43.1447C304.061 41.0293 305.801 39.3746 308.019 38.1804C310.271 36.9863 312.83 36.3892 315.696 36.3892C318.357 36.3892 320.694 36.9351 322.707 38.0269C324.754 39.0846 326.306 40.654 327.364 42.7352L322.451 45.6012C321.632 44.3047 320.626 43.3494 319.432 42.7352C318.272 42.1211 317.009 41.814 315.644 41.814C314.075 41.814 312.659 42.1552 311.397 42.8376C310.134 43.52 309.145 44.5094 308.428 45.8059C307.712 47.0683 307.354 48.5865 307.354 50.3607C307.354 52.1349 307.712 53.6702 308.428 54.9667C309.145 56.2291 310.134 57.2015 311.397 57.8838C312.659 58.5662 314.075 58.9074 315.644 58.9074C317.009 58.9074 318.272 58.6003 319.432 57.9862C320.626 57.372 321.632 56.4167 322.451 55.1202L327.364 57.9862C326.306 60.0333 324.754 61.6198 322.707 62.7457C320.694 63.8375 318.357 64.3834 315.696 64.3834Z" fill="#7481AA"/>
<path d="M332.644 64.0251V26.0513H339.041V64.0251H332.644Z" fill="#7481AA"/>
<path d="M359.004 64.3834C356.684 64.3834 354.637 63.9569 352.863 63.1039C351.088 62.2169 349.707 60.8862 348.717 59.1121C347.728 57.3038 347.233 55.0349 347.233 52.3055V36.6963H353.63V51.4354C353.63 53.892 354.176 55.7344 355.268 56.9626C356.394 58.1568 357.98 58.7538 360.027 58.7538C361.529 58.7538 362.825 58.4468 363.917 57.8326C365.043 57.2185 365.913 56.2973 366.527 55.069C367.175 53.8408 367.499 52.3225 367.499 50.5142V36.6963H373.897V64.0251H367.807V56.6556L368.881 58.9074C367.96 60.6815 366.612 62.0463 364.838 63.0016C363.064 63.9228 361.119 64.3834 359.004 64.3834Z" fill="#7481AA"/>
<path d="M392.559 64.3834C389.557 64.3834 387.237 63.6157 385.599 62.0804C383.961 60.5109 383.143 58.2079 383.143 55.1714V30.6573H389.54V55.0179C389.54 56.3144 389.864 57.3209 390.512 58.0374C391.195 58.7538 392.133 59.1121 393.327 59.1121C394.76 59.1121 395.954 58.7368 396.909 57.9862L398.701 62.541C397.95 63.1551 397.029 63.6157 395.937 63.9228C394.845 64.2298 393.719 64.3834 392.559 64.3834ZM378.639 42.0188V36.901H396.858V42.0188H378.639Z" fill="#7481AA"/>
<path d="M413.6 64.3834C410.598 64.3834 408.278 63.6157 406.64 62.0804C405.002 60.5109 404.183 58.2079 404.183 55.1714V30.6573H410.581V55.0179C410.581 56.3144 410.905 57.3209 411.553 58.0374C412.235 58.7538 413.174 59.1121 414.368 59.1121C415.801 59.1121 416.995 58.7368 417.95 57.9862L419.741 62.541C418.991 63.1551 418.07 63.6157 416.978 63.9228C415.886 64.2298 414.76 64.3834 413.6 64.3834ZM399.68 42.0188V36.901H417.899V42.0188H399.68Z" fill="#7481AA"/>
<path d="M436.95 64.3834C433.913 64.3834 431.252 63.7863 428.966 62.5922C426.714 61.3639 424.957 59.6921 423.695 57.5768C422.467 55.4614 421.852 53.0561 421.852 50.3607C421.852 47.6312 422.45 45.2259 423.644 43.1447C424.872 41.0293 426.544 39.3746 428.659 38.1804C430.809 36.9863 433.248 36.3892 435.977 36.3892C438.639 36.3892 441.01 36.9692 443.091 38.1293C445.172 39.2893 446.81 40.927 448.004 43.0423C449.198 45.1576 449.795 47.6483 449.795 50.5142C449.795 50.7872 449.778 51.0943 449.744 51.4354C449.744 51.7766 449.727 52.1007 449.693 52.4078H426.919V48.1601H446.315L443.808 49.4907C443.842 47.9212 443.518 46.5394 442.835 45.3453C442.153 44.1512 441.215 43.2129 440.021 42.5305C438.861 41.8482 437.513 41.507 435.977 41.507C434.408 41.507 433.026 41.8482 431.832 42.5305C430.672 43.2129 429.751 44.1682 429.069 45.3965C428.42 46.5906 428.096 48.0065 428.096 49.6442V50.6678C428.096 52.3055 428.471 53.7555 429.222 55.0179C429.973 56.2803 431.03 57.2526 432.395 57.935C433.76 58.6174 435.329 58.9586 437.103 58.9586C438.639 58.9586 440.021 58.7197 441.249 58.2421C442.477 57.7644 443.569 57.0138 444.524 55.9902L447.953 59.9309C446.725 61.3639 445.172 62.4728 443.296 63.2575C441.453 64.0081 439.338 64.3834 436.95 64.3834Z" fill="#7481AA"/>
<path d="M455.94 64.0251V36.6963H462.03V44.2194L461.314 42.0188C462.133 40.1764 463.412 38.7775 465.152 37.8222C466.927 36.8669 469.127 36.3892 471.754 36.3892V42.4794C471.481 42.4111 471.225 42.377 470.987 42.377C470.748 42.3429 470.509 42.3258 470.27 42.3258C467.848 42.3258 465.92 43.0423 464.487 44.4753C463.054 45.8741 462.338 47.9724 462.338 50.7701V64.0251H455.94Z" fill="#7481AA"/>
<path d="M341.958 104.194C341.419 104.194 340.964 103.935 340.591 103.417C340.238 102.879 340.104 102.133 340.187 101.18C340.228 100.579 340.383 99.8129 340.653 98.8807C340.922 97.9486 341.254 97.006 341.647 96.0532C342.061 95.0796 342.476 94.2613 342.89 93.5985C343.429 92.7492 344.029 92.2002 344.692 91.9516C345.355 91.7031 346.204 91.5788 347.24 91.5788C347.302 91.5788 347.333 91.6098 347.333 91.672C347.333 91.7756 347.271 91.8895 347.147 92.0138C346.857 92.2624 346.525 92.6974 346.153 93.3188C345.8 93.9195 345.459 94.5928 345.127 95.3385C344.796 96.0842 344.506 96.7989 344.257 97.4825C344.216 97.6275 344.123 97.9071 343.978 98.3214C343.833 98.7357 343.698 99.1914 343.574 99.6886C343.449 100.165 343.387 100.61 343.387 101.025C343.387 101.356 343.449 101.636 343.574 101.864C343.698 102.071 343.905 102.174 344.195 102.174C344.589 102.154 345.013 101.915 345.469 101.46C345.925 100.983 346.38 100.383 346.836 99.6575C347.292 98.9325 347.727 98.1971 348.141 97.4514C348.555 96.685 348.918 96.0014 349.229 95.4006C349.56 94.7792 349.798 94.3442 349.943 94.0956C350.254 93.5985 350.586 93.1738 350.938 92.8217C351.29 92.4488 351.694 92.2624 352.149 92.2624C352.315 92.2624 352.564 92.2727 352.895 92.2934C353.227 92.2934 353.537 92.2934 353.827 92.2934C354.138 92.2934 354.345 92.2831 354.449 92.2624C354.366 92.3038 354.242 92.397 354.076 92.542C353.91 92.6663 353.786 92.8113 353.703 92.977C353.372 93.6192 353.04 94.2924 352.709 94.9967C352.377 95.701 352.046 96.5296 351.714 97.4825C351.673 97.6275 351.569 97.9071 351.404 98.3214C351.259 98.7357 351.124 99.1914 351 99.6886C350.876 100.165 350.813 100.61 350.813 101.025C350.813 101.522 350.896 101.874 351.062 102.081C351.248 102.288 351.476 102.392 351.746 102.392C352.118 102.392 352.533 102.247 352.988 101.957C353.465 101.646 353.89 101.273 354.262 100.838C354.905 100.093 355.412 99.3157 355.785 98.5079C356.178 97.6793 356.448 97.0578 356.593 96.6435C356.551 96.4157 356.51 96.1671 356.469 95.8978C356.448 95.6285 356.437 95.3592 356.437 95.0899C356.437 94.7171 356.469 94.3338 356.531 93.9403C356.614 93.5467 356.727 93.1635 356.872 92.7906C357.142 92.1277 357.525 91.7238 358.022 91.5788C358.105 91.5581 358.177 91.5477 358.24 91.5477C358.322 91.527 358.405 91.5166 358.488 91.5166C358.882 91.5166 359.141 91.6513 359.265 91.9206C359.41 92.1899 359.483 92.5109 359.483 92.8838C359.483 93.2567 359.441 93.6295 359.358 94.0024C359.275 94.3546 359.192 94.6342 359.11 94.8413C358.965 95.2349 358.799 95.6182 358.612 95.991C358.426 96.3432 358.25 96.6953 358.084 97.0475C358.084 97.1718 358.115 97.3478 358.177 97.5757C358.405 98.57 358.913 99.0672 359.7 99.0672C360.176 99.0672 360.674 98.8393 361.191 98.3836C361.481 98.135 361.74 97.8243 361.968 97.4514C362.217 97.0578 362.434 96.6953 362.621 96.3639C362.724 96.1982 362.787 96.1567 362.807 96.2396C362.849 96.3225 362.869 96.4571 362.869 96.6435C362.869 96.8507 362.849 97.0889 362.807 97.3582C362.766 97.6275 362.693 97.845 362.59 98.0107C362.279 98.5493 361.958 98.9636 361.626 99.2536C361.295 99.5229 360.922 99.7404 360.508 99.9061C360.342 99.9683 360.166 100.02 359.98 100.061C359.793 100.103 359.617 100.124 359.451 100.124C358.954 100.124 358.499 99.989 358.084 99.7197C357.691 99.4297 357.401 98.9843 357.214 98.3836L357.121 98.0729C356.914 98.425 356.676 98.8289 356.406 99.2847C356.137 99.7404 355.878 100.155 355.63 100.528C355.402 100.9 355.226 101.17 355.101 101.335C354.397 102.226 353.631 102.93 352.802 103.448C351.994 103.966 351.134 104.225 350.223 104.225C350.119 104.225 350.016 104.225 349.912 104.225C349.809 104.225 349.705 104.215 349.602 104.194C348.814 104.09 348.286 103.738 348.017 103.138C347.748 102.516 347.613 101.895 347.613 101.273C347.613 101.045 347.623 100.828 347.644 100.621C347.685 100.393 347.717 100.206 347.737 100.061C347.427 100.496 347.095 100.9 346.743 101.273C346.411 101.646 346.07 102.019 345.718 102.392C344.93 103.179 344.226 103.676 343.605 103.883C342.983 104.09 342.434 104.194 341.958 104.194ZM368.362 89.093C367.823 88.9066 367.554 88.5544 367.554 88.0366C367.554 87.5601 367.74 87.0733 368.113 86.5762C368.507 86.0583 368.931 85.7269 369.387 85.5819C369.491 85.5404 369.573 85.5197 369.636 85.5197C369.718 85.5197 369.801 85.5197 369.884 85.5197C370.236 85.5197 370.526 85.6233 370.754 85.8304C370.982 86.0376 371.096 86.2758 371.096 86.5451C371.096 86.918 370.899 87.2287 370.506 87.4773C370.195 87.4358 369.894 87.5083 369.604 87.6948C369.314 87.8812 369.056 88.1091 368.828 88.3783C368.621 88.6476 368.465 88.8859 368.362 89.093ZM363.017 104.194C362.748 104.194 362.489 104.132 362.24 104.008C361.992 103.904 361.785 103.687 361.619 103.355C361.391 102.858 361.277 102.268 361.277 101.584C361.277 100.838 361.391 100.01 361.619 99.0982C361.847 98.1661 362.147 97.2132 362.52 96.2396C362.665 95.8874 362.851 95.4524 363.079 94.9346C363.307 94.4167 363.576 93.8988 363.887 93.381C364.198 92.8631 364.55 92.4384 364.944 92.107C365.358 91.7549 365.803 91.5788 366.28 91.5788C366.508 91.5788 366.829 91.5891 367.243 91.6098C367.657 91.6306 367.958 91.6306 368.144 91.6098C368.02 91.6927 367.875 91.8584 367.709 92.107C367.543 92.3556 367.388 92.6145 367.243 92.8838C367.098 93.1324 366.984 93.3292 366.901 93.4742C366.363 94.5513 365.855 95.6182 365.379 96.6746C364.902 97.7311 364.54 98.7461 364.291 99.7197C364.25 99.8854 364.219 100.051 364.198 100.217C364.177 100.383 364.167 100.538 364.167 100.683C364.167 101.284 364.364 101.584 364.757 101.584C364.923 101.584 365.099 101.543 365.285 101.46C365.493 101.356 365.731 101.201 366 100.994C366.477 100.621 366.891 100.196 367.243 99.7197C367.657 99.1811 368.051 98.6114 368.424 98.0107C368.797 97.3893 369.118 96.8196 369.387 96.3017C369.491 96.136 369.563 96.0532 369.604 96.0532C369.729 96.0532 369.791 96.2292 369.791 96.5814C369.791 96.7471 369.76 96.9439 369.698 97.1718C369.656 97.3789 369.584 97.5757 369.48 97.7621C369.19 98.2593 368.848 98.8082 368.455 99.409C368.061 100.01 367.657 100.59 367.243 101.149C366.953 101.543 366.57 101.978 366.093 102.454C365.617 102.93 365.109 103.345 364.571 103.697C364.032 104.028 363.514 104.194 363.017 104.194ZM370.81 104.194C370.209 104.194 369.754 103.956 369.443 103.479C369.298 103.252 369.194 102.982 369.132 102.672C369.07 102.361 369.039 102.04 369.039 101.708C369.039 101.377 369.06 101.045 369.101 100.714C369.142 100.362 369.194 100.02 369.256 99.6886C369.36 99.15 369.474 98.6632 369.598 98.2282C369.743 97.7725 369.888 97.3375 370.033 96.9232V96.8921C369.867 97.2028 369.66 97.5446 369.412 97.9175C369.163 98.2696 368.987 98.5286 368.884 98.6943C368.739 98.9222 368.625 99.0361 368.542 99.0361C368.459 99.0361 368.417 98.9429 368.417 98.7564C368.417 98.3421 368.542 97.8864 368.79 97.3893C368.956 97.0578 369.184 96.6332 369.474 96.1153C369.764 95.5767 370.064 94.9967 370.375 94.3753C370.686 93.7538 370.955 93.1531 371.183 92.5731H369.101C368.997 92.5731 368.977 92.4902 369.039 92.3245C369.101 92.1588 369.194 92.0034 369.319 91.8584C369.443 91.6927 369.536 91.6098 369.598 91.6098H371.96C372.188 91.0713 372.446 90.4913 372.736 89.8698C373.047 89.2484 373.389 88.6684 373.762 88.1298C374.155 87.5705 374.58 87.1147 375.036 86.7626C375.492 86.4104 375.978 86.2344 376.496 86.2344C376.724 86.2344 377.004 86.2344 377.335 86.2344C377.687 86.2344 377.905 86.224 377.988 86.2033C377.553 86.4933 377.045 87.0733 376.465 87.9433C375.885 88.7926 375.253 90.0148 374.57 91.6098H377.708C377.77 91.6098 377.749 91.6927 377.646 91.8584C377.542 92.0034 377.408 92.1588 377.242 92.3245C377.097 92.4902 376.952 92.5731 376.807 92.5731H374.135C373.865 93.2567 373.565 94.0024 373.234 94.8103C372.923 95.6182 372.633 96.4157 372.364 97.2028C372.115 97.9693 371.929 98.6736 371.804 99.3157C371.721 99.7093 371.68 100.072 371.68 100.403C371.68 101.19 371.929 101.584 372.426 101.584C372.757 101.584 373.151 101.418 373.606 101.087C374.062 100.755 374.518 100.3 374.974 99.7197C375.388 99.1811 375.782 98.6011 376.154 97.9796C376.548 97.3582 376.879 96.7885 377.149 96.2707C377.232 96.1257 377.304 96.0532 377.366 96.0532C377.491 96.0532 377.553 96.2189 377.553 96.5503C377.553 96.716 377.522 96.9128 377.459 97.1407C377.418 97.3478 377.335 97.555 377.211 97.7621C376.921 98.2593 376.579 98.8082 376.185 99.409C375.792 99.989 375.388 100.569 374.974 101.149C374.684 101.522 374.3 101.947 373.824 102.423C373.368 102.899 372.871 103.314 372.333 103.666C371.815 104.018 371.307 104.194 370.81 104.194ZM384.358 104.194C383.654 104.194 383.167 103.987 382.898 103.573C382.649 103.138 382.525 102.64 382.525 102.081C382.525 101.48 382.618 100.786 382.805 99.9993C383.012 99.1914 383.26 98.3629 383.55 97.5136C383.861 96.6435 384.172 95.8357 384.482 95.0899C384.586 94.8413 384.679 94.5721 384.762 94.2821C384.866 93.992 384.917 93.7331 384.917 93.5052C384.917 93.091 384.731 92.8838 384.358 92.8838C384.213 92.8838 384.047 92.9149 383.861 92.977C383.675 93.0185 383.457 93.1117 383.209 93.2567C382.773 93.4638 382.359 93.7538 381.966 94.1267C381.572 94.4788 381.303 94.7481 381.158 94.9346C380.888 95.266 380.63 95.6389 380.381 96.0532C380.132 96.4467 379.915 96.8507 379.728 97.265C379.314 98.1557 378.983 99.005 378.734 99.8129C378.506 100.6 378.289 101.273 378.082 101.833C377.957 102.185 377.833 102.547 377.709 102.92C377.584 103.293 377.471 103.655 377.367 104.008H374.353C374.353 104.008 374.425 103.749 374.57 103.231C374.715 102.713 374.892 102.195 375.099 101.677C376.052 99.2122 376.953 96.6953 377.802 94.1267C378.651 91.5581 379.677 89.093 380.878 86.7315C381.417 85.6751 381.997 84.7015 382.618 83.8107C383.26 82.92 383.934 82.2157 384.638 81.6978C385.363 81.1593 386.119 80.89 386.906 80.89C387.528 80.89 387.952 81.035 388.18 81.325C388.429 81.5943 388.553 81.9361 388.553 82.3504C388.553 82.8061 388.46 83.2825 388.273 83.7797C388.087 84.2768 387.9 84.7015 387.714 85.0536C387.341 85.7994 386.854 86.6383 386.254 87.5705C385.653 88.5026 385.021 89.3727 384.358 90.1805C384.213 90.367 383.965 90.6673 383.612 91.0816C383.26 91.4752 382.898 91.8791 382.525 92.2934C382.173 92.7077 381.893 93.0288 381.686 93.2567C382.37 92.7595 382.96 92.3763 383.457 92.107C383.954 91.8377 384.379 91.6513 384.731 91.5477C385.332 91.382 385.829 91.2991 386.222 91.2991C387.403 91.2991 387.994 91.817 387.994 92.8527C387.994 93.2877 387.869 93.8056 387.621 94.4063C387.496 94.7378 387.32 95.1831 387.093 95.7424C386.865 96.3017 386.626 96.9025 386.378 97.5446C386.15 98.1661 385.953 98.7668 385.787 99.3468C385.642 99.9268 385.57 100.403 385.57 100.776C385.57 101.004 385.601 101.211 385.663 101.398C385.746 101.563 385.891 101.646 386.098 101.646C386.243 101.646 386.45 101.574 386.72 101.429C387.3 101.097 387.838 100.631 388.335 100.03C388.853 99.4297 389.309 98.7875 389.703 98.1039C390.117 97.4203 390.469 96.7989 390.759 96.2396C390.821 96.0946 390.894 96.0221 390.977 96.0221C391.08 96.0221 391.132 96.1982 391.132 96.5503C391.132 96.716 391.111 96.9128 391.07 97.1407C391.028 97.3478 390.945 97.555 390.821 97.7621C390.531 98.2593 390.148 98.8704 389.672 99.5954C389.216 100.32 388.698 101.035 388.118 101.739C387.538 102.423 386.927 103.003 386.285 103.479C385.642 103.956 385 104.194 384.358 104.194ZM380.785 93.0392C381.821 91.817 382.867 90.512 383.923 89.1241C385 87.7155 385.891 86.2862 386.595 84.8361C386.637 84.7325 386.73 84.5254 386.875 84.2147C387.02 83.904 387.155 83.5622 387.279 83.1893C387.403 82.7957 387.465 82.4643 387.465 82.195C387.465 81.8428 387.331 81.6668 387.061 81.6668C386.792 81.6668 386.471 81.8532 386.098 82.2261C385.746 82.5989 385.384 83.0961 385.011 83.7175C384.534 84.5047 384.047 85.4161 383.55 86.4519C383.053 87.4669 382.566 88.5441 382.09 89.6834C381.634 90.8227 381.199 91.9413 380.785 93.0392ZM414.88 104.256C414.113 104.256 413.595 104.07 413.326 103.697C413.078 103.324 412.953 102.848 412.953 102.268C412.953 101.915 412.984 101.563 413.046 101.211C413.109 100.838 413.171 100.455 413.233 100.061C413.399 99.1707 413.678 98.1661 414.072 97.0475C414.486 95.9082 414.952 94.686 415.47 93.381H406.677C406.428 93.9403 406.128 94.6653 405.776 95.556C405.444 96.426 405.113 97.3582 404.781 98.3525C404.45 99.3468 404.17 100.289 403.942 101.18C403.714 102.05 403.601 102.765 403.601 103.324C403.601 103.635 403.642 103.863 403.725 104.008H399.717C399.965 102.972 400.297 101.822 400.711 100.559C401.146 99.2743 401.633 97.9382 402.171 96.5503C402.731 95.1624 403.3 93.7849 403.88 92.4177C404.46 91.0505 405.02 89.7455 405.558 88.5026C406.097 87.239 406.718 85.9651 407.422 84.6808C407.567 84.4322 407.692 84.2043 407.795 83.9972C407.92 83.79 408.054 83.614 408.199 83.4689C407.391 83.4897 406.521 83.5932 405.589 83.7797C404.678 83.9454 403.797 84.1836 402.948 84.4943C402.119 84.805 401.405 85.1676 400.804 85.5819C400.224 85.9961 399.851 86.4519 399.685 86.949C399.665 87.0112 399.623 87.0422 399.561 87.0422C399.375 87.0422 399.282 86.8972 399.282 86.6072C399.282 86.5451 399.302 86.4519 399.344 86.3276C399.53 85.789 399.758 85.3126 400.027 84.8983C400.317 84.484 400.607 84.1318 400.897 83.8418C401.581 83.1375 402.347 82.7129 403.197 82.5679C404.046 82.4021 404.947 82.3193 405.9 82.3193H412.922C412.466 82.6714 411.98 83.2204 411.462 83.9661C410.944 84.7118 410.426 85.5611 409.908 86.514C409.39 87.4462 408.904 88.3887 408.448 89.3416C408.013 90.2737 407.63 91.1127 407.298 91.8584H416.092C416.547 90.7813 417.003 89.7559 417.459 88.7823C417.914 87.788 418.318 86.9076 418.671 86.1412C419.043 85.3747 419.333 84.805 419.541 84.4322C419.768 83.9765 419.986 83.5932 420.193 83.2825C420.421 82.9718 420.711 82.7336 421.063 82.5679C421.415 82.4021 421.912 82.3193 422.555 82.3193H424.543C424.17 82.6093 423.746 83.1064 423.269 83.8107C422.813 84.4943 422.347 85.2608 421.871 86.1101C421.415 86.9594 421.011 87.7673 420.659 88.5337C420.141 89.6316 419.592 90.8745 419.012 92.2624C418.453 93.6503 417.946 95.0381 417.49 96.426C417.055 97.7932 416.744 99.0257 416.558 100.124C416.495 100.434 416.464 100.745 416.464 101.056C416.464 101.512 416.547 101.936 416.713 102.33C416.879 102.703 417.179 102.889 417.614 102.889C417.946 102.889 418.349 102.754 418.826 102.485H418.857C418.898 102.485 418.929 102.527 418.95 102.609C418.971 102.672 418.961 102.723 418.919 102.765C418.671 103.034 418.318 103.283 417.863 103.51C417.407 103.738 416.91 103.914 416.371 104.039C415.853 104.184 415.356 104.256 414.88 104.256ZM426.895 89.093C426.356 88.9066 426.087 88.5544 426.087 88.0366C426.087 87.5601 426.274 87.0733 426.646 86.5762C427.04 86.0583 427.465 85.7269 427.92 85.5819C428.024 85.5404 428.107 85.5197 428.169 85.5197C428.252 85.5197 428.335 85.5197 428.417 85.5197C428.77 85.5197 429.06 85.6233 429.288 85.8304C429.515 86.0376 429.629 86.2758 429.629 86.5451C429.629 86.918 429.433 87.2287 429.039 87.4773C428.728 87.4358 428.428 87.5083 428.138 87.6948C427.848 87.8812 427.589 88.1091 427.361 88.3783C427.154 88.6476 426.999 88.8859 426.895 89.093ZM421.551 104.194C421.281 104.194 421.022 104.132 420.774 104.008C420.525 103.904 420.318 103.687 420.152 103.355C419.924 102.858 419.811 102.268 419.811 101.584C419.811 100.838 419.924 100.01 420.152 99.0982C420.38 98.1661 420.681 97.2132 421.053 96.2396C421.198 95.8874 421.385 95.4524 421.613 94.9346C421.841 94.4167 422.11 93.8988 422.421 93.381C422.731 92.8631 423.083 92.4384 423.477 92.107C423.891 91.7549 424.337 91.5788 424.813 91.5788C425.041 91.5788 425.362 91.5891 425.776 91.6098C426.191 91.6306 426.491 91.6306 426.677 91.6098C426.553 91.6927 426.408 91.8584 426.242 92.107C426.077 92.3556 425.921 92.6145 425.776 92.8838C425.631 93.1324 425.517 93.3292 425.435 93.4742C424.896 94.5513 424.388 95.6182 423.912 96.6746C423.436 97.7311 423.073 98.7461 422.824 99.7197C422.783 99.8854 422.752 100.051 422.731 100.217C422.711 100.383 422.7 100.538 422.7 100.683C422.7 101.284 422.897 101.584 423.291 101.584C423.456 101.584 423.632 101.543 423.819 101.46C424.026 101.356 424.264 101.201 424.533 100.994C425.01 100.621 425.424 100.196 425.776 99.7197C426.191 99.1811 426.584 98.6114 426.957 98.0107C427.33 97.3893 427.651 96.8196 427.92 96.3017C428.024 96.136 428.096 96.0532 428.138 96.0532C428.262 96.0532 428.324 96.2292 428.324 96.5814C428.324 96.7471 428.293 96.9439 428.231 97.1718C428.19 97.3789 428.117 97.5757 428.014 97.7621C427.724 98.2593 427.382 98.8082 426.988 99.409C426.595 100.01 426.191 100.59 425.776 101.149C425.486 101.543 425.103 101.978 424.627 102.454C424.15 102.93 423.643 103.345 423.104 103.697C422.566 104.028 422.048 104.194 421.551 104.194ZM428.473 104.194C427.893 104.194 427.458 103.987 427.168 103.573C426.878 103.138 426.733 102.558 426.733 101.833C426.733 101.729 426.733 101.625 426.733 101.522C426.733 101.418 426.744 101.315 426.764 101.211C426.868 100.424 427.044 99.5332 427.293 98.5389C427.562 97.5446 427.873 96.4985 428.225 95.4006C428.432 94.7792 428.691 94.0024 429.002 93.0702C429.333 92.1174 429.716 91.1023 430.151 90.0252C430.586 88.9273 431.063 87.8398 431.581 86.7626C432.119 85.6854 432.709 84.7118 433.352 83.8418C433.994 82.9511 434.667 82.2364 435.371 81.6978C436.096 81.1593 436.863 80.89 437.671 80.89C438.334 80.89 438.789 81.0557 439.038 81.3871C439.286 81.6978 439.411 82.0707 439.411 82.5057C439.411 82.9614 439.328 83.4275 439.162 83.904C438.996 84.3597 438.831 84.7429 438.665 85.0536C438.292 85.7994 437.805 86.6383 437.205 87.5705C436.604 88.5026 435.972 89.3727 435.309 90.1805C434.916 90.6984 434.429 91.2784 433.849 91.9206C433.269 92.5627 432.72 93.1531 432.202 93.6917C431.705 94.2303 431.342 94.6031 431.114 94.8103L430.617 96.2396C430.472 96.6332 430.327 97.0993 430.182 97.6378C430.058 98.1764 429.944 98.715 429.84 99.2536C429.758 99.7715 429.685 100.227 429.623 100.621C429.602 100.704 429.592 100.786 429.592 100.869C429.592 100.952 429.592 101.025 429.592 101.087C429.592 101.708 429.83 102.019 430.307 102.019C430.597 102.019 430.959 101.884 431.394 101.615C431.808 101.366 432.202 101.045 432.575 100.652C432.968 100.238 433.248 99.9268 433.414 99.7197C433.828 99.1811 434.222 98.6114 434.595 98.0107C434.967 97.3893 435.288 96.8196 435.558 96.3017C435.661 96.136 435.734 96.0532 435.775 96.0532C435.9 96.0532 435.962 96.2292 435.962 96.5814C435.962 96.7471 435.931 96.9439 435.868 97.1718C435.827 97.3789 435.755 97.5757 435.651 97.7621C435.361 98.2593 435.019 98.8082 434.626 99.409C434.232 100.01 433.828 100.59 433.414 101.149C433.103 101.563 432.668 102.009 432.109 102.485C431.549 102.962 430.949 103.365 430.307 103.697C429.664 104.028 429.053 104.194 428.473 104.194ZM431.736 93.0392C432.772 91.817 433.818 90.512 434.874 89.1241C435.951 87.7155 436.842 86.2862 437.546 84.8361C437.588 84.7325 437.681 84.5254 437.826 84.2147C437.971 83.904 438.106 83.5622 438.23 83.1893C438.354 82.7957 438.416 82.4643 438.416 82.195C438.416 81.8428 438.282 81.6668 438.012 81.6668H437.795C437.526 81.6668 437.205 81.8532 436.832 82.2261C436.48 82.5989 436.117 83.0961 435.744 83.7175C435.268 84.5047 434.802 85.4161 434.346 86.4519C433.89 87.4669 433.445 88.5441 433.01 89.6834C432.575 90.8227 432.15 91.9413 431.736 93.0392ZM443.98 104.194C443.338 104.194 442.893 103.945 442.644 103.448C442.417 102.951 442.303 102.34 442.303 101.615C442.303 100.952 442.365 100.3 442.489 99.6575C442.551 99.3675 442.613 99.0775 442.675 98.7875C442.758 98.4768 442.852 98.1557 442.955 97.8243C442.603 98.4664 442.23 99.0879 441.837 99.6886C441.464 100.289 441.08 100.818 440.687 101.273C440.024 102.081 439.32 102.754 438.574 103.293C437.849 103.832 437.124 104.101 436.399 104.101C435.819 104.101 435.322 103.894 434.907 103.479C434.514 103.044 434.317 102.299 434.317 101.242C434.317 100.165 434.503 99.0568 434.876 97.9175C435.249 96.7782 435.767 95.7217 436.43 94.7481C437.114 93.7538 437.911 92.9563 438.823 92.3556C439.755 91.7549 440.77 91.4545 441.868 91.4545C442.22 91.4545 442.603 91.5063 443.017 91.6098C443.432 91.7134 443.815 91.9102 444.167 92.2002C444.519 92.4695 444.757 92.8527 444.882 93.3499C444.902 93.3085 444.923 93.2774 444.944 93.2567C444.985 93.236 445.016 93.2152 445.037 93.1945C445.327 92.7388 445.658 92.3556 446.031 92.0449C446.404 91.7341 446.818 91.5788 447.274 91.5788C447.502 91.5788 447.823 91.5891 448.237 91.6098C448.652 91.6306 448.952 91.6306 449.138 91.6098C449.035 91.6927 448.89 91.8584 448.703 92.107C448.538 92.3556 448.382 92.6145 448.237 92.8838C448.092 93.1324 447.978 93.3292 447.896 93.4742C447.336 94.5513 446.829 95.6182 446.373 96.6746C445.917 97.7311 445.565 98.7461 445.317 99.7197C445.254 99.9268 445.213 100.124 445.192 100.31C445.172 100.476 445.161 100.641 445.161 100.807C445.161 101.346 445.337 101.615 445.689 101.615C446.021 101.615 446.435 101.408 446.932 100.994C447.657 100.414 448.289 99.6886 448.828 98.8186C449.387 97.9486 449.874 97.1096 450.288 96.3017C450.371 96.1567 450.444 96.0842 450.506 96.0842C450.63 96.0842 450.692 96.2603 450.692 96.6125C450.692 96.7782 450.661 96.9646 450.599 97.1718C450.557 97.3789 450.485 97.5757 450.381 97.7621C450.091 98.2593 449.708 98.8704 449.232 99.5954C448.776 100.32 448.258 101.035 447.678 101.739C447.098 102.423 446.487 103.003 445.845 103.479C445.223 103.956 444.602 104.194 443.98 104.194ZM437.797 101.491C437.859 101.512 437.953 101.522 438.077 101.522C438.47 101.522 438.895 101.356 439.351 101.025C439.806 100.693 440.262 100.269 440.718 99.7507C441.174 99.2122 441.578 98.6736 441.93 98.135C442.841 96.685 443.514 95.5974 443.949 94.8724C444.384 94.1474 444.633 93.7331 444.695 93.6295C444.592 93.2774 444.405 93.0185 444.136 92.8527C443.887 92.687 443.587 92.6042 443.235 92.6042C442.779 92.6042 442.292 92.7284 441.774 92.977C441.277 93.2256 440.853 93.526 440.5 93.8781C439.962 94.4167 439.444 95.1106 438.947 95.9599C438.47 96.8093 438.077 97.6482 437.766 98.4768C437.476 99.3054 437.331 99.9993 437.331 100.559C437.331 101.076 437.486 101.387 437.797 101.491ZM454.317 104.225C453.654 104.225 453.178 103.945 452.888 103.386C452.66 102.889 452.546 102.299 452.546 101.615C452.546 100.849 452.66 99.9993 452.888 99.0672C453.115 98.135 453.426 97.1821 453.82 96.2085C453.965 95.8564 454.151 95.411 454.379 94.8724C454.628 94.3338 454.918 93.8056 455.249 93.2877C454.959 93.5363 454.617 93.7435 454.224 93.9092C453.83 94.0542 453.447 94.1267 453.074 94.1267C452.784 94.1267 452.546 94.0853 452.359 94.0024C452.194 94.3338 451.924 94.8724 451.551 95.6182C451.179 96.3639 450.681 97.2443 450.06 98.2593C449.998 98.3629 449.936 98.3629 449.874 98.2593C449.832 98.135 449.811 97.9693 449.811 97.7621C449.811 97.5964 449.832 97.4203 449.874 97.2339C449.915 97.0475 449.977 96.8714 450.06 96.7057C450.267 96.3121 450.474 95.9082 450.681 95.4939C450.889 95.0589 451.075 94.6756 451.241 94.3442C451.406 94.0128 451.5 93.8056 451.52 93.7228C451.147 93.5363 450.868 93.2774 450.681 92.9459C450.495 92.5938 450.402 92.252 450.402 91.9206C450.402 91.5891 450.474 91.2888 450.619 91.0195C450.785 90.7502 451.023 90.543 451.334 90.398C451.52 90.3359 451.696 90.3048 451.862 90.3048C452.318 90.3048 452.691 90.4498 452.981 90.7398C452.96 90.8227 452.939 90.9159 452.919 91.0195C452.919 91.1023 452.919 91.1956 452.919 91.2991C452.919 91.9413 453.178 92.4177 453.695 92.7284C454.213 93.0392 454.773 93.1531 455.373 93.0702C455.663 92.6559 455.995 92.2934 456.368 91.9827C456.74 91.672 457.144 91.5166 457.579 91.5166C457.807 91.5166 458.128 91.527 458.543 91.5477C458.978 91.5684 459.288 91.5684 459.475 91.5477C459.351 91.6306 459.206 91.7963 459.04 92.0449C458.874 92.2934 458.719 92.5524 458.574 92.8217C458.429 93.091 458.315 93.2981 458.232 93.4431C457.673 94.5203 457.155 95.5974 456.678 96.6746C456.202 97.7311 455.839 98.7461 455.591 99.7197C455.549 99.9061 455.508 100.082 455.467 100.248C455.446 100.393 455.435 100.548 455.435 100.714C455.435 101.335 455.643 101.646 456.057 101.646C456.347 101.646 456.761 101.439 457.3 101.025C457.776 100.631 458.201 100.196 458.574 99.7197C458.988 99.1811 459.382 98.6011 459.754 97.9796C460.127 97.3582 460.448 96.7885 460.718 96.2707C460.821 96.1049 460.894 96.0221 460.935 96.0221C461.059 96.0221 461.122 96.2085 461.122 96.5814C461.122 96.7264 461.101 96.9025 461.059 97.1096C461.018 97.3168 460.946 97.5136 460.842 97.7C460.531 98.2179 460.179 98.7875 459.786 99.409C459.392 100.01 458.988 100.6 458.574 101.18C458.304 101.553 457.921 101.978 457.424 102.454C456.948 102.93 456.43 103.345 455.87 103.697C455.332 104.049 454.814 104.225 454.317 104.225ZM460.623 110.253C460.105 110.253 459.556 110.17 458.976 110.005C458.417 109.86 457.951 109.601 457.578 109.228C457.185 108.855 456.988 108.358 456.988 107.736C456.988 107.301 457.122 106.897 457.392 106.524C457.661 106.152 458.034 105.965 458.51 105.965C458.8 105.965 459.07 106.038 459.318 106.183C459.567 106.348 459.733 106.545 459.815 106.773C459.774 106.794 459.712 106.856 459.629 106.959C459.546 107.063 459.494 107.136 459.474 107.177C459.329 107.467 459.256 107.767 459.256 108.078C459.256 108.472 459.391 108.782 459.66 109.01C459.95 109.259 460.313 109.383 460.748 109.383C461.307 109.383 461.887 109.176 462.488 108.762C463.15 108.285 463.668 107.664 464.041 106.897C464.435 106.152 464.746 105.478 464.973 104.878L466.744 100.155C466.372 100.61 465.978 101.076 465.564 101.553C465.17 102.009 464.922 102.288 464.818 102.392C464.031 103.179 463.327 103.676 462.705 103.883C462.084 104.09 461.535 104.194 461.058 104.194C460.561 104.194 460.136 103.977 459.784 103.542C459.453 103.107 459.287 102.475 459.287 101.646C459.287 101.232 459.349 100.704 459.474 100.061C459.598 99.4193 459.774 98.7357 460.002 98.0107C460.23 97.265 460.489 96.54 460.779 95.8357C461.089 95.1106 461.421 94.4685 461.773 93.9092C462.312 93.0599 462.912 92.5109 463.575 92.2624C464.238 92.0138 465.077 91.8895 466.092 91.8895C466.175 91.8895 466.216 91.9309 466.216 92.0138C466.216 92.0966 466.154 92.2002 466.03 92.3245C465.74 92.5731 465.388 93.0081 464.973 93.6295C464.559 94.251 464.155 94.9346 463.762 95.6803C463.389 96.426 463.078 97.1407 462.829 97.8243C462.664 98.3007 462.498 98.86 462.332 99.5022C462.187 100.144 462.115 100.704 462.115 101.18C462.115 101.512 462.156 101.781 462.239 101.988C462.343 102.174 462.498 102.268 462.705 102.268C463.037 102.268 463.492 102.019 464.072 101.522C464.942 100.797 465.729 99.9061 466.434 98.8497C467.138 97.7932 467.739 96.6953 468.236 95.556C468.526 94.8931 468.764 94.3338 468.951 93.8781C469.137 93.4017 469.344 93.0185 469.572 92.7284C469.8 92.4384 470.121 92.2313 470.535 92.107C470.95 91.962 471.509 91.8895 472.213 91.8895H473.487C473.094 92.1381 472.7 92.6042 472.306 93.2877C471.913 93.9506 471.54 94.7378 471.188 95.6492C470.919 96.3121 470.639 97.0371 470.349 97.8243C470.08 98.6114 469.8 99.409 469.51 100.217C469.261 100.963 468.992 101.781 468.702 102.672C468.412 103.542 468.081 104.391 467.708 105.219C467.335 106.069 466.9 106.804 466.403 107.426C465.698 108.296 464.839 108.979 463.824 109.476C462.809 109.994 461.742 110.253 460.623 110.253Z" fill="#7481AA"/>
<path d="M68.7833 11.1303L67.5958 19.9287L58.7082 19.5925L66.7232 23.4437L63.6636 31.7801L69.8026 25.3608L76.7946 30.8466L72.5752 23.0289L79.9585 18.0871L71.2114 19.6745L68.7833 11.1303Z" fill="#FCEA10"/>
<line x1="49.0879" y1="4.40881" x2="5.00003" y2="4.40881" stroke="#7481AA" stroke-width="8.81757" stroke-linecap="round"/>
<path d="M5.00003 48.4966L5.00003 4.40881" stroke="#7481AA" stroke-width="8.81757" stroke-linecap="round"/>
<line x1="455.304" y1="130.591" x2="499.392" y2="130.591" stroke="#7481AA" stroke-width="8.81757" stroke-linecap="round"/>
<path d="M499.392 86.5034L499.392 130.591" stroke="#7481AA" stroke-width="8.81757" stroke-linecap="round"/>
</svg>
